<svg width="151" height="50" viewBox="0 0 151 50" fill="none" xmlns="http://www.w3.org/2000/svg">
<g clip-path="url(#clip0_85_769)">
<path d="M31.8488 43.7424L42.8763 32.3895L37.6792 25.4097H41.3884L44.9673 30.2076L52.2221 22.6754H55.9828L46.6037 32.4138L51.7948 39.3572H48.0765L44.5128 34.5958L35.6186 43.7424H31.8488Z" fill="#B6519E"/>
<mask id="mask0_85_769" style="mask-type:luminance" maskUnits="userSpaceOnUse" x="23" y="0" width="105" height="50">
<path d="M128 0H23V50H128V0Z" fill="white"/>
</mask>
<g mask="url(#mask0_85_769)">
<path d="M53.0342 39.5333L54.1524 29.1909C54.2251 28.5385 54.4069 27.974 54.6979 27.5127C54.9858 27.0545 55.3282 26.6782 55.7161 26.396C56.104 26.1137 56.5191 25.9074 56.9525 25.7769C57.3828 25.6525 57.7798 25.5857 58.1343 25.5857H63.7284C64.2981 25.5857 64.8103 25.6616 65.2527 25.8072C65.6921 25.9559 66.083 26.1562 66.4073 26.402C66.7315 26.6479 67.0043 26.9392 67.2164 27.2609C67.4255 27.5795 67.5922 27.9194 67.7164 28.2684C67.8376 28.6174 67.9164 28.9755 67.9498 29.3336C67.9831 29.6886 67.9831 30.0255 67.9498 30.3381L67.8255 31.4609C67.7649 32.0375 67.6346 32.5625 67.4437 33.0177C67.2497 33.4699 67.0103 33.8796 66.7285 34.2286C66.4467 34.5745 66.1285 34.878 65.783 35.1269C65.4406 35.3727 65.083 35.576 64.7194 35.7308C64.3557 35.8855 63.986 36.0009 63.6254 36.0737C63.2648 36.1435 62.9254 36.1799 62.6102 36.1799H56.8585L57.1585 33.4153H62.8799C63.1708 33.391 63.4557 33.3303 63.7102 33.2302C63.9587 33.133 64.183 32.9965 64.3739 32.8326C64.5618 32.6657 64.7163 32.4654 64.8376 32.2317C64.9557 31.9981 65.0345 31.728 65.0679 31.4306L65.1891 30.3047C65.1891 30.0255 65.1557 29.7493 65.086 29.5035C65.0194 29.2638 64.9133 29.0574 64.7739 28.8905C64.6345 28.7236 64.4527 28.5931 64.2406 28.496C64.0224 28.4019 63.7587 28.3534 63.4587 28.3534H57.8858C57.5919 28.3534 57.3676 28.4232 57.204 28.5719C57.0434 28.7175 56.9434 28.936 56.9131 29.2243L55.7979 39.5333H53.0342Z" fill="#0B938C"/>
</g>
<mask id="mask1_85_769" style="mask-type:luminance" maskUnits="userSpaceOnUse" x="23" y="0" width="105" height="50">
<path d="M128 0H23V50H128V0Z" fill="white"/>
</mask>
<g mask="url(#mask1_85_769)">
<path d="M98.5568 39.3572L98.8568 36.5926H108.524C108.966 36.5926 109.312 36.4682 109.578 36.2133C109.845 35.9584 110.003 35.6094 110.051 35.1784C110.072 34.969 110.063 34.7748 110.018 34.6018C109.975 34.4319 109.9 34.2832 109.8 34.1618C109.7 34.0404 109.572 33.9463 109.415 33.8796C109.254 33.8098 109.069 33.7764 108.86 33.7764H103.172C102.76 33.7764 102.321 33.7005 101.86 33.5549C101.396 33.4062 100.969 33.1634 100.593 32.8356C100.217 32.5049 99.9174 32.0679 99.7023 31.5337C99.4871 30.9996 99.4174 30.3411 99.5022 29.5764C99.5841 28.8177 99.7932 28.1622 100.12 27.6372C100.448 27.1122 100.839 26.6782 101.281 26.3474C101.724 26.0197 102.196 25.7769 102.69 25.6312C103.178 25.4856 103.636 25.4097 104.048 25.4097H114.436L112.327 28.1773H103.778C103.345 28.1773 103.005 28.3048 102.736 28.5628C102.469 28.8237 102.308 29.1758 102.26 29.6097C102.214 30.0407 102.296 30.3836 102.499 30.6294C102.705 30.8722 103.014 30.9905 103.445 30.9905H109.154C109.427 30.9966 109.718 31.036 110.018 31.1058C110.318 31.1726 110.615 31.2819 110.906 31.4245C111.193 31.5702 111.466 31.7553 111.721 31.9738C111.972 32.1953 112.194 32.4654 112.375 32.778C112.557 33.0875 112.687 33.4486 112.769 33.8492C112.851 34.2498 112.866 34.7081 112.812 35.2088C112.757 35.7095 112.642 36.1678 112.472 36.5683C112.303 36.9689 112.094 37.327 111.851 37.6366C111.609 37.9431 111.33 38.2101 111.024 38.4256C110.724 38.641 110.412 38.8171 110.096 38.9536C109.784 39.0902 109.463 39.1934 109.148 39.2601C108.833 39.3239 108.533 39.3572 108.257 39.3572H98.5568Z" fill="#0B938C"/>
</g>
<mask id="mask2_85_769" style="mask-type:luminance" maskUnits="userSpaceOnUse" x="23" y="0" width="105" height="50">
<path d="M128 0H23V50H128V0Z" fill="white"/>
</mask>
<g mask="url(#mask2_85_769)">
<path d="M111.793 39.3572L113.845 36.5926H123.682C124.121 36.5926 124.467 36.4682 124.733 36.2133C125 35.9584 125.161 35.6094 125.206 35.1784C125.23 34.969 125.218 34.7748 125.173 34.6018C125.13 34.4319 125.057 34.2832 124.957 34.1618C124.857 34.0404 124.727 33.9463 124.57 33.8796C124.412 33.8098 124.224 33.7764 124.018 33.7764H118.33C117.918 33.7764 117.475 33.7005 117.015 33.5549C116.551 33.4062 116.124 33.1634 115.751 32.8356C115.372 32.5049 115.072 32.0679 114.857 31.5337C114.642 30.9996 114.575 30.3411 114.657 29.5764C114.739 28.8177 114.948 28.1622 115.275 27.6372C115.603 27.1122 115.994 26.6782 116.436 26.3474C116.878 26.0197 117.354 25.7769 117.845 25.6312C118.336 25.4856 118.791 25.4097 119.203 25.4097H127.782L126.073 28.1773H118.936C118.503 28.1773 118.16 28.3048 117.891 28.5628C117.624 28.8237 117.463 29.1758 117.418 29.6097C117.369 30.0407 117.451 30.3836 117.657 30.6294C117.863 30.8722 118.172 30.9905 118.6 30.9905H124.309C124.585 30.9966 124.873 31.036 125.173 31.1058C125.473 31.1726 125.773 31.2819 126.061 31.4245C126.348 31.5702 126.624 31.7553 126.876 31.9738C127.13 32.1953 127.348 32.4654 127.53 32.778C127.712 33.0875 127.845 33.4486 127.927 33.8492C128.006 34.2498 128.021 34.7081 127.967 35.2088C127.912 35.7095 127.797 36.1678 127.627 36.5683C127.458 36.9689 127.248 37.327 127.006 37.6366C126.764 37.9431 126.485 38.2101 126.182 38.4256C125.879 38.641 125.567 38.8171 125.251 38.9536C124.939 39.0902 124.618 39.1934 124.303 39.2601C123.988 39.3239 123.688 39.3572 123.412 39.3572H111.793Z" fill="#0B938C"/>
</g>
<mask id="mask3_85_769" style="mask-type:luminance" maskUnits="userSpaceOnUse" x="23" y="0" width="105" height="50">
<path d="M128 0H23V50H128V0Z" fill="white"/>
</mask>
<g mask="url(#mask3_85_769)">
<path d="M86.4836 39.3572C85.7624 39.3572 85.1139 39.075 84.6533 38.5621C84.1927 38.0462 83.9805 37.3634 84.0593 36.6351L85.0139 28.1773C85.1745 26.6934 86.5109 25.4855 87.9928 25.4855H99.6961L97.8658 28.147L87.8291 28.1622L86.8412 36.6654L96.8809 36.6503L96.5476 39.3572H86.4836Z" fill="#0B938C"/>
</g>
<mask id="mask4_85_769" style="mask-type:luminance" maskUnits="userSpaceOnUse" x="23" y="0" width="105" height="50">
<path d="M128 0H23V50H128V0Z" fill="white"/>
</mask>
<g mask="url(#mask4_85_769)">
<path d="M88.1655 33.8735L88.4868 30.8934H93.6324L93.3081 33.8735H88.1655Z" fill="#0B938C"/>
</g>
<mask id="mask5_85_769" style="mask-type:luminance" maskUnits="userSpaceOnUse" x="23" y="0" width="105" height="50">
<path d="M128 0H23V50H128V0Z" fill="white"/>
</mask>
<g mask="url(#mask5_85_769)">
<path d="M25.4394 39.3572C24.7182 39.3572 24.0697 39.075 23.6091 38.5621C23.1485 38.0462 22.9363 37.3634 23.0151 36.6351L23.9697 28.1773C24.1303 26.6934 25.4667 25.4855 26.9486 25.4855H36.4216L38.3944 28.1622H26.7849L25.797 36.6654L37.2277 36.6503L34.667 39.3572H25.4394Z" fill="#0B938C"/>
</g>
<mask id="mask6_85_769" style="mask-type:luminance" maskUnits="userSpaceOnUse" x="23" y="0" width="105" height="50">
<path d="M128 0H23V50H128V0Z" fill="white"/>
</mask>
<g mask="url(#mask6_85_769)">
<path d="M27.1213 33.8735L27.4426 30.8934H32.5882L32.2639 33.8735H27.1213Z" fill="#0B938C"/>
</g>
<mask id="mask7_85_769" style="mask-type:luminance" maskUnits="userSpaceOnUse" x="23" y="0" width="105" height="50">
<path d="M128 0H23V50H128V0Z" fill="white"/>
</mask>
<g mask="url(#mask7_85_769)">
<path d="M76.6561 39.5636L73.656 36.1799H72.0045L72.3045 33.4122H78.0259C78.3198 33.388 78.6016 33.3273 78.8562 33.2271C79.1077 33.13 79.3289 32.9965 79.5198 32.8296C79.7077 32.6657 79.8653 32.4624 79.9835 32.2287C80.1047 31.995 80.1805 31.7249 80.2138 31.4275L80.335 30.3047C80.335 30.0225 80.3017 29.7463 80.232 29.5005C80.1653 29.2638 80.0592 29.0574 79.9199 28.8875C79.7805 28.7236 79.6017 28.5901 79.3865 28.496C79.1683 28.3989 78.9077 28.3503 78.6047 28.3503H73.0318C72.7378 28.3503 72.5136 28.4232 72.3499 28.5688C72.1893 28.7175 72.0923 28.936 72.059 29.2213L70.9438 39.5302H68.1801L69.2983 29.1909C69.3711 28.5354 69.5529 27.971 69.8438 27.5097C70.1317 27.0515 70.4741 26.6752 70.862 26.3929C71.2499 26.1107 71.6651 25.9043 72.0984 25.7769C72.5287 25.6494 72.9257 25.5827 73.2803 25.5827H78.8744C79.4441 25.5827 79.9562 25.6585 80.3986 25.8072C80.8411 25.9529 81.229 26.1532 81.5532 26.399C81.8775 26.6448 82.1502 26.9361 82.3623 27.2578C82.5714 27.5795 82.7411 27.9164 82.8624 28.2654C82.9836 28.6143 83.0624 28.9724 83.0957 29.3305C83.129 29.6856 83.129 30.0225 83.0957 30.335L82.9745 31.4579C82.9108 32.0375 82.7805 32.5595 82.5896 33.0147C82.3987 33.4699 82.1563 33.8765 81.8744 34.2255C81.5957 34.5715 81.2775 34.875 80.932 35.1238C80.5865 35.3696 80.2289 35.573 79.8653 35.7277C79.5017 35.8855 79.135 36.0008 78.7713 36.0706C78.441 36.1374 78.1259 36.1738 77.8349 36.1769L80.835 39.5636H76.6561Z" fill="#0B938C"/>
</g>
<mask id="mask8_85_769" style="mask-type:luminance" maskUnits="userSpaceOnUse" x="23" y="0" width="105" height="50">
<path d="M128 0H23V50H128V0Z" fill="white"/>
</mask>
<g mask="url(#mask8_85_769)">
<path d="M29.3032 20.1718H25.0607C25.3092 18.6969 25.5577 17.219 25.8031 15.7441H30.0457L29.9093 16.5544H26.7274L26.5577 17.571H29.6275L29.4941 18.3509H26.4274L26.2607 19.3494H29.4426L29.3032 20.1718Z" fill="#1E9693"/>
</g>
<mask id="mask9_85_769" style="mask-type:luminance" maskUnits="userSpaceOnUse" x="23" y="0" width="105" height="50">
<path d="M128 0H23V50H128V0Z" fill="white"/>
</mask>
<g mask="url(#mask9_85_769)">
<path d="M35.6065 16.9671L33.4367 18.8911H33.2276L31.7457 16.961L31.2063 20.1809H30.1366L30.879 15.7532H32.1094L33.564 17.656L35.6549 15.7532H36.8792L36.1368 20.1809H35.067L35.6065 16.9671Z" fill="#1E9693"/>
</g>
<mask id="mask10_85_769" style="mask-type:luminance" maskUnits="userSpaceOnUse" x="23" y="0" width="105" height="50">
<path d="M128 0H23V50H128V0Z" fill="white"/>
</mask>
<g mask="url(#mask10_85_769)">
<path d="M41.3066 19.3372H38.3459L37.7186 20.1748H36.561L39.8459 15.7471H41.0126L42.8096 20.1748H41.646L41.3066 19.3372ZM40.2732 16.6758L38.9035 18.5603H41.0096L40.2732 16.6758Z" fill="#1E9693"/>
</g>
<mask id="mask11_85_769" style="mask-type:luminance" maskUnits="userSpaceOnUse" x="23" y="0" width="105" height="50">
<path d="M128 0H23V50H128V0Z" fill="white"/>
</mask>
<g mask="url(#mask11_85_769)">
<path d="M47.3704 19.3372H44.4097L43.7824 20.1748H42.6248L45.9098 15.7471H47.0765L48.8735 20.1748H47.7098L47.3704 19.3372ZM46.337 16.6758L44.9673 18.5603H47.0734L46.337 16.6758Z" fill="#1E9693"/>
</g>
<mask id="mask12_85_769" style="mask-type:luminance" maskUnits="userSpaceOnUse" x="23" y="0" width="105" height="50">
<path d="M128 0H23V50H128V0Z" fill="white"/>
</mask>
<g mask="url(#mask12_85_769)">
<path d="M54.3827 20.1718H53.11L51.7069 18.6939H50.6796L50.4311 20.1718H49.3614L50.1069 15.7411C51.0039 15.7411 51.9039 15.7472 52.8009 15.7472C54.1373 15.7532 54.7221 16.4482 54.5949 17.2129C54.4918 17.8199 54.0343 18.4329 52.9282 18.6059L54.3918 20.1171L54.3827 20.1718ZM51.0433 16.524L50.8069 17.9413H52.4312C53.113 17.9413 53.4645 17.5862 53.5221 17.2311C53.5827 16.8791 53.3433 16.524 52.6706 16.524H51.0433Z" fill="#1E9693"/>
</g>
<mask id="mask13_85_769" style="mask-type:luminance" maskUnits="userSpaceOnUse" x="23" y="0" width="105" height="50">
<path d="M128 0H23V50H128V0Z" fill="white"/>
</mask>
<g mask="url(#mask13_85_769)">
<path d="M56.8343 40.999L55.5706 48.6222H60.2071L59.998 49.8483H53.6675L55.1312 40.999H56.8343Z" fill="#9B53A1"/>
</g>
<mask id="mask14_85_769" style="mask-type:luminance" maskUnits="userSpaceOnUse" x="23" y="0" width="105" height="50">
<path d="M128 0H23V50H128V0Z" fill="white"/>
</mask>
<g mask="url(#mask14_85_769)">
<path d="M69.7468 48.5221H65.0345L64.0406 49.8483H62.2011L67.4225 42.8108H69.2771L72.1347 49.8483H70.2832L69.7468 48.5221ZM68.1013 44.2887L65.9255 47.2839H69.271L68.1013 44.2887Z" fill="#9B53A1"/>
</g>
<mask id="mask15_85_769" style="mask-type:luminance" maskUnits="userSpaceOnUse" x="23" y="0" width="105" height="50">
<path d="M128 0H23V50H128V0Z" fill="white"/>
</mask>
<g mask="url(#mask15_85_769)">
<path d="M83.2381 42.8229L82.5623 46.856C82.2108 48.9348 80.3986 50.003 78.1349 50.003C75.9712 50.003 74.3045 48.9773 74.6591 46.856L75.3348 42.8229H77.0228L76.344 46.856C76.1318 48.1215 76.947 48.7952 78.3501 48.7952C79.7531 48.7952 80.6744 48.0608 80.8744 46.856L81.5532 42.8229H83.2381Z" fill="#9B53A1"/>
</g>
<mask id="mask16_85_769" style="mask-type:luminance" maskUnits="userSpaceOnUse" x="23" y="0" width="105" height="50">
<path d="M128 0H23V50H128V0Z" fill="white"/>
</mask>
<g mask="url(#mask16_85_769)">
<path d="M92.7838 40.999H94.4839L93.0687 49.8483H92.0111V49.8574L88.0716 45.102L87.2746 49.8483H85.5776L86.7594 42.8108H88.1352L91.8172 47.1747L92.7838 40.999Z" fill="#9B53A1"/>
</g>
<mask id="mask17_85_769" style="mask-type:luminance" maskUnits="userSpaceOnUse" x="23" y="0" width="105" height="50">
<path d="M128 0H23V50H128V0Z" fill="white"/>
</mask>
<g mask="url(#mask17_85_769)">
<path d="M105.084 46.2703C104.824 48.0517 103.13 49.8513 99.978 49.8513H96.4385L97.6203 42.8138H101.16C104.248 42.8138 105.336 44.5314 105.084 46.2703ZM98.3385 48.5737H100.193C102.239 48.5737 103.245 47.4084 103.399 46.2612C103.545 45.1657 102.905 44.0702 100.948 44.0702H99.0931L98.3385 48.5737Z" fill="#9B53A1"/>
</g>
<mask id="mask18_85_769" style="mask-type:luminance" maskUnits="userSpaceOnUse" x="23" y="0" width="105" height="50">
<path d="M128 0H23V50H128V0Z" fill="white"/>
</mask>
<g mask="url(#mask18_85_769)">
<path d="M115.724 49.8513H113.706L111.472 47.4964H109.839L109.445 49.8513H107.745L108.927 42.8017C110.357 42.8017 111.784 42.8108 113.212 42.8108C115.333 42.8229 116.269 43.9275 116.063 45.1445C115.903 46.1095 115.172 47.0867 113.415 47.3568L115.739 49.7603L115.724 49.8513ZM110.418 44.0489L110.039 46.3007H112.627C113.709 46.3007 114.266 45.7393 114.36 45.1748C114.454 44.6134 114.072 44.0489 113.006 44.0489H110.418Z" fill="#9B53A1"/>
</g>
<mask id="mask19_85_769" style="mask-type:luminance" maskUnits="userSpaceOnUse" x="23" y="0" width="105" height="50">
<path d="M128 0H23V50H128V0Z" fill="white"/>
</mask>
<g mask="url(#mask19_85_769)">
<path d="M122.839 45.718L125.721 42.8138H127.767L127.758 42.8714L123.482 46.944L122.994 49.8513H121.297L121.785 46.944L119.006 42.8714L119.015 42.8138H121.036L122.839 45.718Z" fill="#9B53A1"/>
</g>
<mask id="mask20_85_769" style="mask-type:luminance" maskUnits="userSpaceOnUse" x="23" y="0" width="105" height="50">
<path d="M128 0H23V50H128V0Z" fill="white"/>
</mask>
<g mask="url(#mask20_85_769)">
<path d="M81.3199 11.2618H74.8742L72.9711 7.25904H84.7078L81.3199 11.2618Z" fill="#B6519E"/>
</g>
<mask id="mask21_85_769" style="mask-type:luminance" maskUnits="userSpaceOnUse" x="23" y="0" width="105" height="50">
<path d="M128 0H23V50H128V0Z" fill="white"/>
</mask>
<g mask="url(#mask21_85_769)">
<path d="M72.9712 7.26208L77.0592 15.1281L72.0499 20.9031L67.8771 13.1282L72.9712 7.26208Z" fill="#9B53A1"/>
</g>
<mask id="mask22_85_769" style="mask-type:luminance" maskUnits="userSpaceOnUse" x="23" y="0" width="105" height="50">
<path d="M128 0H23V50H128V0Z" fill="white"/>
</mask>
<g mask="url(#mask22_85_769)">
<path d="M84.6866 7.26208L78.0258 15.1281L81.1471 20.9031L87.8625 13.1282L84.6866 7.26208Z" fill="#9B53A1"/>
</g>
<mask id="mask23_85_769" style="mask-type:luminance" maskUnits="userSpaceOnUse" x="23" y="0" width="105" height="50">
<path d="M128 0H23V50H128V0Z" fill="white"/>
</mask>
<g mask="url(#mask23_85_769)">
<path d="M93.6323 23.5585L93.996 20.3842C94.2384 18.9154 93.8839 17.5346 93.002 16.4937C92.1323 15.471 90.8626 14.9065 89.4201 14.9065L87.5594 14.9035L88.7898 13.4165H89.7565C91.5747 13.4165 93.1687 14.1205 94.2536 15.3951C95.3566 16.697 95.796 18.4359 95.493 20.2901L95.1142 23.5585H93.6323Z" fill="#9B53A1"/>
</g>
<mask id="mask24_85_769" style="mask-type:luminance" maskUnits="userSpaceOnUse" x="23" y="0" width="105" height="50">
<path d="M128 0H23V50H128V0Z" fill="white"/>
</mask>
<g mask="url(#mask24_85_769)">
<path d="M57.7737 23.9166L58.095 20.3842C58.7223 16.5422 62.3557 13.4165 66.1891 13.4165H66.971L67.771 14.9065H65.8497C62.886 14.9065 60.0768 17.3222 59.592 20.2901L59.2556 23.9166H57.7737Z" fill="#9B53A1"/>
</g>
<mask id="mask25_85_769" style="mask-type:luminance" maskUnits="userSpaceOnUse" x="23" y="0" width="105" height="50">
<path d="M128 0H23V50H128V0Z" fill="white"/>
</mask>
<g mask="url(#mask25_85_769)">
<path d="M78.5016 7.57769L77.6803 7.48361L77.944 5.18026L77.941 4.76451H78.0137C79.1228 4.73112 80.1137 3.84195 80.238 2.74945C80.2986 2.23962 80.1531 1.76014 79.8319 1.399C79.5046 1.0318 79.0319 0.828478 78.4955 0.828478C77.3591 0.828478 76.3348 1.72979 76.2045 2.8405L75.3833 2.74642C75.5591 1.2321 76.953 0 78.4955 0C79.2713 0 79.9653 0.300437 80.4501 0.849721C80.9289 1.38687 81.1471 2.09699 81.0592 2.84656C80.9168 4.09383 79.944 5.15295 78.741 5.48373L78.5016 7.57769Z" fill="#B6519E"/>
</g>
<mask id="mask26_85_769" style="mask-type:luminance" maskUnits="userSpaceOnUse" x="23" y="0" width="105" height="50">
<path d="M128 0H23V50H128V0Z" fill="white"/>
</mask>
<g mask="url(#mask26_85_769)">
<path d="M88.2988 17.5619C87.1958 17.5619 86.3018 18.4571 86.3018 19.5618C86.3018 20.6664 87.1958 21.5617 88.2988 21.5617C89.4019 21.5617 90.2959 20.6664 90.2959 19.5618C90.2959 18.4571 89.4019 17.5619 88.2988 17.5619ZM88.2988 21.3067C88.2564 21.3067 88.214 21.3037 88.1716 21.3007C89.0746 21.2369 89.7868 20.4813 89.7868 19.5618C89.7868 18.6392 89.0746 17.8866 88.1716 17.8199C88.214 17.8168 88.2564 17.8168 88.2988 17.8168C89.2625 17.8168 90.0413 18.5967 90.0413 19.5618C90.0413 20.5238 89.2625 21.3067 88.2988 21.3067Z" fill="#1E9693"/>
</g>
<mask id="mask27_85_769" style="mask-type:luminance" maskUnits="userSpaceOnUse" x="23" y="0" width="105" height="50">
<path d="M128 0H23V50H128V0Z" fill="white"/>
</mask>
<g mask="url(#mask27_85_769)">
<path d="M68.4832 3.97244C67.5498 3.97244 66.7952 4.73112 66.7952 5.66581C66.7952 6.59747 67.5498 7.35615 68.4832 7.35615C69.4165 7.35615 70.1711 6.59747 70.1711 5.66581C70.1711 4.73112 69.4165 3.97244 68.4832 3.97244ZM68.4832 7.14069C68.4468 7.14069 68.4104 7.13765 68.3771 7.13765C69.1408 7.07999 69.7408 6.4427 69.7408 5.66581C69.7408 4.88589 69.1408 4.2486 68.3771 4.19398C68.4104 4.19094 68.4468 4.18791 68.4832 4.18791C69.2983 4.18791 69.9559 4.84948 69.9559 5.66581C69.9559 6.47912 69.2983 7.14069 68.4832 7.14069Z" fill="#1E9693"/>
</g>
<mask id="mask28_85_769" style="mask-type:luminance" maskUnits="userSpaceOnUse" x="23" y="0" width="105" height="50">
<path d="M128 0H23V50H128V0Z" fill="white"/>
</mask>
<g mask="url(#mask28_85_769)">
<path d="M91.3747 8.1907C90.6717 8.1907 90.0989 8.76123 90.0989 9.46832C90.0989 10.1724 90.6717 10.7459 91.3747 10.7459C92.0778 10.7459 92.6505 10.1724 92.6505 9.46832C92.6505 8.76123 92.0778 8.1907 91.3747 8.1907ZM91.3747 10.5821C91.3475 10.5821 91.3202 10.5821 91.2929 10.579C91.8717 10.5365 92.3263 10.0571 92.3263 9.46832C92.3263 8.87959 91.8717 8.39707 91.2929 8.35761C91.3202 8.35458 91.3475 8.35458 91.3747 8.35458C91.9899 8.35458 92.4869 8.85227 92.4869 9.46832C92.4869 10.0844 91.9899 10.5821 91.3747 10.5821Z" fill="#1E9693"/>
</g>
<mask id="mask29_85_769" style="mask-type:luminance" maskUnits="userSpaceOnUse" x="23" y="0" width="105" height="50">
<path d="M128 0H23V50H128V0Z" fill="white"/>
</mask>
<g mask="url(#mask29_85_769)">
<path d="M67.4195 21.3644C66.7164 21.3644 66.1437 21.9349 66.1437 22.642C66.1437 23.3461 66.7164 23.9196 67.4195 23.9196C68.1225 23.9196 68.6953 23.3461 68.6953 22.642C68.6953 21.9349 68.1225 21.3644 67.4195 21.3644ZM67.4195 23.7558C67.3922 23.7558 67.3649 23.7558 67.3376 23.7527C67.9165 23.7102 68.371 23.2308 68.371 22.642C68.371 22.0533 67.9165 21.5708 67.3376 21.5313C67.3649 21.5283 67.3922 21.5283 67.4195 21.5283C68.0346 21.5283 68.5316 22.026 68.5316 22.642C68.5316 23.2581 68.0346 23.7558 67.4195 23.7558Z" fill="#1E9693"/>
</g>
</g>
<defs>
<clipPath id="clip0_85_769">
<rect width="105" height="50" fill="white" transform="translate(23)"/>
</clipPath>
</defs>
</svg>
