<svg width="151" height="50" viewBox="0 0 151 50" fill="none" xmlns="http://www.w3.org/2000/svg">
<g clip-path="url(#clip0_85_806)">
<path d="M63.1324 11.8579H54.0696V43.7425H63.1324V11.8579Z" fill="#D9272E"/>
<mask id="mask0_85_806" style="mask-type:luminance" maskUnits="userSpaceOnUse" x="54" y="0" width="42" height="50">
<path d="M96 0H54V50H96V0Z" fill="white"/>
</mask>
<g mask="url(#mask0_85_806)">
<path d="M96 11.8586H85.4223L75.7257 24.4474V9.06643H88.2401V0H54.088V9.06643H66.6024V43.7433H75.7257V33.634L76.2171 33.199L84.2457 43.7433H94.756C90.8933 38.7042 86.357 33.0795 82.5501 28.0763L96 11.8586Z" fill="#D9272E"/>
</g>
<mask id="mask1_85_806" style="mask-type:luminance" maskUnits="userSpaceOnUse" x="54" y="0" width="42" height="50">
<path d="M96 0H54V50H96V0Z" fill="white"/>
</mask>
<g mask="url(#mask1_85_806)">
<path d="M54 44.9549H57.5466V45.6212H54V44.9549ZM55.4208 45.3633H56.1258V49.9483H55.4208V45.3633Z" fill="#D9272E"/>
</g>
<mask id="mask2_85_806" style="mask-type:luminance" maskUnits="userSpaceOnUse" x="54" y="0" width="42" height="50">
<path d="M96 0H54V50H96V0Z" fill="white"/>
</mask>
<g mask="url(#mask2_85_806)">
<path d="M60.3583 44.9511H61.0633V49.9483H60.3583V44.9511ZM60.666 47.1698H62.38C62.5139 47.1698 62.6326 47.1378 62.7367 47.0739C62.84 47.0101 62.9204 46.9188 62.9763 46.8009C63.0329 46.6838 63.0613 46.5476 63.0613 46.394C63.0613 46.2403 63.0329 46.1049 62.9763 45.9863C62.9204 45.8691 62.8408 45.7779 62.7382 45.714C62.6356 45.6501 62.5162 45.6174 62.38 45.6174H60.666V44.9511H62.3532C62.6425 44.9511 62.8982 45.0104 63.1187 45.1306C63.3384 45.2493 63.5091 45.4173 63.63 45.6372C63.751 45.8555 63.8115 46.108 63.8115 46.394C63.8115 46.6807 63.7502 46.9332 63.6285 47.1515C63.506 47.3698 63.3345 47.5394 63.1148 47.6581C62.8951 47.7768 62.641 47.8361 62.3532 47.8361H60.666V47.1698ZM62.0347 47.6817L62.7367 47.5242L64.022 49.9483H63.1853L62.0347 47.6817Z" fill="#D9272E"/>
</g>
<mask id="mask3_85_806" style="mask-type:luminance" maskUnits="userSpaceOnUse" x="54" y="0" width="42" height="50">
<path d="M96 0H54V50H96V0Z" fill="white"/>
</mask>
<g mask="url(#mask3_85_806)">
<path d="M68.2881 44.9549H68.8897L70.7423 49.949H69.9813L68.5889 45.9201L67.1957 49.949H66.4355L68.2881 44.9549ZM67.2891 48.1867H69.9339V48.853H67.2891V48.1867Z" fill="#D9272E"/>
</g>
<mask id="mask4_85_806" style="mask-type:luminance" maskUnits="userSpaceOnUse" x="54" y="0" width="42" height="50">
<path d="M96 0H54V50H96V0Z" fill="white"/>
</mask>
<g mask="url(#mask4_85_806)">
<path d="M73.619 44.9557H74.324V49.949H73.619V44.9557ZM74.0959 49.2827H75.2327C75.604 49.2827 75.8918 49.1869 76.0954 48.996C76.299 48.8051 76.4016 48.5358 76.4016 48.1875V46.7172C76.4016 46.3689 76.299 46.0988 76.0954 45.9079C75.8918 45.7178 75.604 45.6219 75.2327 45.6219H74.0959V44.9557H75.212C75.6154 44.9557 75.9599 45.0249 76.2462 45.1648C76.5318 45.3048 76.7492 45.5079 76.8984 45.7764C77.0492 46.0441 77.1242 46.3666 77.1242 46.7446V48.1593C77.1242 48.5381 77.0492 48.8599 76.8984 49.1283C76.7492 49.3961 76.531 49.5999 76.2439 49.7399C75.9576 49.8791 75.6116 49.949 75.209 49.949H74.0959V49.2827Z" fill="#D9272E"/>
</g>
<mask id="mask5_85_806" style="mask-type:luminance" maskUnits="userSpaceOnUse" x="54" y="0" width="42" height="50">
<path d="M96 0H54V50H96V0Z" fill="white"/>
</mask>
<g mask="url(#mask5_85_806)">
<path d="M81.023 44.9557H80.3172V49.949H81.023V44.9557Z" fill="#D9272E"/>
</g>
<mask id="mask6_85_806" style="mask-type:luminance" maskUnits="userSpaceOnUse" x="54" y="0" width="42" height="50">
<path d="M96 0H54V50H96V0Z" fill="white"/>
</mask>
<g mask="url(#mask6_85_806)">
<path d="M84.3835 44.9557H85.0235L87.4808 48.8157L87.3981 48.9047V44.9557H88.0962V49.946H87.4501L84.999 46.1437L85.0817 46.0547V49.946H84.3835V44.9557Z" fill="#D9272E"/>
</g>
<mask id="mask7_85_806" style="mask-type:luminance" maskUnits="userSpaceOnUse" x="54" y="0" width="42" height="50">
<path d="M96 0H54V50H96V0Z" fill="white"/>
</mask>
<g mask="url(#mask7_85_806)">
<path d="M94.8923 47.2603V48.1319C94.8923 48.5031 94.8196 48.8294 94.6749 49.1131C94.5295 49.3961 94.3243 49.6144 94.0579 49.7688C93.7923 49.9232 93.483 50.0008 93.1332 50.0008C92.778 50.0008 92.4664 49.9285 92.1977 49.7825C91.9298 49.6372 91.7216 49.4311 91.5746 49.1664C91.4269 48.9002 91.3534 48.5929 91.3534 48.2422V46.7689C91.3534 46.3978 91.4261 46.0722 91.5708 45.79C91.7162 45.5079 91.9214 45.2903 92.1878 45.1359C92.4534 44.9815 92.7627 44.9039 93.1125 44.9039C93.4003 44.9039 93.666 44.9648 93.9094 45.088C94.1521 45.2105 94.3557 45.3831 94.5195 45.6075C94.6833 45.8326 94.7936 46.092 94.851 46.3879H94.087C94.0464 46.2205 93.9752 46.0768 93.8765 45.9566C93.777 45.8364 93.6614 45.7452 93.5274 45.682C93.3935 45.6189 93.2549 45.5877 93.1125 45.5877C92.9051 45.5877 92.7229 45.6364 92.5667 45.7353C92.4098 45.8334 92.2888 45.9718 92.2031 46.149C92.1181 46.3263 92.0753 46.5331 92.0753 46.7689V48.2422C92.0753 48.4575 92.1189 48.6454 92.2069 48.8074C92.2942 48.9686 92.4182 49.0941 92.579 49.1831C92.7389 49.2729 92.9234 49.317 93.1332 49.317C93.3406 49.317 93.5228 49.2713 93.679 49.1778C93.8359 49.085 93.9569 48.9511 94.0426 48.7747C94.1276 48.5982 94.1704 48.3883 94.1704 48.1456V47.9296H93.1508V47.2603H94.8923Z" fill="#D9272E"/>
</g>
</g>
<defs>
<clipPath id="clip0_85_806">
<rect width="42" height="50" fill="white" transform="translate(54)"/>
</clipPath>
</defs>
</svg>
