<svg width="151" height="50" viewBox="0 0 151 50" fill="none" xmlns="http://www.w3.org/2000/svg">
<path d="M7.51993 10.5592H0V40.7531H7.51993V10.5592Z" fill="#045B4B"/>
<path d="M10.0361 10.5592V18.1077H19.6766V40.7531H27.1965V18.1077H34.5988L41.3062 10.5592H10.0361Z" fill="#045B4B"/>
<path d="M49.2645 10.5592L33.38 28.4244V40.6461L43.8544 28.9345L52.6574 40.7531H62.3656L49.1362 23.0663L60.3448 10.5592H49.2645Z" fill="#045B4B"/>
<path d="M73.2347 34.0371L74.9703 38.9636L76.6988 34.0371H78.5307V40.8293H77.1336V38.9743L77.2726 35.7708L75.4479 40.8329H74.4892L72.668 35.7744L72.807 38.9743V40.8329H71.4135V34.0371H73.2347Z" fill="#EAB57A"/>
<path d="M83.5701 39.4309H81.1252L80.6584 40.8329H79.1758L81.6955 34.0407H82.9856L85.5196 40.8329H84.037L83.5701 39.4309ZM81.4994 38.3001H83.1923L82.3441 35.7566L81.4994 38.3001Z" fill="#EAB57A"/>
<path d="M91.6532 40.8329H90.2597L87.5439 36.363V40.8329H86.1504V34.0371H87.5439L90.2632 38.5177V34.0371H91.6532V40.8329Z" fill="#EAB57A"/>
<path d="M96.689 39.4309H94.2441L93.7773 40.8329H92.2946L94.8144 34.0407H96.1045L98.6385 40.8329H97.1559L96.689 39.4309ZM94.6219 38.3001H96.3148L95.4666 35.7566L94.6219 38.3001Z" fill="#EAB57A"/>
<path d="M104.334 39.9767C104.084 40.2764 103.728 40.5083 103.268 40.6759C102.808 40.8436 102.302 40.9256 101.743 40.9256C101.158 40.9256 100.641 40.7972 100.199 40.5404C99.7611 40.2871 99.419 39.9125 99.1802 39.4238C98.9414 38.9315 98.8131 38.3607 98.8095 37.7008V37.2406C98.8095 36.5628 98.9236 35.9778 99.1552 35.4783C99.3798 34.9825 99.7077 34.6043 100.139 34.3404C100.567 34.0799 101.069 33.9479 101.646 33.9479C102.448 33.9479 103.076 34.1406 103.528 34.5259C103.981 34.9076 104.248 35.4676 104.334 36.2025H102.976C102.912 35.8137 102.776 35.5318 102.566 35.3499C102.356 35.168 102.06 35.0788 101.689 35.0788C101.215 35.0788 100.855 35.2607 100.606 35.6139C100.36 35.9742 100.235 36.5057 100.232 37.2085V37.6437C100.232 38.3536 100.363 38.8958 100.634 39.2561C100.902 39.6236 101.301 39.8019 101.818 39.8019C102.341 39.8019 102.716 39.6913 102.937 39.4666V38.2929H101.671V37.262H104.334V39.9767Z" fill="#EAB57A"/>
<path d="M109.533 37.8898H106.857V39.7092H110V40.8329H105.467V34.0371H109.993V35.168H106.857V36.7875H109.533V37.8898Z" fill="#EAB57A"/>
<path d="M112.638 34.0371L114.373 38.9636L116.102 34.0371H117.934V40.8293H116.533V38.9743L116.676 35.7708L114.847 40.8329H113.889L112.067 35.7744L112.206 38.9743V40.8329H110.813V34.0371H112.638Z" fill="#EAB57A"/>
<path d="M123.219 37.8898H120.543V39.7092H123.686V40.8329H119.153V34.0371H123.679V35.168H120.546V36.7875H123.223L123.219 37.8898Z" fill="#EAB57A"/>
<path d="M130.005 40.8329H128.611L125.896 36.363V40.8329H124.502V34.0371H125.896L128.615 38.5177V34.0371H130.005V40.8329Z" fill="#EAB57A"/>
<path d="M136.317 35.1715H134.242V40.8329H132.849V35.1715H130.803V34.0371H136.317V35.1715Z" fill="#EAB57A"/>
<path d="M144.528 38.5676C144.471 39.2989 144.204 39.8733 143.719 40.2942C143.234 40.7152 142.596 40.9256 141.801 40.9256C140.935 40.9256 140.251 40.6331 139.756 40.0445C139.257 39.4595 139.011 38.6532 139.011 37.6294V37.2156C139.011 36.5628 139.125 35.9849 139.357 35.4926C139.581 34.9932 139.913 34.6115 140.337 34.3475C140.761 34.0799 141.26 33.9479 141.823 33.9479C142.603 33.9479 143.234 34.1584 143.708 34.5794C144.182 35.0003 144.46 35.5889 144.531 36.3488H143.138C143.102 35.91 142.981 35.5889 142.771 35.3927C142.568 35.1929 142.247 35.0931 141.823 35.0931C141.356 35.0931 141.007 35.2607 140.779 35.596C140.551 35.9314 140.426 36.4486 140.422 37.1514V37.6687C140.422 38.4 140.533 38.9351 140.754 39.2775C140.978 39.6164 141.324 39.7877 141.801 39.7877C142.233 39.7877 142.553 39.6878 142.767 39.4916C142.981 39.2918 143.102 38.985 143.134 38.5712H144.528V38.5676Z" fill="#EAB57A"/>
<path d="M150.996 37.5902C150.996 38.2608 150.882 38.8459 150.644 39.3489C150.405 39.8519 150.07 40.2407 149.631 40.5154C149.197 40.7901 148.691 40.9256 148.124 40.9256C147.564 40.9256 147.062 40.7901 146.623 40.519C146.185 40.2514 145.843 39.8626 145.601 39.3596C145.362 38.8566 145.241 38.2787 145.237 37.6259V37.2905C145.237 36.6234 145.355 36.0348 145.597 35.5283C145.839 35.0217 146.178 34.6293 146.616 34.3546C147.055 34.0835 147.557 33.9479 148.12 33.9479C148.683 33.9479 149.186 34.0835 149.621 34.3546C150.059 34.6293 150.401 35.0217 150.64 35.5283C150.879 36.0348 151 36.6234 151 37.287V37.5902H150.996ZM149.585 37.2834C149.585 36.5699 149.46 36.0277 149.207 35.6603C148.954 35.2893 148.591 35.1038 148.12 35.1038C147.65 35.1038 147.29 35.2893 147.037 35.6531C146.784 36.0206 146.656 36.5521 146.652 37.2584V37.5902C146.652 38.2822 146.777 38.8245 147.03 39.2062C147.283 39.5843 147.65 39.777 148.127 39.777C148.598 39.777 148.954 39.5915 149.207 39.2276C149.457 38.8566 149.585 38.3215 149.585 37.6152V37.2834Z" fill="#EAB57A"/>
<path d="M75.8078 26.9605H73.363L72.8961 28.3625H71.4135L73.9332 21.5703H75.2233L77.7573 28.3625H76.2747L75.8078 26.9605ZM73.7407 25.8297H75.4336L74.5818 23.2862L73.7407 25.8297Z" fill="#EAB57A"/>
<path d="M83.8909 28.3625H82.4974L79.7816 23.8926V28.3625H78.3881V21.5703H79.7816L82.5009 26.0473V21.5703H83.8909V28.3625Z" fill="#EAB57A"/>
<path d="M85.1097 28.3625V21.5703H87.1911C87.7862 21.5703 88.3137 21.7058 88.7841 21.9734C89.2546 22.2409 89.6181 22.6262 89.8854 23.1221C90.1491 23.6179 90.281 24.1816 90.281 24.813V25.1233C90.281 25.7548 90.1491 26.3148 89.8925 26.8071C89.6359 27.2994 89.2688 27.6811 88.7984 27.9487C88.3244 28.2198 87.7969 28.3553 87.2053 28.3589H85.1097V28.3625ZM86.5032 22.7011V27.2352H87.1768C87.7185 27.2352 88.1391 27.0568 88.4277 26.7001C88.7164 26.3434 88.8626 25.8297 88.8697 25.1662V24.8059C88.8697 24.1138 88.7271 23.593 88.442 23.2362C88.1569 22.8795 87.7399 22.7011 87.1911 22.7011H86.5032Z" fill="#EAB57A"/>
<path d="M98.977 26.1008C98.92 26.8321 98.6527 27.4064 98.168 27.8274C97.6833 28.2483 97.0454 28.4552 96.2506 28.4552C95.3846 28.4552 94.7003 28.1591 94.2049 27.5741C93.706 26.9855 93.4601 26.1828 93.4601 25.159V24.7452C93.4601 24.0924 93.5741 23.518 93.8058 23.0186C94.0303 22.5192 94.3617 22.1375 94.7858 21.8735C95.21 21.6095 95.7089 21.474 96.272 21.474C97.0525 21.474 97.6833 21.6844 98.1573 22.1054C98.6313 22.5263 98.9093 23.1149 98.9806 23.8748H97.5871C97.5515 23.436 97.4303 23.1185 97.22 22.9187C97.0097 22.7225 96.6926 22.6226 96.2649 22.6226C95.798 22.6226 95.4487 22.7903 95.2206 23.1256C94.9925 23.461 94.8678 23.9782 94.8642 24.6846V25.1983C94.8642 25.9331 94.9747 26.4682 95.1957 26.8071C95.4202 27.146 95.7659 27.3172 96.2435 27.3172C96.6747 27.3172 96.9955 27.2209 97.2093 27.0212C97.4232 26.825 97.5443 26.5182 97.5764 26.1044L98.977 26.1008Z" fill="#EAB57A"/>
<path d="M103.55 26.9605H101.105L100.638 28.3625H99.1552L101.675 21.5703H102.965L105.499 28.3625H104.016L103.55 26.9605ZM101.483 25.8297H103.175L102.327 23.2862L101.483 25.8297Z" fill="#EAB57A"/>
<path d="M110.56 22.7011H108.486V28.3589H107.092V22.7011H105.046V21.5703H110.56V22.7011Z" fill="#EAB57A"/>
<path d="M115.425 25.4194H112.748V27.2388H115.892V28.3625H111.358V21.5703H115.884V22.7047H112.752V24.3243H115.428L115.425 25.4194Z" fill="#EAB57A"/>
<path d="M119.21 25.8761H118.098V28.3625H116.704V21.5703H119.217C120.015 21.5703 120.632 21.7487 121.066 22.1054C121.501 22.4621 121.719 22.9687 121.719 23.6215C121.719 24.0853 121.619 24.4705 121.419 24.7809C121.22 25.0912 120.917 25.3374 120.51 25.5229L121.975 28.2983V28.366H120.478L119.21 25.8761ZM118.101 24.7416H119.224C119.577 24.7416 119.848 24.6525 120.04 24.4741C120.232 24.2957 120.329 24.0496 120.329 23.7357C120.329 23.4146 120.24 23.1613 120.058 22.9794C119.872 22.7974 119.598 22.7047 119.224 22.7047H118.105L118.101 24.7416Z" fill="#EAB57A"/>
<path d="M124.26 28.3625H122.866V21.5703H124.26V28.3625Z" fill="#EAB57A"/>
<path d="M131.056 28.3625H129.663L126.947 23.8926V28.3625H125.553V21.5703H126.947L129.666 26.0473V21.5703H131.056V28.3625Z" fill="#EAB57A"/>
<path d="M137.624 27.5028C137.375 27.8024 137.019 28.0379 136.559 28.2055C136.099 28.3732 135.593 28.4552 135.033 28.4552C134.449 28.4552 133.932 28.3268 133.49 28.07C133.052 27.8131 132.71 27.4385 132.471 26.9534C132.232 26.4682 132.104 25.8903 132.1 25.2339V24.7702C132.1 24.0924 132.214 23.5073 132.446 23.0079C132.671 22.5121 132.998 22.1339 133.43 21.8699C133.857 21.606 134.36 21.474 134.937 21.474C135.739 21.474 136.366 21.6666 136.819 22.0519C137.272 22.4371 137.539 22.9972 137.624 23.7285H136.267C136.202 23.3397 136.067 23.0579 135.857 22.8759C135.646 22.694 135.354 22.6048 134.98 22.6048C134.506 22.6048 134.146 22.7832 133.897 23.1399C133.651 23.4966 133.526 24.0282 133.522 24.7345V25.1697C133.522 25.8832 133.654 26.4219 133.925 26.7857C134.192 27.1496 134.592 27.3315 135.108 27.3315C135.632 27.3315 136.006 27.2209 136.227 26.9962V25.8225H134.962V24.7916H137.624V27.5028Z" fill="#EAB57A"/>
<path d="M73.9189 13.3949H72.807V15.8849H71.4135V9.08918H73.9296C74.728 9.08918 75.3445 9.26755 75.7793 9.62428C76.2141 9.98102 76.4315 10.4876 76.4315 11.1404C76.4315 11.6041 76.3317 11.9894 76.1321 12.2998C75.9326 12.6101 75.6296 12.8563 75.2233 13.0418L76.6881 15.8172V15.8849H75.1913L73.9189 13.3949ZM72.807 12.2605H73.9296C74.2825 12.2605 74.5498 12.1714 74.7458 11.993C74.9382 11.8146 75.0309 11.5685 75.0309 11.2546C75.0309 10.9335 74.9418 10.6802 74.76 10.4983C74.5783 10.3163 74.3003 10.2236 73.9261 10.2236H72.807V12.2605Z" fill="#EAB57A"/>
<path d="M81.5564 12.9383H78.8799V14.7577H82.0233V15.8849H77.4864V9.08918H82.0126V10.2236H78.8799V11.8432H81.5564V12.9383Z" fill="#EAB57A"/>
<path d="M86.35 14.1013C86.35 13.8373 86.2573 13.634 86.0684 13.4913C85.8831 13.3486 85.5481 13.1987 85.0669 13.0453C84.5858 12.892 84.2009 12.735 83.9193 12.5816C83.1531 12.1642 82.7682 11.6041 82.7682 10.8978C82.7682 10.5304 82.8715 10.2022 83.0783 9.9168C83.285 9.63142 83.5808 9.40311 83.9657 9.24258C84.3506 9.08205 84.7818 9 85.263 9C85.7477 9 86.1789 9.08918 86.5531 9.26398C86.9309 9.43878 87.2231 9.68849 87.4334 10.006C87.6437 10.3235 87.747 10.6909 87.747 11.0976H86.3535C86.3535 10.7872 86.2573 10.5447 86.0613 10.3699C85.8653 10.1951 85.5908 10.113 85.238 10.113C84.8994 10.113 84.6321 10.1844 84.4432 10.3306C84.2544 10.4769 84.1617 10.6659 84.1617 10.9014C84.1617 11.1226 84.2722 11.3081 84.4931 11.4579C84.7177 11.6077 85.042 11.7468 85.4697 11.8788C86.2644 12.1178 86.8418 12.4139 87.2017 12.7707C87.5653 13.1238 87.7435 13.5662 87.7435 14.0941C87.7435 14.6828 87.5225 15.1429 87.0806 15.4783C86.6351 15.8136 86.0399 15.9813 85.2879 15.9813C84.7676 15.9813 84.2971 15.8849 83.8694 15.6923C83.4418 15.4997 83.1139 15.2393 82.8929 14.9039C82.6684 14.5722 82.5544 14.1869 82.5544 13.7481H83.955C83.955 14.4972 84.4005 14.8718 85.2915 14.8718C85.6265 14.8718 85.8831 14.804 86.0684 14.6685C86.2537 14.5329 86.35 14.3439 86.35 14.1013Z" fill="#EAB57A"/>
<path d="M93.6953 10.2236H91.6211V15.8849H90.2276V10.2236H88.1819V9.08918H93.6953V10.2236Z" fill="#EAB57A"/>
<path d="M97.637 14.483H95.1922L94.7253 15.8849H93.2427L95.7624 9.09275H97.0525L99.5865 15.8849H98.1039L97.637 14.483ZM95.5699 13.3521H97.2628L96.4146 10.8086L95.5699 13.3521Z" fill="#EAB57A"/>
<path d="M105.064 9.08918V13.5662C105.064 14.3082 104.833 14.8968 104.369 15.3284C103.906 15.7601 103.272 15.9777 102.473 15.9777C101.682 15.9777 101.058 15.7672 100.592 15.3463C100.128 14.9253 99.893 14.351 99.8823 13.6161V9.08918H101.276V13.5733C101.276 14.0192 101.383 14.3439 101.597 14.5472C101.81 14.7505 102.096 14.8504 102.47 14.8504C103.254 14.8504 103.649 14.4366 103.664 13.609V9.08918H105.064Z" fill="#EAB57A"/>
<path d="M108.71 13.3949H107.598V15.8849H106.205V9.08918H108.717C109.516 9.08918 110.132 9.26755 110.567 9.62428C111.002 9.98102 111.219 10.4876 111.219 11.1404C111.219 11.6041 111.119 11.9894 110.92 12.2998C110.72 12.6101 110.417 12.8563 110.011 13.0418L111.476 15.8172V15.8849H109.979L108.71 13.3949ZM107.602 12.2605H108.724C109.077 12.2605 109.348 12.1714 109.541 11.993C109.733 11.8146 109.829 11.5685 109.829 11.2546C109.829 10.9335 109.74 10.6802 109.558 10.4983C109.373 10.3163 109.099 10.2236 108.724 10.2236H107.605L107.602 12.2605Z" fill="#EAB57A"/>
<path d="M116.098 14.483H113.653L113.19 15.8849H111.707L114.227 9.09275H115.517L118.051 15.8849H116.569L116.098 14.483ZM114.031 13.3521H115.724L114.876 10.8086L114.031 13.3521Z" fill="#EAB57A"/>
<path d="M124.185 15.8849H122.791L120.079 11.4151V15.8849H118.686V9.08918H120.079L122.798 13.5662V9.08918H124.188L124.185 15.8849Z" fill="#EAB57A"/>
<path d="M130.497 10.2236H128.419V15.8849H127.029V10.2236H124.983V9.08918H130.497V10.2236Z" fill="#EAB57A"/>
<path d="M134.702 14.1013C134.702 13.8373 134.609 13.634 134.421 13.4913C134.235 13.3486 133.9 13.1987 133.419 13.0453C132.938 12.892 132.553 12.735 132.271 12.5816C131.505 12.1642 131.12 11.6041 131.12 10.8978C131.12 10.5304 131.224 10.2022 131.43 9.9168C131.637 9.63142 131.933 9.40311 132.318 9.24258C132.703 9.08205 133.134 9 133.615 9C134.1 9 134.531 9.08918 134.905 9.26398C135.283 9.43878 135.575 9.68849 135.786 10.006C135.996 10.3235 136.099 10.6909 136.099 11.0976H134.706C134.706 10.7872 134.609 10.5447 134.413 10.3699C134.217 10.1951 133.943 10.113 133.59 10.113C133.252 10.113 132.984 10.1844 132.795 10.3306C132.606 10.4769 132.514 10.6659 132.514 10.9014C132.514 11.1226 132.624 11.3081 132.845 11.4579C133.07 11.6077 133.394 11.7468 133.822 11.8788C134.617 12.1178 135.194 12.4139 135.554 12.7707C135.917 13.1238 136.096 13.5662 136.096 14.0941C136.096 14.6828 135.875 15.1429 135.433 15.4783C134.987 15.8136 134.392 15.9813 133.64 15.9813C133.12 15.9813 132.649 15.8849 132.222 15.6923C131.794 15.4997 131.466 15.2393 131.245 14.9039C131.021 14.5722 130.906 14.1869 130.906 13.7481H132.307C132.307 14.4972 132.753 14.8718 133.644 14.8718C133.979 14.8718 134.235 14.804 134.421 14.6685C134.609 14.5329 134.702 14.3439 134.702 14.1013Z" fill="#EAB57A"/>
</svg>
