<svg width="151" height="50" viewBox="0 0 151 50" fill="none" xmlns="http://www.w3.org/2000/svg">
<g clip-path="url(#clip0_85_1072)">
<mask id="mask0_85_1072" style="mask-type:luminance" maskUnits="userSpaceOnUse" x="23" y="0" width="104" height="50">
<path d="M127 0H23V50H127V0Z" fill="white"/>
</mask>
<g mask="url(#mask0_85_1072)">
<path d="M40.9518 41.9187C40.9518 41.9187 41.1179 41.6887 41.4783 41.2949C41.8387 40.8979 42.3903 40.3434 43.1644 39.7038C43.9323 39.058 44.9257 38.3428 46.1449 37.6276C47.3609 36.9093 48.8151 36.2224 50.4824 35.6364C52.1466 35.0567 54.0333 34.603 56.0704 34.3667C58.1075 34.1273 60.2951 34.1304 62.5296 34.3888C62.8117 34.4171 63.0906 34.4549 63.3696 34.5022C63.6516 34.5463 63.9306 34.5904 64.2126 34.6345C64.4978 34.6786 64.7736 34.7448 65.0557 34.7984L65.4788 34.8866L65.6919 34.9307L65.7985 34.9527L65.8517 34.9653L65.9552 34.9937C66.209 35.0567 66.466 35.1229 66.7261 35.189C66.9894 35.2552 67.2276 35.3088 67.5253 35.4001C68.0926 35.5703 68.6912 35.7435 69.224 35.9326C71.4115 36.6667 73.5395 37.5898 75.5516 38.5633C77.5668 39.5369 79.4911 40.5482 81.3402 41.4493C82.2647 41.9124 83.1736 42.3251 84.0699 42.7253C84.5181 42.9049 84.9631 43.1159 85.405 43.2766C85.6275 43.3617 85.8469 43.4468 86.0663 43.5318C86.2888 43.6106 86.5082 43.6862 86.7244 43.765C87.1632 43.9256 87.5988 44.0485 88.0313 44.1871C88.2476 44.2596 88.4638 44.31 88.6801 44.3667C88.8963 44.4234 89.1094 44.4833 89.3257 44.54C89.7551 44.6314 90.1813 44.729 90.6075 44.8141C91.0306 44.8771 91.4537 44.9685 91.8737 45.0189C93.5535 45.2363 95.1958 45.3056 96.7377 45.2237C97.1263 45.2142 97.5024 45.1733 97.8754 45.1512C98.0634 45.1355 98.2483 45.126 98.4301 45.1071C98.6119 45.0882 98.7936 45.0662 98.9723 45.0441C99.3295 45.0063 99.6806 44.9653 100.019 44.9275C100.358 44.8708 100.69 44.8173 101.013 44.7732C101.664 44.6944 102.26 44.5495 102.827 44.4549C103.394 44.3636 103.905 44.2344 104.378 44.1367C104.849 44.0328 105.278 43.9572 105.642 43.8658C106.008 43.7744 106.322 43.7051 106.579 43.6452C107.096 43.5381 107.371 43.4783 107.371 43.4783C107.371 43.4783 107.158 43.661 106.745 43.9918C106.328 44.3195 105.723 44.8141 104.896 45.3529C104.488 45.6364 104.031 45.942 103.51 46.2413C102.993 46.5501 102.432 46.8809 101.805 47.1865C101.492 47.3503 101.169 47.5079 100.831 47.6717C100.492 47.8229 100.135 47.971 99.7715 48.1285C99.5865 48.2042 99.4016 48.2829 99.2136 48.3617C99.0224 48.4342 98.825 48.4972 98.6275 48.5665C98.2326 48.702 97.8283 48.8532 97.4052 48.9792C95.716 49.4896 93.7948 49.8708 91.7107 49.9748C91.1904 50.0126 90.6608 49.9937 90.1249 50C89.589 49.9905 89.0468 49.9527 88.4983 49.9181C87.4077 49.811 86.2919 49.6534 85.1888 49.4045C82.9761 48.9225 80.7948 48.1664 78.7232 47.2842C76.6391 46.4052 74.6552 45.4253 72.7215 44.4959C70.791 43.557 68.9137 42.6812 67.0489 41.9345C66.5757 41.7328 66.1495 41.5879 65.7044 41.4115C65.5007 41.3264 65.2218 41.2382 64.9773 41.1531C64.7235 41.0681 64.4728 40.983 64.222 40.8979C64.0121 40.8318 63.7989 40.7656 63.589 40.6994C63.3602 40.6301 63.1377 40.5514 62.9089 40.4915C62.4513 40.3812 62 40.2268 61.5456 40.1355C59.7341 39.7007 57.9414 39.4203 56.2177 39.3037C54.494 39.1934 52.8329 39.1997 51.2941 39.3447C49.7553 39.4802 48.3293 39.7038 47.0694 39.9811C45.8064 40.2552 44.7032 40.564 43.7944 40.857C42.8918 41.15 42.1772 41.4115 41.6945 41.6068C41.2088 41.799 40.9518 41.9187 40.9518 41.9187Z" fill="#05AA50"/>
</g>
<mask id="mask1_85_1072" style="mask-type:luminance" maskUnits="userSpaceOnUse" x="31" y="12" width="31" height="24">
<path d="M55.6755 12.4354C55.2242 12.4354 54.8419 12.6433 54.5347 13.0561L46.6495 24.3352C46.5962 24.4014 46.5523 24.4329 46.5084 24.4329C46.4834 24.4329 46.4395 24.3667 46.3705 24.2376L42.9231 13.0561C42.7758 12.6433 42.4624 12.4354 41.986 12.4354H34.7527C34.4643 12.4354 34.2763 12.7442 34.411 13.0025L35.5424 15.1985C35.7336 15.564 35.79 15.9861 35.7085 16.3926L31.9383 35.126C31.8349 35.69 32.0542 35.9735 32.5964 35.9735H37.7018C38.3067 35.9735 38.6639 35.69 38.7674 35.126L39.9489 29.2313C40.0272 28.8437 40.5632 28.8091 40.6948 29.184L41.9578 32.867C42.1051 33.2829 42.4279 33.4877 42.9294 33.4877H46.7341C47.1854 33.4877 47.5677 33.2829 47.8749 32.867L50.7237 29.1273C50.9713 28.8028 51.4916 29.0359 51.4101 29.4392L50.5482 33.7744C52.8486 33.1727 55.2117 32.7977 57.6029 32.6623L61.508 13.2861C61.6083 12.719 61.3795 12.4354 60.8153 12.4354H55.6755V12.4354Z" fill="white"/>
</mask>
<g mask="url(#mask1_85_1072)">
<path d="M66.7951 34.7574L33.3768 42.6055L26.648 13.6547L60.0663 5.80655L66.7951 34.7574Z" fill="url(#paint0_linear_85_1072)"/>
</g>
<mask id="mask2_85_1072" style="mask-type:luminance" maskUnits="userSpaceOnUse" x="61" y="12" width="12" height="22">
<path d="M66.1714 12.4354C65.6324 12.4354 65.2908 12.7284 65.1466 13.3176L61.2604 32.6402C63.5075 32.7442 65.7295 33.0592 67.9014 33.5759L71.9788 13.3176C72.1198 12.7284 71.8973 12.4354 71.3112 12.4354H66.1714Z" fill="white"/>
</mask>
<g mask="url(#mask2_85_1072)">
<path d="M76.777 32.4827L61.8214 35.9956L56.6032 13.5287L71.5588 10.0189L76.777 32.4827Z" fill="url(#paint1_linear_85_1072)"/>
</g>
<mask id="mask3_85_1072" style="mask-type:luminance" maskUnits="userSpaceOnUse" x="72" y="12" width="24" height="24">
<path d="M81.149 12.4354C79.2216 12.4354 77.7674 12.8418 76.7958 13.661C75.818 14.477 75.1379 15.857 74.7461 17.7977L73.9846 21.4587C73.7025 22.9616 73.9658 24.2313 74.7806 25.2646C75.5955 26.3012 76.7519 26.821 78.2469 26.821H87.486C87.7869 26.821 87.9028 26.9628 87.8308 27.2432L87.3136 29.8582C87.2635 30.1418 87.0849 30.2836 86.784 30.2836H79.0084C78.7264 30.2836 78.6229 30.1418 78.695 29.8582L78.8329 29.0737C78.9301 28.7051 78.7828 28.5192 78.3942 28.5192H73.1258C72.778 28.5192 72.5554 28.7051 72.4583 29.0737L72.148 30.6112C71.8409 32.1172 72.101 33.3869 72.9284 34.4203C73.7558 35.4568 74.9122 35.9735 76.4103 35.9735H87.1099C89.0154 35.9735 90.4571 35.564 91.4349 34.748C92.4065 33.9319 93.1022 32.552 93.5128 30.6112L94.2743 26.9502C94.5595 25.4474 94.2932 24.1777 93.4783 23.1411C92.6635 22.1077 91.507 21.5879 90.0121 21.5879H80.776C80.472 21.5879 80.3561 21.4461 80.4313 21.1626L80.9484 18.5476C80.9986 18.264 81.1741 18.1222 81.4781 18.1222H88.9277C89.2097 18.1222 89.3132 18.264 89.2411 18.5476L89.1032 19.3321C89.006 19.7007 89.1502 19.8897 89.5419 19.8897H94.8103C95.155 19.8897 95.3807 19.7007 95.4778 19.3321L95.7881 17.7977C96.0702 16.2917 95.8069 15.0221 94.992 13.9855C94.1772 12.9521 93.0207 12.4354 91.5258 12.4354H81.149V12.4354Z" fill="white"/>
</mask>
<g mask="url(#mask3_85_1072)">
<path d="M101.257 34.7574L73.0945 41.3705L66.6541 13.6547L94.8165 7.04158L101.257 34.7574Z" fill="url(#paint2_linear_85_1072)"/>
</g>
<mask id="mask4_85_1072" style="mask-type:luminance" maskUnits="userSpaceOnUse" x="97" y="12" width="24" height="24">
<path d="M105.243 20.0189C104.657 20.0189 104.313 20.3025 104.209 20.8664L101.342 35.0914C101.201 35.6774 101.429 35.9735 102.037 35.9735H107.146C107.688 35.9735 108.027 35.6774 108.171 35.0914L111.041 20.8664C111.142 20.3025 110.913 20.0189 110.349 20.0189H105.243ZM99.1039 12.4354C98.5586 12.4354 98.217 12.7284 98.0759 13.3176L97.1796 17.7631C97.0762 18.3302 97.3081 18.6137 97.8722 18.6137H118.294C118.88 18.6137 119.224 18.3302 119.328 17.7631L120.224 13.3176C120.365 12.7284 120.133 12.4354 119.525 12.4354H99.1039Z" fill="white"/>
</mask>
<g mask="url(#mask4_85_1072)">
<path d="M125.552 34.7574L98.2828 41.1594L91.8893 13.6547L119.159 7.24953L125.552 34.7574Z" fill="url(#paint3_linear_85_1072)"/>
</g>
<mask id="mask5_85_1072" style="mask-type:luminance" maskUnits="userSpaceOnUse" x="23" y="0" width="104" height="50">
<path d="M127 0H23V50H127V0Z" fill="white"/>
</mask>
<g mask="url(#mask5_85_1072)">
<path d="M68.2555 9.7259H66.115C66.115 4.35413 70.4462 0 75.7898 0H77.9303C77.9303 5.37177 73.5991 9.7259 68.2555 9.7259Z" fill="#05AA50"/>
</g>
<mask id="mask6_85_1072" style="mask-type:luminance" maskUnits="userSpaceOnUse" x="51" y="4" width="14" height="3">
<path d="M52.1716 4.93698C51.9617 5.45368 51.7642 5.97668 51.5636 6.49653H63.4417C63.871 6.49653 64.2189 6.14681 64.2189 5.71833C64.2189 5.2867 63.871 4.93698 63.4417 4.93698H52.1716Z" fill="white"/>
</mask>
<g mask="url(#mask6_85_1072)">
<path d="M51.081 5.10711L62.8399 0.973526L64.7015 6.32639L52.9426 10.46L51.081 5.10711Z" fill="url(#paint4_linear_85_1072)"/>
</g>
<mask id="mask7_85_1072" style="mask-type:luminance" maskUnits="userSpaceOnUse" x="23" y="4" width="46" height="40">
<path d="M32.8284 4.93698C29.9983 4.93698 27.6948 7.23062 27.6572 10.0662L23.0125 38.4467L23 38.5728C23 41.4398 25.3192 43.7713 28.1712 43.7713H68.1991L64.0559 42.2117H28.1712C26.1967 42.2117 24.5858 40.6112 24.5514 38.6326L29.196 10.2615L29.2085 10.1323C29.2085 8.12854 30.8288 6.49653 32.8284 6.49653H35.2353C35.5926 5.95778 35.9749 5.43793 36.3855 4.93698H32.8284Z" fill="white"/>
</mask>
<g mask="url(#mask7_85_1072)">
<path d="M10.9653 9.16824L63.2756 -9.21866L80.2339 39.54L27.9236 57.9301L10.9653 9.16824Z" fill="url(#paint5_linear_85_1072)"/>
</g>
<mask id="mask8_85_1072" style="mask-type:luminance" maskUnits="userSpaceOnUse" x="77" y="4" width="50" height="40">
<path d="M78.5101 4.93698C78.0808 4.93698 77.7329 5.2867 77.7329 5.71833C77.7329 6.14681 78.0808 6.49653 78.5101 6.49653H121.829C123.803 6.49653 125.414 8.09703 125.449 10.0725L120.801 38.4467L120.791 38.5728C120.791 40.5766 119.168 42.2117 117.172 42.2117H86.6085C87.6835 42.7505 89.614 43.2798 90.7109 43.7713H117.172C120.002 43.7713 122.305 41.4745 122.34 38.6389L126.987 10.2615L127 10.1323C127 7.26842 124.678 4.93698 121.829 4.93698H78.5101V4.93698Z" fill="white"/>
</mask>
<g mask="url(#mask8_85_1072)">
<path d="M65.6982 9.16823L121.631 -10.4947L139.035 39.54L83.1015 59.2029L65.6982 9.16823Z" fill="url(#paint6_linear_85_1072)"/>
</g>
<mask id="mask9_85_1072" style="mask-type:luminance" maskUnits="userSpaceOnUse" x="23" y="0" width="104" height="50">
<path d="M127 0H23V50H127V0Z" fill="white"/>
</mask>
<g mask="url(#mask9_85_1072)">
<path d="M52.0494 37.5394L52.156 38.472L51.7924 38.5129L51.5354 36.2949L52.999 36.1248L53.0335 36.4461L51.9397 36.5721L52.0118 37.2243L53.0398 37.1046L53.0774 37.4197L52.0494 37.5394Z" fill="white"/>
</g>
<mask id="mask10_85_1072" style="mask-type:luminance" maskUnits="userSpaceOnUse" x="23" y="0" width="104" height="50">
<path d="M127 0H23V50H127V0Z" fill="white"/>
</mask>
<g mask="url(#mask10_85_1072)">
<path d="M54.1053 36.0523L55.5533 36.005L55.5627 36.3201L54.4814 36.3516L54.5002 36.966L55.5157 36.9313L55.5251 37.2306L54.5096 37.2653L54.5316 37.9584L55.6567 37.9238L55.6661 38.2357L54.1743 38.2829L54.1053 36.0523Z" fill="white"/>
</g>
<mask id="mask11_85_1072" style="mask-type:luminance" maskUnits="userSpaceOnUse" x="23" y="0" width="104" height="50">
<path d="M127 0H23V50H127V0Z" fill="white"/>
</mask>
<g mask="url(#mask11_85_1072)">
<path d="M56.7317 36.0145L58.1796 36.0744L58.1671 36.3863L57.0858 36.3422L57.0608 36.9534L58.0762 36.9943L58.0636 37.2936L57.0514 37.2527L57.0231 37.9458L58.1483 37.9931L58.1357 38.305L56.6408 38.2451L56.7317 36.0145Z" fill="white"/>
</g>
<mask id="mask12_85_1072" style="mask-type:luminance" maskUnits="userSpaceOnUse" x="23" y="0" width="104" height="50">
<path d="M127 0H23V50H127V0Z" fill="white"/>
</mask>
<g mask="url(#mask12_85_1072)">
<path d="M59.3455 36.1626L59.7121 36.2004L59.5116 38.097L60.5959 38.2136L60.5615 38.5381L59.1104 38.3837L59.3455 36.1626Z" fill="white"/>
</g>
<mask id="mask13_85_1072" style="mask-type:luminance" maskUnits="userSpaceOnUse" x="23" y="0" width="104" height="50">
<path d="M127 0H23V50H127V0Z" fill="white"/>
</mask>
<g mask="url(#mask13_85_1072)">
<path d="M63.7927 37.1582L63.4197 39.0265L63.0593 38.954L63.4323 37.0857L62.7678 36.9534L62.8305 36.632L64.5198 36.9723L64.4571 37.2905L63.7927 37.1582Z" fill="white"/>
</g>
<mask id="mask14_85_1072" style="mask-type:luminance" maskUnits="userSpaceOnUse" x="23" y="0" width="104" height="50">
<path d="M127 0H23V50H127V0Z" fill="white"/>
</mask>
<g mask="url(#mask14_85_1072)">
<path d="M66.5224 38.7429L65.5603 38.4846L65.3033 39.4549L64.946 39.3604L65.5195 37.2023L65.8737 37.2999L65.6418 38.1727L66.6039 38.431L66.8358 37.5551L67.1931 37.6528L66.6196 39.8078L66.2654 39.7133L66.5224 38.7429Z" fill="white"/>
</g>
<mask id="mask15_85_1072" style="mask-type:luminance" maskUnits="userSpaceOnUse" x="23" y="0" width="104" height="50">
<path d="M127 0H23V50H127V0Z" fill="white"/>
</mask>
<g mask="url(#mask15_85_1072)">
<path d="M68.3652 38.0151L69.7411 38.4783L69.6408 38.7744L68.616 38.4278L68.4217 39.0107L69.3838 39.3352L69.2898 39.6188L68.3276 39.2943L68.1082 39.9527L69.1738 40.3119L69.0767 40.6081L67.6601 40.1323L68.3652 38.0151Z" fill="white"/>
</g>
<mask id="mask16_85_1072" style="mask-type:luminance" maskUnits="userSpaceOnUse" x="23" y="0" width="104" height="50">
<path d="M127 0H23V50H127V0Z" fill="white"/>
</mask>
<g mask="url(#mask16_85_1072)">
<path d="M72.0665 39.3762L72.8657 39.7259C73.48 39.9968 73.5019 40.4631 73.3515 40.8128L73.0976 41.3926C72.9472 41.7423 72.5899 42.0416 71.9788 41.7738L71.1796 41.4209L72.0665 39.3762ZM72.1073 41.4745C72.4646 41.632 72.6714 41.4493 72.7686 41.2256L73.0068 40.6837C73.1008 40.46 73.0945 40.1827 72.7372 40.0252L72.2765 39.8236L71.6466 41.2728L72.1073 41.4745Z" fill="white"/>
</g>
<mask id="mask17_85_1072" style="mask-type:luminance" maskUnits="userSpaceOnUse" x="24" y="-19" width="116" height="92">
<path d="M139.919 27.8975L46.6574 -18.5876L24.6513 26.1314L117.913 72.6165L139.919 27.8975Z" fill="white"/>
</mask>
<g mask="url(#mask17_85_1072)">
<path d="M75.0181 40.7365L74.6888 40.5724L73.7034 42.5736L74.0328 42.7377L75.0181 40.7365Z" fill="white"/>
</g>
<mask id="mask18_85_1072" style="mask-type:luminance" maskUnits="userSpaceOnUse" x="23" y="0" width="104" height="50">
<path d="M127 0H23V50H127V0Z" fill="white"/>
</mask>
<g mask="url(#mask18_85_1072)">
<path d="M75.7835 42.5929L75.3385 43.4152L75.0157 43.2388L76.075 41.2791L77.3662 41.988L77.2158 42.2684L76.2473 41.7391L75.9339 42.3125L76.8428 42.8103L76.6924 43.0907L75.7835 42.5929Z" fill="white"/>
</g>
<mask id="mask19_85_1072" style="mask-type:luminance" maskUnits="userSpaceOnUse" x="23" y="0" width="104" height="50">
<path d="M127 0H23V50H127V0Z" fill="white"/>
</mask>
<g mask="url(#mask19_85_1072)">
<path d="M77.9397 43.7996L77.5104 44.6314L77.1844 44.4613L78.2061 42.4795L79.513 43.1632L79.3657 43.4468L78.3848 42.9364L78.087 43.5161L79.0022 43.995L78.858 44.2785L77.9397 43.7996Z" fill="white"/>
</g>
<mask id="mask20_85_1072" style="mask-type:luminance" maskUnits="userSpaceOnUse" x="23" y="0" width="104" height="50">
<path d="M127 0H23V50H127V0Z" fill="white"/>
</mask>
<g mask="url(#mask20_85_1072)">
<path d="M80.3341 43.5444L81.6692 44.1115L81.5501 44.3982L80.5535 43.9761L80.3153 44.54L81.2493 44.937L81.1333 45.2142L80.1994 44.8173L79.9299 45.4568L80.9672 45.8979L80.8481 46.1846L79.4691 45.6018L80.3341 43.5444Z" fill="white"/>
</g>
<mask id="mask21_85_1072" style="mask-type:luminance" maskUnits="userSpaceOnUse" x="23" y="0" width="104" height="50">
<path d="M127 0H23V50H127V0Z" fill="white"/>
</mask>
<g mask="url(#mask21_85_1072)">
<path d="M82.4966 45.9294L82.2428 46.6982L81.8949 46.5816L82.5938 44.4613L83.3867 44.7259C84.0386 44.9433 84.1138 45.3308 84.001 45.6774C83.9164 45.9357 83.7346 46.15 83.3804 46.1563L83.4901 47.1109L83.1172 46.988L83.02 46.1027C82.9918 46.0964 82.9699 46.087 82.9417 46.0775L82.4966 45.9294ZM82.8445 44.874L82.5907 45.6396L83.042 45.7908C83.4274 45.9168 83.5779 45.7593 83.6406 45.5671C83.7095 45.3655 83.6782 45.1512 83.2927 45.0252L82.8445 44.874Z" fill="white"/>
</g>
<mask id="mask22_85_1072" style="mask-type:luminance" maskUnits="userSpaceOnUse" x="23" y="0" width="104" height="50">
<path d="M127 0H23V50H127V0Z" fill="white"/>
</mask>
<g mask="url(#mask22_85_1072)">
<path d="M85.1324 45.2615L86.5395 45.6144L86.4643 45.9168L85.4144 45.6553L85.2671 46.2476L86.2512 46.4965L86.1791 46.7864L85.195 46.5406L85.0258 47.2149L86.1196 47.489L86.0444 47.7914L84.5933 47.426L85.1324 45.2615Z" fill="white"/>
</g>
<mask id="mask23_85_1072" style="mask-type:luminance" maskUnits="userSpaceOnUse" x="23" y="0" width="104" height="50">
<path d="M127 0H23V50H127V0Z" fill="white"/>
</mask>
<g mask="url(#mask23_85_1072)">
<path d="M87.7336 46.5533L87.4735 48.0813L87.1319 48.0214L87.5048 45.8223L87.8026 45.8727L88.6049 47.5898L88.865 46.0555L89.2097 46.1153L88.8399 48.3144L88.5359 48.2609L87.7336 46.5533Z" fill="white"/>
</g>
<mask id="mask24_85_1072" style="mask-type:luminance" maskUnits="userSpaceOnUse" x="23" y="0" width="104" height="50">
<path d="M127 0H23V50H127V0Z" fill="white"/>
</mask>
<g mask="url(#mask24_85_1072)">
<path d="M91.7515 47.8828L91.7421 47.971C91.7139 48.2955 91.4788 48.6358 90.8395 48.5759C90.1876 48.5161 90.0215 48.0813 90.0559 47.7032L90.1186 47.0006C90.1531 46.6226 90.3976 46.2256 91.0463 46.2854C91.6856 46.3453 91.858 46.7139 91.8298 47.029L91.8235 47.1046L91.46 47.0731L91.4631 47.0164C91.4788 46.8431 91.3816 46.6446 91.0181 46.61C90.6451 46.5753 90.5072 46.8053 90.4853 47.0353L90.4226 47.7347C90.4007 47.9679 90.4947 48.2199 90.8677 48.2546C91.2343 48.2861 91.366 48.1033 91.3816 47.9206L91.3879 47.8513L91.7515 47.8828Z" fill="white"/>
</g>
<mask id="mask25_85_1072" style="mask-type:luminance" maskUnits="userSpaceOnUse" x="23" y="0" width="104" height="50">
<path d="M127 0H23V50H127V0Z" fill="white"/>
</mask>
<g mask="url(#mask25_85_1072)">
<path d="M92.8233 46.443L94.2712 46.4682L94.2681 46.7801L93.1868 46.7612L93.1743 47.3724L94.1897 47.3913L94.1866 47.6906L93.1712 47.6749L93.1586 48.368L94.2837 48.3869L94.2806 48.6988L92.7857 48.6736L92.8233 46.443Z" fill="white"/>
</g>
<mask id="mask26_85_1072" style="mask-type:luminance" maskUnits="userSpaceOnUse" x="23" y="0" width="104" height="50">
<path d="M127 0H23V50H127V0Z" fill="white"/>
</mask>
<g mask="url(#mask26_85_1072)">
<path d="M39.7546 2.71896L38.7172 8.67044H37.285L38.3223 2.71896H39.7546Z" fill="#682C90"/>
</g>
<mask id="mask27_85_1072" style="mask-type:luminance" maskUnits="userSpaceOnUse" x="23" y="0" width="104" height="50">
<path d="M127 0H23V50H127V0Z" fill="white"/>
</mask>
<g mask="url(#mask27_85_1072)">
<path d="M45.1389 2.71896L44.9383 3.86263H43.3305L42.4937 8.67044H41.0521L41.8889 3.86263H40.2999L40.5005 2.71896H45.1389Z" fill="#682C90"/>
</g>
<mask id="mask28_85_1072" style="mask-type:luminance" maskUnits="userSpaceOnUse" x="23" y="0" width="104" height="50">
<path d="M127 0H23V50H127V0Z" fill="white"/>
</mask>
<g mask="url(#mask28_85_1072)">
<path d="M48.1601 5.63327L50.0186 8.6736H48.2854L46.7435 5.99559L46.2765 8.6736H44.8443L45.8816 2.71896H47.3139L46.8532 5.34656L49.3416 2.71896H51.0591L48.1601 5.63327Z" fill="#682C90"/>
</g>
</g>
<defs>
<linearGradient id="paint0_linear_85_1072" x1="126.286" y1="5.52029" x2="22.0462" y2="29.7435" gradientUnits="userSpaceOnUse">
<stop stop-color="#B21F6D"/>
<stop offset="0.0415" stop-color="#AF206E"/>
<stop offset="1" stop-color="#682C90"/>
</linearGradient>
<linearGradient id="paint1_linear_85_1072" x1="127.055" y1="8.82755" x2="22.8148" y2="33.0508" gradientUnits="userSpaceOnUse">
<stop stop-color="#B21F6D"/>
<stop offset="0.0415" stop-color="#AF206E"/>
<stop offset="1" stop-color="#682C90"/>
</linearGradient>
<linearGradient id="paint2_linear_85_1072" x1="128.214" y1="13.8167" x2="23.9742" y2="38.04" gradientUnits="userSpaceOnUse">
<stop stop-color="#B21F6D"/>
<stop offset="0.0415" stop-color="#AF206E"/>
<stop offset="1" stop-color="#682C90"/>
</linearGradient>
<linearGradient id="paint3_linear_85_1072" x1="129.495" y1="19.3264" x2="25.2546" y2="43.5496" gradientUnits="userSpaceOnUse">
<stop stop-color="#B21F6D"/>
<stop offset="0.0415" stop-color="#AF206E"/>
<stop offset="1" stop-color="#682C90"/>
</linearGradient>
<linearGradient id="paint4_linear_85_1072" x1="-16.6569" y1="31.9164" x2="156.519" y2="-28.3202" gradientUnits="userSpaceOnUse">
<stop stop-color="#B21F6D"/>
<stop offset="0.0415" stop-color="#AF206E"/>
<stop offset="1" stop-color="#682C90"/>
</linearGradient>
<linearGradient id="paint5_linear_85_1072" x1="7.40848" y1="37.7723" x2="138.214" y2="-7.7267" gradientUnits="userSpaceOnUse">
<stop stop-color="#B21F6D"/>
<stop offset="0.0415" stop-color="#AF206E"/>
<stop offset="1" stop-color="#682C90"/>
</linearGradient>
<linearGradient id="paint6_linear_85_1072" x1="13.5948" y1="55.5574" x2="144.401" y2="10.0584" gradientUnits="userSpaceOnUse">
<stop stop-color="#B21F6D"/>
<stop offset="0.0415" stop-color="#AF206E"/>
<stop offset="1" stop-color="#682C90"/>
</linearGradient>
<clipPath id="clip0_85_1072">
<rect width="104" height="50" fill="white" transform="translate(23)"/>
</clipPath>
</defs>
</svg>
