<svg width="151" height="50" viewBox="0 0 151 50" fill="none" xmlns="http://www.w3.org/2000/svg">
<g clip-path="url(#clip0_85_600)">
<mask id="mask0_85_600" style="mask-type:luminance" maskUnits="userSpaceOnUse" x="0" y="0" width="151" height="50">
<path d="M151 -7.62939e-06H0V50H151V-7.62939e-06Z" fill="white"/>
</mask>
<g mask="url(#mask0_85_600)">
<path d="M50.8865 47.8637C50.7403 48.1055 50.5137 48.3034 50.2139 48.4573C49.9142 48.6075 49.5413 48.6845 49.099 48.6845C48.6677 48.6845 48.2875 48.6112 47.9512 48.4683C47.6186 48.3254 47.3481 48.1275 47.1507 47.8747C46.9497 47.6255 46.8363 47.3397 46.8035 47.0172H47.699C47.7173 47.1858 47.7794 47.3507 47.8891 47.5119C47.9951 47.6731 48.1486 47.805 48.3497 47.9113C48.5471 48.0139 48.7883 48.0652 49.0698 48.0652C49.439 48.0652 49.7241 47.9773 49.9178 47.7977C50.1152 47.6145 50.2139 47.3836 50.2139 47.1015C50.2139 46.8596 50.1445 46.6618 50.0056 46.5115C49.8667 46.3576 49.6985 46.2404 49.4938 46.1524C49.2928 46.0645 49.015 45.9692 48.6677 45.8666C48.2546 45.742 47.9257 45.6284 47.6771 45.5148C47.4249 45.4086 47.2165 45.24 47.0411 45.0238C46.8656 44.8003 46.7779 44.5108 46.7779 44.1517C46.7779 43.8402 46.8583 43.5654 47.0228 43.3309C47.1836 43.0927 47.4176 42.9095 47.721 42.7812C48.0243 42.6493 48.3826 42.587 48.7956 42.587C49.4353 42.587 49.9398 42.7299 50.3163 43.0121C50.6891 43.2979 50.9084 43.6607 50.9706 44.1004H50.0677C50.0165 43.8622 49.8849 43.6533 49.6693 43.4738C49.4536 43.2942 49.1648 43.2026 48.7956 43.2026C48.4557 43.2026 48.1888 43.2832 47.9841 43.4445C47.7831 43.6057 47.6807 43.8329 47.6807 44.126C47.6807 44.3569 47.7465 44.5438 47.8781 44.6867C48.0097 44.8333 48.1742 44.9432 48.3716 45.0275C48.569 45.1081 48.8395 45.1997 49.1831 45.3023C49.5998 45.4232 49.9361 45.5441 50.192 45.6577C50.4442 45.7677 50.6635 45.9399 50.839 46.1671C51.0181 46.3979 51.1058 46.6984 51.1058 47.0758C51.1058 47.358 51.0327 47.6218 50.8865 47.8637Z" fill="#54A1A3"/>
</g>
<mask id="mask1_85_600" style="mask-type:luminance" maskUnits="userSpaceOnUse" x="0" y="0" width="151" height="50">
<path d="M151 -7.62939e-06H0V50H151V-7.62939e-06Z" fill="white"/>
</mask>
<g mask="url(#mask1_85_600)">
<path d="M54.3701 43.2906V45.328H56.8411V45.9216H54.3701V48.0029H57.1153V48.6259H53.533V42.664H57.1153V43.2906H54.3701Z" fill="#54A1A3"/>
</g>
<mask id="mask2_85_600" style="mask-type:luminance" maskUnits="userSpaceOnUse" x="0" y="0" width="151" height="50">
<path d="M151 -7.62939e-06H0V50H151V-7.62939e-06Z" fill="white"/>
</mask>
<g mask="url(#mask2_85_600)">
<path d="M63.1211 48.6259L61.4286 46.1891H60.5148V48.6259H59.6777V42.664H61.8161C62.5508 42.664 63.1028 42.8252 63.472 43.1477C63.8412 43.4738 64.0239 43.9025 64.0239 44.4412C64.0239 44.9249 63.8777 45.3133 63.5816 45.6101C63.2892 45.9069 62.8615 46.0901 62.3023 46.1634L64.0715 48.6259H63.1211ZM60.5148 45.6321H61.7393C62.6934 45.6321 63.1686 45.2473 63.1686 44.4815C63.1686 43.7156 62.6934 43.3309 61.7393 43.3309H60.5148V45.6321Z" fill="#54A1A3"/>
</g>
<mask id="mask3_85_600" style="mask-type:luminance" maskUnits="userSpaceOnUse" x="0" y="0" width="151" height="50">
<path d="M151 -7.62939e-06H0V50H151V-7.62939e-06Z" fill="white"/>
</mask>
<g mask="url(#mask3_85_600)">
<path d="M66.3341 42.664L68.3154 47.7721L70.3222 42.664H71.236L68.849 48.6259H67.789L65.413 42.664H66.3341Z" fill="#54A1A3"/>
</g>
<mask id="mask4_85_600" style="mask-type:luminance" maskUnits="userSpaceOnUse" x="0" y="0" width="151" height="50">
<path d="M151 -7.62939e-06H0V50H151V-7.62939e-06Z" fill="white"/>
</mask>
<g mask="url(#mask4_85_600)">
<path d="M73.7838 42.664H72.9467V48.6259H73.7838V42.664Z" fill="#54A1A3"/>
</g>
<mask id="mask5_85_600" style="mask-type:luminance" maskUnits="userSpaceOnUse" x="0" y="0" width="151" height="50">
<path d="M151 -7.62939e-06H0V50H151V-7.62939e-06Z" fill="white"/>
</mask>
<g mask="url(#mask5_85_600)">
<path d="M81.0397 48.6259H80.2026L76.8287 43.9135V48.6259H75.9916V42.664H76.8287L80.2026 47.3836V42.664H81.0397V48.6259Z" fill="#54A1A3"/>
</g>
<mask id="mask6_85_600" style="mask-type:luminance" maskUnits="userSpaceOnUse" x="0" y="0" width="151" height="50">
<path d="M151 -7.62939e-06H0V50H151V-7.62939e-06Z" fill="white"/>
</mask>
<g mask="url(#mask6_85_600)">
<path d="M88.1019 43.1184C88.6137 43.4628 88.9609 43.9318 89.1364 44.5218H88.2554C88.0983 44.1627 87.8424 43.8695 87.4842 43.6533C87.1259 43.4298 86.6983 43.3199 86.2084 43.3199C85.7661 43.3199 85.3714 43.4152 85.0204 43.6057C84.6695 43.7926 84.3954 44.0638 84.1943 44.4119C83.9969 44.7636 83.8946 45.174 83.8946 45.6468C83.8946 46.1341 83.9969 46.5518 84.198 46.9036C84.4027 47.2554 84.6841 47.5266 85.0424 47.7171C85.4006 47.904 85.8137 47.9993 86.2815 47.9993C86.68 47.9993 87.0455 47.9186 87.3782 47.7611C87.7108 47.6035 87.9813 47.3727 88.1933 47.0722C88.4053 46.7717 88.5333 46.4163 88.5771 46.0095H86.0257V45.4342H89.2863V46.1451C89.2314 46.6215 89.0706 47.0502 88.8074 47.4313C88.5406 47.816 88.186 48.1202 87.7364 48.3437C87.2904 48.5709 86.7787 48.6845 86.2084 48.6845C85.5834 48.6845 85.0277 48.5562 84.5489 48.2997C84.07 48.0432 83.6972 47.6841 83.4303 47.2261C83.1635 46.7644 83.0283 46.2404 83.0283 45.6468C83.0283 45.0568 83.1635 44.5291 83.4303 44.0711C83.6972 43.6094 84.07 43.2503 84.5489 42.9901C85.0277 42.7336 85.5797 42.6017 86.1975 42.6017C86.9541 42.6017 87.5902 42.7739 88.1019 43.1184Z" fill="#54A1A3"/>
</g>
<mask id="mask7_85_600" style="mask-type:luminance" maskUnits="userSpaceOnUse" x="0" y="0" width="151" height="50">
<path d="M151 -7.62939e-06H0V50H151V-7.62939e-06Z" fill="white"/>
</mask>
<g mask="url(#mask7_85_600)">
<path d="M103.433 42.664V48.6259H102.585V45.8703H99.2874V48.6259H98.4466V42.664H99.2874V45.2437H102.585V42.664H103.433Z" fill="#54A1A3"/>
</g>
<mask id="mask8_85_600" style="mask-type:luminance" maskUnits="userSpaceOnUse" x="0" y="0" width="151" height="50">
<path d="M151 -7.62939e-06H0V50H151V-7.62939e-06Z" fill="white"/>
</mask>
<g mask="url(#mask8_85_600)">
<path d="M109.559 47.2554H106.704L106.159 48.6332H105.257L107.662 42.7812H108.612L111.007 48.6332H110.104L109.559 47.2554ZM109.321 46.6544L108.133 43.6424L106.945 46.6544H109.321Z" fill="#54A1A3"/>
</g>
<mask id="mask9_85_600" style="mask-type:luminance" maskUnits="userSpaceOnUse" x="0" y="0" width="151" height="50">
<path d="M151 -7.62939e-06H0V50H151V-7.62939e-06Z" fill="white"/>
</mask>
<g mask="url(#mask9_85_600)">
<path d="M113.558 46.233V48.6369H112.717V42.6713H114.783C115.525 42.6713 116.08 42.8325 116.449 43.1513C116.819 43.4701 117.001 43.9062 117.001 44.4558C117.001 45.0165 116.811 45.4525 116.431 45.764C116.051 46.0791 115.503 46.233 114.783 46.233H113.558ZM115.81 45.295C116.033 45.0971 116.146 44.8186 116.146 44.4558C116.146 44.0857 116.033 43.8036 115.81 43.6094C115.587 43.4115 115.218 43.3162 114.709 43.3162H113.558V45.5918H114.709C115.218 45.5918 115.587 45.4928 115.81 45.295Z" fill="#54A1A3"/>
</g>
<mask id="mask10_85_600" style="mask-type:luminance" maskUnits="userSpaceOnUse" x="0" y="0" width="151" height="50">
<path d="M151 -7.62939e-06H0V50H151V-7.62939e-06Z" fill="white"/>
</mask>
<g mask="url(#mask10_85_600)">
<path d="M119.684 46.233V48.6369H118.844V42.6713H120.909C121.651 42.6713 122.207 42.8325 122.576 43.1513C122.945 43.4701 123.128 43.9062 123.128 44.4558C123.128 45.0165 122.938 45.4525 122.558 45.764C122.177 46.0791 121.629 46.233 120.909 46.233H119.684ZM121.936 45.295C122.159 45.0971 122.272 44.8186 122.272 44.4558C122.272 44.0857 122.159 43.8036 121.936 43.6094C121.713 43.4115 121.344 43.3162 120.836 43.3162H119.684V45.5918H120.836C121.344 45.5918 121.713 45.4928 121.936 45.295Z" fill="#54A1A3"/>
</g>
<mask id="mask11_85_600" style="mask-type:luminance" maskUnits="userSpaceOnUse" x="0" y="0" width="151" height="50">
<path d="M151 -7.62939e-06H0V50H151V-7.62939e-06Z" fill="white"/>
</mask>
<g mask="url(#mask11_85_600)">
<path d="M125.807 42.6713H124.97V48.6332H125.807V42.6713Z" fill="#54A1A3"/>
</g>
<mask id="mask12_85_600" style="mask-type:luminance" maskUnits="userSpaceOnUse" x="0" y="0" width="151" height="50">
<path d="M151 -7.62939e-06H0V50H151V-7.62939e-06Z" fill="white"/>
</mask>
<g mask="url(#mask12_85_600)">
<path d="M133.063 48.6332H132.226L128.852 43.9208V48.6332H128.015V42.6713H128.852L132.226 47.391V42.6713H133.063V48.6332Z" fill="#54A1A3"/>
</g>
<mask id="mask13_85_600" style="mask-type:luminance" maskUnits="userSpaceOnUse" x="0" y="0" width="151" height="50">
<path d="M151 -7.62939e-06H0V50H151V-7.62939e-06Z" fill="white"/>
</mask>
<g mask="url(#mask13_85_600)">
<path d="M136.108 43.2979V45.3353H138.579V45.9289H136.108V48.0103H138.853V48.6332H135.271V42.6713H138.853V43.2979H136.108Z" fill="#54A1A3"/>
</g>
<mask id="mask14_85_600" style="mask-type:luminance" maskUnits="userSpaceOnUse" x="0" y="0" width="151" height="50">
<path d="M151 -7.62939e-06H0V50H151V-7.62939e-06Z" fill="white"/>
</mask>
<g mask="url(#mask14_85_600)">
<path d="M144.684 47.8747C144.537 48.1165 144.311 48.3144 144.011 48.4683C143.711 48.6185 143.338 48.6955 142.896 48.6955C142.465 48.6955 142.085 48.6222 141.748 48.4793C141.416 48.3364 141.145 48.1385 140.948 47.8857C140.747 47.6365 140.633 47.3507 140.6 47.0282H141.496C141.514 47.1968 141.576 47.3617 141.686 47.5229C141.792 47.6841 141.946 47.816 142.147 47.9223C142.344 48.0249 142.585 48.0762 142.867 48.0762C143.236 48.0762 143.521 47.9883 143.715 47.8087C143.912 47.6255 144.011 47.3946 144.011 47.1125C144.011 46.8706 143.941 46.6728 143.803 46.5225C143.664 46.3686 143.496 46.2514 143.291 46.1634C143.09 46.0755 142.812 45.9802 142.465 45.8776C142.052 45.753 141.723 45.6394 141.474 45.5258C141.226 45.4196 141.014 45.251 140.838 45.0348C140.663 44.8113 140.575 44.5218 140.575 44.1627C140.575 43.8512 140.655 43.5764 140.82 43.3419C140.981 43.1037 141.215 42.9205 141.518 42.7922C141.821 42.6603 142.18 42.598 142.593 42.598C143.232 42.598 143.737 42.7409 144.113 43.0231C144.486 43.3089 144.705 43.6717 144.768 44.1114H143.865C143.814 43.8732 143.682 43.6643 143.466 43.4848C143.251 43.3052 142.962 43.2136 142.593 43.2136C142.253 43.2136 141.986 43.2942 141.781 43.4555C141.58 43.6167 141.478 43.8439 141.478 44.137C141.478 44.3679 141.544 44.5548 141.675 44.6977C141.807 44.8443 141.971 44.9542 142.169 45.0385C142.366 45.1191 142.637 45.2107 142.98 45.3133C143.397 45.4342 143.733 45.5551 143.989 45.6687C144.241 45.7787 144.461 45.9509 144.636 46.1781C144.815 46.4089 144.903 46.7094 144.903 47.0868C144.903 47.369 144.83 47.6328 144.684 47.8747Z" fill="#54A1A3"/>
</g>
<mask id="mask15_85_600" style="mask-type:luminance" maskUnits="userSpaceOnUse" x="0" y="0" width="151" height="50">
<path d="M151 -7.62939e-06H0V50H151V-7.62939e-06Z" fill="white"/>
</mask>
<g mask="url(#mask15_85_600)">
<path d="M150.781 47.8747C150.634 48.1165 150.408 48.3144 150.108 48.4683C149.808 48.6185 149.436 48.6955 148.993 48.6955C148.562 48.6955 148.182 48.6222 147.845 48.4793C147.513 48.3364 147.246 48.1385 147.045 47.8857C146.844 47.6365 146.731 47.3507 146.698 47.0282H147.593C147.611 47.1968 147.674 47.3617 147.783 47.5229C147.889 47.6841 148.043 47.816 148.244 47.9223C148.441 48.0249 148.683 48.0762 148.964 48.0762C149.333 48.0762 149.618 47.9883 149.812 47.8087C150.009 47.6255 150.108 47.3946 150.108 47.1125C150.108 46.8706 150.039 46.6728 149.9 46.5225C149.765 46.3686 149.593 46.2514 149.388 46.1634C149.187 46.0755 148.909 45.9802 148.562 45.8776C148.149 45.753 147.82 45.6394 147.571 45.5258C147.323 45.4196 147.111 45.251 146.935 45.0348C146.76 44.8113 146.672 44.5218 146.672 44.1627C146.672 43.8512 146.752 43.5764 146.917 43.3419C147.078 43.1037 147.312 42.9205 147.615 42.7922C147.919 42.6603 148.277 42.598 148.69 42.598C149.33 42.598 149.834 42.7409 150.21 43.0231C150.583 43.3089 150.803 43.6717 150.865 44.1114H149.962C149.911 43.8732 149.779 43.6643 149.563 43.4848C149.348 43.3052 149.059 43.2136 148.69 43.2136C148.35 43.2136 148.083 43.2942 147.878 43.4555C147.677 43.6167 147.575 43.8439 147.575 44.137C147.575 44.3679 147.641 44.5548 147.772 44.6977C147.904 44.8443 148.068 44.9542 148.266 45.0385C148.463 45.1191 148.734 45.2107 149.077 45.3133C149.494 45.4342 149.83 45.5551 150.086 45.6687C150.338 45.7787 150.558 45.9509 150.733 46.1781C150.912 46.4089 151.004 46.7094 151.004 47.0868C151.004 47.369 150.927 47.6328 150.781 47.8747Z" fill="#54A1A3"/>
</g>
<mask id="mask16_85_600" style="mask-type:luminance" maskUnits="userSpaceOnUse" x="0" y="0" width="151" height="50">
<path d="M151 -7.62939e-06H0V50H151V-7.62939e-06Z" fill="white"/>
</mask>
<g mask="url(#mask16_85_600)">
<path d="M72.3363 36.8816C72.3363 37.0245 72.3911 37.1821 72.4971 37.3507C72.6031 37.5192 72.753 37.6511 72.9467 37.7391C73.1405 37.7391 73.2391 37.805 73.2391 37.9406C73.2391 38.0725 73.1295 38.1422 72.9175 38.1422H68.6005V37.7647C68.2167 37.926 67.7999 38.0322 67.3613 38.0872C66.9227 38.1422 66.4804 38.1495 66.0417 38.1129C65.5994 38.0799 65.1827 38.0029 64.7843 37.8857C64.3895 37.7721 64.0495 37.6328 63.7717 37.4716C63.2124 37.1674 62.7665 36.7387 62.4339 36.1854C62.1012 35.6321 61.9367 34.8809 61.9367 33.9355V26.7754C61.9367 26.6325 61.8819 26.4786 61.7759 26.3173C61.6662 26.1598 61.5163 26.0352 61.3226 25.9436C61.1508 25.9436 61.0594 25.8813 61.0485 25.7567C61.0375 25.6321 61.1398 25.5515 61.3555 25.5148L65.6689 25.5735V35.3279C65.6689 35.6321 65.8114 35.8959 66.0892 36.1194C66.367 36.343 66.7216 36.4529 67.1529 36.4529C67.5587 36.4529 67.9023 36.343 68.1838 36.1194C68.4616 35.8959 68.6005 35.6321 68.6005 35.3279V26.834C68.6005 26.4932 68.3958 26.2074 67.99 25.9765C67.7963 25.9765 67.6976 25.9106 67.6976 25.775C67.6976 25.6431 67.8073 25.5735 68.0229 25.5735H72.9175C73.1295 25.5735 73.2391 25.6431 73.2391 25.775C73.2391 25.9106 73.1405 25.9765 72.9467 25.9765C72.541 26.2074 72.3363 26.4932 72.3363 26.834V36.8816Z" fill="#20536B"/>
</g>
<mask id="mask17_85_600" style="mask-type:luminance" maskUnits="userSpaceOnUse" x="0" y="0" width="151" height="50">
<path d="M151 -7.62939e-06H0V50H151V-7.62939e-06Z" fill="white"/>
</mask>
<g mask="url(#mask17_85_600)">
<path d="M79.4825 20.3225V36.8816C79.4825 37.0245 79.5374 37.1821 79.6434 37.3507C79.7494 37.5192 79.8883 37.6511 80.0637 37.7391C80.2575 37.7391 80.3562 37.805 80.3671 37.9406C80.3781 38.0725 80.2757 38.1422 80.0637 38.1422H75.1692C74.9535 38.1422 74.8475 38.0725 74.8475 37.9406C74.8475 37.805 74.9425 37.7391 75.1363 37.7391C75.33 37.6511 75.4799 37.5192 75.5859 37.3507C75.6956 37.1821 75.7467 37.0245 75.7467 36.8816V22.1986C75.7467 22.0557 75.6956 21.8981 75.5859 21.7296C75.4799 21.561 75.33 21.4291 75.1363 21.3411C74.9645 21.3411 74.8731 21.2825 74.8621 21.1653C74.8512 21.0517 74.9535 20.9747 75.1692 20.9381L79.4825 20.3225Z" fill="#20536B"/>
</g>
<mask id="mask18_85_600" style="mask-type:luminance" maskUnits="userSpaceOnUse" x="0" y="0" width="151" height="50">
<path d="M151 -7.62939e-06H0V50H151V-7.62939e-06Z" fill="white"/>
</mask>
<g mask="url(#mask18_85_600)">
<path d="M86.5666 25.5698C87.1259 25.5698 87.6596 25.6321 88.175 25.7603C88.6904 25.8849 89.1327 26.0462 89.4983 26.2404C90.0539 26.5445 90.4962 26.9732 90.8178 27.5266C91.1395 28.0799 91.3004 28.8311 91.3004 29.7765V36.878C91.3004 37.2188 91.5051 37.5046 91.9108 37.7354C92.1045 37.7354 92.2069 37.8014 92.2179 37.937C92.2288 38.0725 92.1155 38.1385 91.8779 38.1385H87.5646V37.838C87.1588 38.0396 86.7531 38.1385 86.3473 38.1385C85.6857 38.1385 85.035 38.0542 84.3917 37.882C83.752 37.7134 83.1854 37.4606 82.6956 37.1198C82.2021 36.779 81.8037 36.3613 81.493 35.8593C81.1823 35.3609 81.0287 34.7783 81.0287 34.1187C81.0287 33.5288 81.1932 33.0011 81.5259 32.5394C81.8549 32.074 82.2789 31.6819 82.7906 31.3595C83.1525 31.1249 83.5181 30.9307 83.8799 30.7695C84.2418 30.6083 84.622 30.4617 85.0168 30.3261C85.4115 30.1942 85.8173 30.0476 86.234 29.8864C86.6507 29.7252 87.0967 29.509 87.5646 29.2415V28.384C87.5646 27.9919 87.411 27.7061 87.1003 27.5266C86.7933 27.3507 86.4899 27.2591 86.1901 27.2591C85.5066 27.2774 84.9546 27.4459 84.5269 27.7684C84.1029 28.0909 83.8909 28.5562 83.8909 29.1609C83.8909 29.3954 83.7886 29.509 83.5839 29.509C83.3828 29.509 83.2805 29.4027 83.2805 29.1902V25.841C83.2805 25.6797 83.3499 25.5881 83.4925 25.5698C83.6314 25.5551 83.7228 25.6064 83.7666 25.731C83.8068 25.8739 83.8726 25.9729 83.9567 26.0278C84.3661 25.8666 84.7901 25.7494 85.2288 25.6797C85.6711 25.6064 86.117 25.5698 86.5666 25.5698ZM87.5646 31.1176C87.3306 31.2422 87.0967 31.3485 86.8664 31.4364C86.6324 31.528 86.4095 31.6233 86.1975 31.7296C85.9818 31.8395 85.7807 31.9714 85.5907 32.1326C85.4006 32.2902 85.2397 32.4844 85.1118 32.7189C84.9839 32.9315 84.8961 33.1513 84.8413 33.3858C84.7901 33.6167 84.7645 33.8549 84.7645 34.1041C84.7645 34.5658 84.823 34.9432 84.94 35.2363C85.0533 35.5295 85.1959 35.7713 85.3677 35.9582C85.5358 36.1414 85.7113 36.2734 85.8941 36.343C86.0732 36.4163 86.2377 36.4492 86.3875 36.4492C86.7055 36.4492 86.9797 36.343 87.2136 36.1304C87.4476 35.9179 87.5646 35.6577 87.5646 35.3573V31.1176Z" fill="#20536B"/>
</g>
<mask id="mask19_85_600" style="mask-type:luminance" maskUnits="userSpaceOnUse" x="0" y="0" width="151" height="50">
<path d="M151 -7.62939e-06H0V50H151V-7.62939e-06Z" fill="white"/>
</mask>
<g mask="url(#mask19_85_600)">
<path d="M97.8362 25.5735V36.8816C97.8362 37.0245 97.891 37.1784 97.997 37.3507C98.103 37.5192 98.2419 37.6475 98.4174 37.7391C98.6111 37.7391 98.7098 37.805 98.7208 37.937C98.7318 38.0725 98.6294 38.1385 98.4174 38.1385H93.5228C93.3072 38.1385 93.2012 38.0725 93.2012 37.937C93.2012 37.805 93.2962 37.7391 93.4899 37.7391C93.6837 37.6475 93.8336 37.5192 93.9396 37.3507C94.0492 37.1784 94.1004 37.0245 94.1004 36.8816V26.7754C94.1004 26.6325 94.0492 26.4786 93.9396 26.3173C93.8336 26.1561 93.6837 26.0315 93.4899 25.9436C93.3181 25.9436 93.2268 25.8813 93.2158 25.7567C93.2048 25.6321 93.3072 25.5515 93.5228 25.5148L97.8362 25.5735Z" fill="#20536B"/>
</g>
<mask id="mask20_85_600" style="mask-type:luminance" maskUnits="userSpaceOnUse" x="0" y="0" width="151" height="50">
<path d="M151 -7.62939e-06H0V50H151V-7.62939e-06Z" fill="white"/>
</mask>
<g mask="url(#mask20_85_600)">
<path d="M104.986 25.5735V25.9216C105.096 25.8849 105.191 25.8556 105.275 25.8263C105.363 25.8007 105.461 25.7713 105.567 25.7347C106.32 25.5368 107.088 25.5038 107.874 25.6284C108.66 25.753 109.31 25.9582 109.829 26.244C109.957 26.3137 110.082 26.3906 110.199 26.4712C110.319 26.5518 110.429 26.6435 110.539 26.7534C110.904 26.343 111.35 26.0462 111.876 25.8666C112.407 25.6907 112.948 25.5954 113.507 25.5881C114.066 25.5771 114.614 25.6358 115.155 25.7603C115.693 25.8849 116.142 26.0462 116.508 26.244C117.067 26.5482 117.509 26.9769 117.831 27.5302C118.156 28.0835 118.317 28.8347 118.317 29.7801V36.8816C118.317 37.0245 118.376 37.1784 118.493 37.3507C118.613 37.5192 118.756 37.6475 118.928 37.7391C119.121 37.7391 119.224 37.805 119.235 37.937C119.246 38.0725 119.132 38.1385 118.898 38.1385H114.004C113.766 38.1385 113.653 38.0725 113.664 37.937C113.675 37.805 113.777 37.7391 113.971 37.7391C114.165 37.6475 114.315 37.5192 114.421 37.3507C114.527 37.1784 114.581 37.0245 114.581 36.8816V28.3877C114.581 28.0835 114.439 27.8197 114.15 27.5962C113.865 27.3727 113.521 27.2627 113.116 27.2627C112.714 27.2627 112.366 27.3727 112.081 27.5962C111.796 27.8197 111.654 28.0835 111.654 28.3877L111.683 36.8816C111.683 37.0245 111.738 37.1784 111.844 37.3507C111.953 37.5192 112.092 37.6475 112.264 37.7391C112.458 37.7391 112.56 37.805 112.571 37.937C112.578 38.0725 112.476 38.1385 112.264 38.1385H107.337C107.121 38.1385 107.015 38.0725 107.015 37.937C107.015 37.805 107.11 37.7391 107.304 37.7391C107.497 37.6475 107.647 37.5192 107.757 37.3507C107.863 37.1784 107.918 37.0245 107.918 36.8816V28.3877C107.918 28.0835 107.771 27.8197 107.483 27.5962C107.19 27.3727 106.843 27.2627 106.434 27.2627C106.028 27.2627 105.684 27.3727 105.406 27.5962C105.125 27.8197 104.986 28.0835 104.986 28.3877V36.8816C104.986 37.0245 105.041 37.1784 105.147 37.3507C105.253 37.5192 105.392 37.6475 105.567 37.7391C105.761 37.7391 105.86 37.805 105.871 37.937C105.882 38.0725 105.779 38.1385 105.567 38.1385H100.673C100.457 38.1385 100.351 38.0725 100.351 37.937C100.351 37.805 100.446 37.7391 100.64 37.7391C100.834 37.6475 100.983 37.5192 101.089 37.3507C101.199 37.1784 101.25 37.0245 101.25 36.8816L101.283 25.5551L104.986 25.5735Z" fill="#20536B"/>
</g>
<mask id="mask21_85_600" style="mask-type:luminance" maskUnits="userSpaceOnUse" x="0" y="0" width="151" height="50">
<path d="M151 -7.62939e-06H0V50H151V-7.62939e-06Z" fill="white"/>
</mask>
<g mask="url(#mask21_85_600)">
<path d="M125.398 25.5698C125.957 25.5698 126.494 25.6321 127.006 25.7603C127.522 25.8849 127.964 26.0462 128.329 26.2404C128.885 26.5445 129.327 26.9732 129.649 27.5266C129.971 28.0799 130.131 28.8311 130.131 29.7765V36.878C130.131 37.2188 130.336 37.5046 130.742 37.7354C130.936 37.7354 131.038 37.8014 131.049 37.937C131.06 38.0725 130.947 38.1385 130.713 38.1385H126.396V37.838C125.99 38.0396 125.584 38.1385 125.178 38.1385C124.517 38.1385 123.866 38.0542 123.223 37.882C122.583 37.7134 122.017 37.4606 121.527 37.1198C121.033 36.779 120.635 36.3613 120.324 35.8593C120.013 35.3609 119.86 34.7783 119.86 34.1187C119.86 33.5288 120.024 33.0011 120.357 32.5394C120.686 32.074 121.11 31.6819 121.622 31.3595C121.984 31.1249 122.349 30.9307 122.711 30.7695C123.073 30.6083 123.453 30.4617 123.848 30.3261C124.243 30.1942 124.648 30.0476 125.065 29.8864C125.482 29.7252 125.928 29.509 126.396 29.2415V28.384C126.396 27.9919 126.242 27.7061 125.931 27.5266C125.624 27.3507 125.321 27.2591 125.021 27.2591C124.338 27.2774 123.786 27.4459 123.358 27.7684C122.934 28.0909 122.722 28.5562 122.722 29.1609C122.722 29.3954 122.62 29.509 122.415 29.509C122.214 29.509 122.112 29.4027 122.112 29.1902V25.841C122.112 25.6797 122.181 25.5881 122.324 25.5698C122.462 25.5551 122.554 25.6064 122.598 25.731C122.638 25.8739 122.704 25.9729 122.788 26.0278C123.197 25.8666 123.621 25.7494 124.06 25.6797C124.502 25.6064 124.948 25.5698 125.398 25.5698ZM126.396 31.1176C126.162 31.2422 125.928 31.3485 125.698 31.4364C125.464 31.528 125.241 31.6233 125.029 31.7296C124.813 31.8395 124.612 31.9714 124.422 32.1326C124.232 32.2902 124.071 32.4844 123.943 32.7189C123.815 32.9315 123.727 33.1513 123.672 33.3858C123.621 33.6167 123.596 33.8549 123.596 34.1041C123.596 34.5658 123.654 34.9432 123.771 35.2363C123.888 35.5295 124.031 35.7713 124.199 35.9582C124.367 36.1414 124.542 36.2734 124.725 36.343C124.904 36.4163 125.069 36.4492 125.219 36.4492C125.537 36.4492 125.811 36.343 126.045 36.1304C126.279 35.9179 126.396 35.6577 126.396 35.3573V31.1176Z" fill="#20536B"/>
</g>
<mask id="mask22_85_600" style="mask-type:luminance" maskUnits="userSpaceOnUse" x="0" y="0" width="151" height="50">
<path d="M151 -7.62939e-06H0V50H151V-7.62939e-06Z" fill="white"/>
</mask>
<g mask="url(#mask22_85_600)">
<path d="M136.671 25.5735V25.9216C136.781 25.8849 136.876 25.8556 136.963 25.8263C137.047 25.8006 137.146 25.7713 137.252 25.7347C138.009 25.5368 138.78 25.5038 139.566 25.6284C140.356 25.753 141.006 25.9582 141.525 26.244C142.085 26.5482 142.527 26.9769 142.852 27.5302C143.174 28.0835 143.338 28.8347 143.338 29.7801L143.368 36.8816C143.368 37.0245 143.422 37.1784 143.528 37.3507C143.638 37.5192 143.777 37.6475 143.949 37.7391C144.143 37.7391 144.245 37.805 144.256 37.937C144.263 38.0725 144.161 38.1385 143.949 38.1385H139.021C138.806 38.1385 138.7 38.0725 138.7 37.937C138.7 37.805 138.795 37.7391 138.988 37.7391C139.182 37.6475 139.332 37.5192 139.442 37.3507C139.548 37.1784 139.603 37.0245 139.603 36.8816V28.3877C139.603 28.0835 139.456 27.8197 139.168 27.5962C138.875 27.3727 138.528 27.2627 138.118 27.2627C137.713 27.2627 137.369 27.3727 137.091 27.5962C136.81 27.8197 136.671 28.0835 136.671 28.3877V36.8816C136.671 37.0245 136.726 37.1784 136.832 37.3507C136.938 37.5192 137.077 37.6475 137.252 37.7391C137.446 37.7391 137.545 37.805 137.556 37.937C137.566 38.0725 137.464 38.1385 137.252 38.1385H132.358C132.142 38.1385 132.036 38.0725 132.036 37.937C132.036 37.805 132.131 37.7391 132.325 37.7391C132.518 37.6475 132.668 37.5192 132.774 37.3507C132.884 37.1784 132.935 37.0245 132.935 36.8816V26.7754C132.935 26.6325 132.884 26.4786 132.774 26.3173C132.668 26.1561 132.518 26.0315 132.325 25.9436C132.153 25.9436 132.061 25.8813 132.051 25.7567C132.04 25.6321 132.142 25.5515 132.358 25.5148L136.671 25.5735Z" fill="#20536B"/>
</g>
<mask id="mask23_85_600" style="mask-type:luminance" maskUnits="userSpaceOnUse" x="0" y="0" width="151" height="50">
<path d="M151 -7.62939e-06H0V50H151V-7.62939e-06Z" fill="white"/>
</mask>
<g mask="url(#mask23_85_600)">
<path d="M149.841 25.5735V36.8816C149.841 37.0245 149.896 37.1784 150.002 37.3507C150.108 37.5192 150.247 37.6475 150.422 37.7391C150.616 37.7391 150.715 37.805 150.726 37.937C150.737 38.0725 150.634 38.1385 150.422 38.1385H145.528C145.312 38.1385 145.206 38.0725 145.206 37.937C145.206 37.805 145.301 37.7391 145.495 37.7391C145.689 37.6475 145.839 37.5192 145.945 37.3507C146.054 37.1784 146.105 37.0245 146.105 36.8816V26.7754C146.105 26.6325 146.054 26.4786 145.945 26.3173C145.839 26.1561 145.689 26.0315 145.495 25.9436C145.323 25.9436 145.232 25.8813 145.221 25.7567C145.21 25.6321 145.312 25.5515 145.528 25.5148L149.841 25.5735Z" fill="#20536B"/>
</g>
<mask id="mask24_85_600" style="mask-type:luminance" maskUnits="userSpaceOnUse" x="0" y="0" width="151" height="50">
<path d="M151 -7.62939e-06H0V50H151V-7.62939e-06Z" fill="white"/>
</mask>
<g mask="url(#mask24_85_600)">
<path d="M53.3027 39.3661C50.4003 39.3661 48.0426 38.0725 46.9972 35.9069C46.0029 33.8476 46.3465 31.4254 47.922 29.4284L48.1121 29.1828L48.7993 29.7178L48.6494 29.9597C47.5747 31.6673 47.4468 33.5361 48.3021 35.0898C49.1612 36.6471 50.8426 37.5815 52.8019 37.5815C54.7246 37.5815 56.2489 36.6251 56.6876 35.1484C57.1262 33.6643 56.3623 32.063 54.6881 30.9674L50.5941 28.2264C48.7956 27.0722 47.9366 25.4672 48.1121 23.5874C48.3241 20.8611 50.4296 19.0949 53.4745 19.0949C54.2677 19.0949 55.697 19.2012 56.8082 19.3441H58.6176L58.2667 23.5178H57.4369L57.4333 23.2063C57.4187 21.7112 56.1978 20.7402 54.3189 20.7402C52.6849 20.7402 51.5554 21.561 51.5006 22.7812C51.4567 23.5507 51.9941 24.0381 53.0651 24.727L57.5539 27.6695C60.1492 29.3367 61.2861 31.9934 60.5257 34.5987C59.6777 37.4936 56.8411 39.3661 53.3027 39.3661Z" fill="#20536B"/>
</g>
<mask id="mask25_85_600" style="mask-type:luminance" maskUnits="userSpaceOnUse" x="22" y="-99" width="144" height="143">
<path d="M165.02 8.39315L58.2477 -98.6409L22.9792 -63.2859L129.751 43.7481L165.02 8.39315Z" fill="white"/>
</mask>
<g mask="url(#mask25_85_600)">
<path d="M150.375 21.1619L147.901 18.6822L145.428 21.1619L147.901 23.6415L150.375 21.1619Z" fill="#20536B"/>
</g>
<mask id="mask26_85_600" style="mask-type:luminance" maskUnits="userSpaceOnUse" x="7" y="-62" width="143" height="143">
<path d="M149.829 45.1572L43.0571 -61.8769L7.78859 -26.5219L114.561 80.5122L149.829 45.1572Z" fill="white"/>
</mask>
<g mask="url(#mask26_85_600)">
<path d="M98.5096 21.1614L96.036 18.6817L93.5625 21.1614L96.036 23.641L98.5096 21.1614Z" fill="#20536B"/>
</g>
<mask id="mask27_85_600" style="mask-type:luminance" maskUnits="userSpaceOnUse" x="0" y="0" width="151" height="50">
<path d="M151 -7.62939e-06H0V50H151V-7.62939e-06Z" fill="white"/>
</mask>
<g mask="url(#mask27_85_600)">
<path d="M15.2466 28.8787C15.3014 27.7574 15.338 25.3976 14.8701 22.8582C14.0184 18.2081 11.8909 15.1154 8.71076 13.9062C8.63765 13.8805 8.54262 13.8439 8.45123 13.8036C7.85175 13.5471 5.64024 12.7043 2.47103 12.7189C2.22247 12.7226 1.97025 12.7299 1.72168 12.7409C2.91333 12.4551 4.29141 12.2389 5.74991 12.2316C7.50449 12.2206 9.16768 12.5064 10.7029 13.0817C12.2163 13.646 13.4664 14.6354 14.4241 16.0205C15.2027 17.1455 15.7912 18.5306 16.175 20.1466C16.7928 22.7263 16.6795 25.0751 16.6612 25.4049C16.515 25.7017 15.6414 27.5156 15.4842 28.8494C15.4367 28.864 15.3343 28.8714 15.2685 28.8787C15.2612 28.8787 15.2539 28.8787 15.2466 28.8787Z" fill="#54A1A3"/>
</g>
<mask id="mask28_85_600" style="mask-type:luminance" maskUnits="userSpaceOnUse" x="0" y="0" width="151" height="50">
<path d="M151 -7.62939e-06H0V50H151V-7.62939e-06Z" fill="white"/>
</mask>
<g mask="url(#mask28_85_600)">
<path d="M20.1887 24.9652C23.6101 23.7376 24.725 22.5504 25.0576 21.7662C25.2696 21.2715 25.1746 20.9344 25.1417 20.8501C24.9809 20.3005 24.1986 19.6262 22.678 18.7321C21.5887 18.0909 20.8832 16.9732 20.5469 15.3316C20.8101 15.6761 21.1464 15.8666 21.5448 15.8923C21.5558 15.8959 21.5704 15.8959 21.5814 15.8959C21.6764 15.8959 22.0054 15.8703 22.243 15.5295C22.5537 15.0898 22.5793 14.3093 22.3234 13.1587C22.7547 13.712 23.2775 14.126 23.866 14.1297C24.089 14.1297 24.3046 14.0747 24.513 13.9575C24.5678 13.9245 24.842 13.745 24.8931 13.3089C24.9736 12.664 24.5459 11.8138 23.5918 10.7255C23.9939 10.6156 24.4362 10.469 24.7689 10.3041C25.1929 10.9124 26.008 12.0227 26.8744 12.9022C26.7062 12.8618 26.6039 12.8252 26.5673 12.7886L26.2602 13.0744L26.5307 13.3639C26.5344 13.3712 27.5543 14.5438 27.4482 15.5808C27.4044 15.9839 27.1851 16.3247 26.7903 16.5995L26.783 16.6068C26.783 16.6068 26.4942 16.8083 26.0665 16.8083C25.6754 16.8047 25.2733 16.6361 24.8712 16.31C24.7908 16.2477 24.6957 16.2147 24.5971 16.2147C24.385 16.2111 24.2096 16.3613 24.1803 16.5738C24.0597 17.424 24.5422 18.2484 25.3501 18.5819C26.2091 18.9337 27.2435 19.5969 27.313 20.7695C27.4044 22.2755 26.6952 24.5804 19.6623 27.3433L20.1887 24.9652Z" fill="#54A1A3"/>
</g>
<mask id="mask29_85_600" style="mask-type:luminance" maskUnits="userSpaceOnUse" x="0" y="0" width="151" height="50">
<path d="M151 -7.62939e-06H0V50H151V-7.62939e-06Z" fill="white"/>
</mask>
<g mask="url(#mask29_85_600)">
<path d="M10.2497 48.8494C9.14941 48.8567 8.11859 48.5013 7.27055 47.8307C6.42615 47.1601 4.42301 45.295 4.06478 42.4038C3.77966 40.0916 4.60943 37.7171 6.53582 35.3426C11.9787 28.6259 11.3573 23.6204 11.1781 22.686C11.1562 22.5687 11.1343 22.4514 11.1123 22.3342C11.1014 22.2682 11.0904 22.2059 11.0794 22.14C9.71234 15.2217 3.66269 13.7266 0 13.4335C0.595827 13.3712 1.19165 13.3345 1.78748 13.3309C3.50185 13.3199 6.31284 14.192 7.59953 14.8113C9.16403 15.5625 10.564 16.7497 11.6716 18.5636C13.0095 20.7585 13.6272 23.5764 12.8523 26.6581C12.1797 29.3331 10.7687 31.8505 9.52591 34.0711C9.12382 34.7893 8.80215 35.5002 8.41833 36.0975C5.3332 40.8904 6.76976 45.0934 9.41625 46.6178C9.94628 46.9219 10.9771 47.1638 11.4889 47.1601C12.1395 47.1565 13.0095 46.834 13.4774 46.2294C14.2414 45.2363 14.4753 43.7376 14.1024 42.2169C13.2288 38.6478 12.8633 36.3723 15.1552 34.8846C15.7218 34.5181 16.2884 34.3312 16.8367 34.3276C17.8346 34.3239 18.5584 34.9395 18.8471 35.2363L17.469 36.3283C17.173 36.0681 16.844 36.0095 16.6027 36.0095C16.4017 36.0095 16.2591 36.0535 16.2445 36.0608H16.2372L16.2299 36.0645C14.8555 36.6288 15.0857 38.9447 15.3416 40.2748C15.4915 41.0407 15.5683 41.7919 15.5756 42.5027C15.6012 44.8919 14.9286 46.6361 13.5761 47.6915C12.6366 48.4207 11.4231 48.8421 10.2497 48.8494Z" fill="#54A1A3"/>
</g>
<mask id="mask30_85_600" style="mask-type:luminance" maskUnits="userSpaceOnUse" x="0" y="0" width="151" height="50">
<path d="M151 -7.62939e-06H0V50H151V-7.62939e-06Z" fill="white"/>
</mask>
<g mask="url(#mask30_85_600)">
<path d="M13.0022 45.1594C11.8325 44.672 10.6591 43.6643 9.82931 41.7002C9.12017 40.0293 9.01051 38.1971 9.50033 36.2587C9.83662 34.9359 10.5421 33.7303 11.328 32.4808C13.4481 29.1022 13.8539 27.402 14.0257 25.7713C14.0769 25.3023 14.0951 24.8736 14.0915 24.4998C14.6946 26.9183 14.6252 29.8058 12.399 33.7999C11.5949 35.24 10.9113 36.5372 10.7322 37.8967C10.4544 40.0256 11.5547 42.0777 13.4628 43.0048C13.4628 43.0048 13.7442 44.0454 13.4518 44.65C13.1594 45.2547 13.0022 45.1594 13.0022 45.1594Z" fill="#54A1A3"/>
</g>
<mask id="mask31_85_600" style="mask-type:luminance" maskUnits="userSpaceOnUse" x="0" y="0" width="151" height="50">
<path d="M151 -7.62939e-06H0V50H151V-7.62939e-06Z" fill="white"/>
</mask>
<g mask="url(#mask31_85_600)">
<path d="M15.6596 45.5625C16.4346 45.5588 17.2497 45.4122 18.0758 45.1301C19.22 44.738 20.1521 43.9135 20.6346 42.8728C20.9965 42.085 21.1025 41.2312 20.9526 40.3334L20.9014 40.022L22.0273 40.2895L20.4884 35.7603L18.1599 37.292C18.6315 38.0176 20.0753 40.4324 19.2931 41.5647C18.8544 42.1986 17.7505 43.2393 16.2408 43.4152C16.2408 43.4152 16.1312 44.7783 15.6596 45.5625Z" fill="#54A1A3"/>
</g>
<mask id="mask32_85_600" style="mask-type:luminance" maskUnits="userSpaceOnUse" x="0" y="0" width="151" height="50">
<path d="M151 -7.62939e-06H0V50H151V-7.62939e-06Z" fill="white"/>
</mask>
<g mask="url(#mask32_85_600)">
<path d="M18.6095 22.9058C18.8435 21.8578 18.9129 20.7768 18.7996 19.7068C18.6461 18.2045 18.1709 16.889 17.3959 15.7897L16.9646 15.185L17.056 16.6508C16.6612 15.4306 16.0544 13.9795 15.2393 13.2319C15.9521 12.9681 17.3996 11.9311 17.4288 10.3041C18.3134 11.6599 20.1923 15.4965 19.9986 20.4544C19.9693 21.2056 19.8852 21.9604 19.7427 22.7189C19.7427 22.7189 19.0884 22.9351 18.6095 22.9535V22.9058Z" fill="#54A1A3"/>
</g>
<mask id="mask33_85_600" style="mask-type:luminance" maskUnits="userSpaceOnUse" x="0" y="0" width="151" height="50">
<path d="M151 -7.62939e-06H0V50H151V-7.62939e-06Z" fill="white"/>
</mask>
<g mask="url(#mask33_85_600)">
<path d="M18.5254 24.1517C18.3719 24.6867 18.1745 25.2144 17.9333 25.7237C15.9996 29.8058 16.2884 31.9201 16.632 32.8179C16.7672 33.1623 17.0633 33.4371 17.4252 33.5544C17.798 33.6717 18.1709 33.7303 18.5364 33.7266C20.3604 33.7156 21.5046 32.1913 21.5155 32.1766L21.8847 32.3928C20.832 34.8516 21.8299 36.9293 22.1297 37.4569C23.0837 37.1455 23.8769 35.4452 24.1109 34.782L24.2461 34.3972L24.4837 34.7417C24.8237 35.2253 25.1819 35.4818 25.5292 35.4818C25.7265 35.4782 25.8581 35.3939 25.8581 35.3939L26.3004 35.0714L25.5292 38.9227C25.2733 40.3298 25.2989 41.5573 25.6059 42.5687C26.1213 44.2689 27.7333 45.4489 29.5245 45.4415C30.0655 45.4379 30.5919 45.3279 31.089 45.1154C33.6587 44.0161 33.9146 41.1506 33.9182 41.1176C34.2692 37.7464 33.0665 35.0971 31.7908 32.2902C30.5224 29.498 29.2101 26.6105 29.3673 22.8179C29.6122 16.9219 32.6389 14.8039 35.3914 14.7893C36.148 14.7856 36.8864 14.9432 37.5261 15.251C38.5313 15.7384 39.171 16.5775 39.3209 17.6182C39.5329 19.0986 39.1491 20.1246 37.2593 21.9971C35.0295 24.2103 33.9219 26.8413 33.9219 26.8413C32.6133 30.2162 33.0665 32.9058 33.6806 34.5658C34.0023 35.4342 34.4008 36.1194 34.7261 36.5995C33.337 30.7842 35.9579 27.5229 37.559 25.5295C37.8478 25.1667 38.1804 24.8406 38.4509 24.4851C40.2128 22.1803 41.3277 21.2166 41.229 17.5998C41.1815 16.0132 40.5345 14.5328 39.4013 13.4335C38.2645 12.3305 36.7073 11.7039 35.1355 11.7112C33.041 11.7222 31.0451 12.8289 29.5208 14.8259C28.1172 16.6654 27.5323 19.0986 27.7333 22.2646C27.9198 25.2107 28.7678 28.2851 29.4879 30.6339L29.5318 30.7695L29.6341 31.103C29.8462 31.7809 30.0545 32.4331 30.2592 33.0597C30.7308 34.5218 31.1402 35.7823 31.3741 36.7973C31.9736 39.388 31.8785 41.4657 31.1328 42.5687C30.7856 43.0854 30.1093 43.4591 29.4806 43.4628C28.7459 43.4665 27.9709 42.9058 27.7333 42.2096C26.5051 38.5672 28.4169 33.2466 29.2321 31.081L29.2723 30.9784C28.2743 31.7515 27.3934 32.1473 26.6587 32.151C26.125 32.1546 25.6644 31.9604 25.2842 31.572C24.4618 30.7292 24.2169 29.1535 24.1474 28.1605C23.3505 29.4906 21.7458 30.982 20.2508 30.9894C19.9839 30.9894 19.7281 30.9417 19.4905 30.8501C18.1197 30.3005 18.6497 27.5375 19.3333 25.3133C19.4466 24.9395 19.5709 24.5291 19.6586 24.1554C19.6586 24.1554 18.785 24.203 18.5145 24.1077L18.5254 24.1517Z" fill="#54A1A3"/>
</g>
<mask id="mask34_85_600" style="mask-type:luminance" maskUnits="userSpaceOnUse" x="0" y="0" width="151" height="50">
<path d="M151 -7.62939e-06H0V50H151V-7.62939e-06Z" fill="white"/>
</mask>
<g mask="url(#mask34_85_600)">
<path d="M23.1276 20.7145C23.1751 19.978 22.4111 19.41 21.6654 19.52C21.1025 19.6006 20.6712 20.0769 20.6419 20.6449C20.6054 21.2935 21.055 21.8395 21.6435 21.9714C21.5887 22.074 21.5192 22.1803 21.4425 22.2829C21.3438 22.4111 21.2268 22.5394 21.0989 22.6566C20.9636 22.7739 20.821 22.8838 20.6602 22.9791L20.5432 23.0487L20.419 23.111C20.3349 23.1587 20.2471 23.1916 20.1631 23.2283C20.079 23.2649 19.9876 23.2942 19.8999 23.3236C19.8122 23.3565 19.7244 23.3749 19.6367 23.4005C19.5928 23.4115 19.549 23.4262 19.5051 23.4335C19.4612 23.4445 19.4174 23.4518 19.3735 23.4628C19.2858 23.4775 19.2017 23.4994 19.1176 23.5068C19.0336 23.5214 18.9531 23.5324 18.8727 23.5434C18.7923 23.5507 18.7155 23.5581 18.6424 23.5617C18.4926 23.5801 18.3573 23.5801 18.233 23.5837C18.1709 23.5874 18.1161 23.5874 18.0612 23.5911C18.0101 23.5911 17.9589 23.5874 17.915 23.5874C17.7396 23.5837 17.6372 23.5837 17.6372 23.5837C17.6372 23.5837 17.7396 23.602 17.9114 23.635C17.9552 23.646 18.0064 23.6533 18.0576 23.6643C18.1124 23.6717 18.1672 23.679 18.2294 23.69C18.3537 23.7046 18.4926 23.7266 18.6461 23.7376C18.7229 23.745 18.8033 23.7559 18.8837 23.7596C18.9678 23.7633 19.0555 23.7633 19.1432 23.7669C19.231 23.7743 19.3223 23.7669 19.4174 23.7669C19.4649 23.7669 19.5124 23.7633 19.5599 23.7633C19.6075 23.7596 19.655 23.7559 19.7025 23.7523C19.8012 23.7413 19.8999 23.7376 20.0022 23.7193C20.1009 23.7046 20.2033 23.69 20.3056 23.6643C20.4043 23.6424 20.5103 23.6204 20.6127 23.5874L20.7662 23.5434L20.9161 23.4848C21.1171 23.4115 21.3145 23.3126 21.5009 23.199C21.6837 23.0854 21.8555 22.9571 22.0127 22.8142C22.1626 22.6713 22.3051 22.5211 22.4221 22.3635C22.5354 22.2059 22.6378 22.052 22.7182 21.8981C22.7182 21.8981 23.091 21.3008 23.1276 20.7145ZM21.8738 21.1359C21.6252 21.1176 21.4351 20.8978 21.4498 20.6522C21.4607 20.4031 21.6727 20.2199 21.9213 20.2382C22.1699 20.2602 22.36 20.4764 22.3453 20.7219C22.3344 20.971 22.1224 21.1543 21.8738 21.1359Z" fill="#54A1A3"/>
</g>
<mask id="mask35_85_600" style="mask-type:luminance" maskUnits="userSpaceOnUse" x="0" y="0" width="151" height="50">
<path d="M151 -7.62939e-06H0V50H151V-7.62939e-06Z" fill="white"/>
</mask>
<g mask="url(#mask35_85_600)">
<path d="M25.1307 28.6332L24.6336 26.1268C24.6336 26.1268 25.9788 24.3276 27.1266 24.8223C28.2707 25.317 28.3 28.7724 26.0153 30.2895C26.0153 30.2895 27.6712 28.2851 27.0827 27.5119C26.4942 26.7387 25.4378 27.8527 25.1307 28.6332Z" fill="#54A1A3"/>
</g>
<mask id="mask36_85_600" style="mask-type:luminance" maskUnits="userSpaceOnUse" x="0" y="0" width="151" height="50">
<path d="M151 -7.62939e-06H0V50H151V-7.62939e-06Z" fill="white"/>
</mask>
<g mask="url(#mask36_85_600)">
<path d="M23.1276 40.3005L21.8555 38.6112L23.5077 37.38L24.7798 39.0692L23.1276 40.3005Z" fill="#54A1A3"/>
</g>
<mask id="mask37_85_600" style="mask-type:luminance" maskUnits="userSpaceOnUse" x="0" y="0" width="151" height="50">
<path d="M151 -7.62939e-06H0V50H151V-7.62939e-06Z" fill="white"/>
</mask>
<g mask="url(#mask37_85_600)">
<path d="M22.762 43.221L21.49 41.5317L23.1422 40.3005L24.4143 41.9897L22.762 43.221Z" fill="#54A1A3"/>
</g>
<mask id="mask38_85_600" style="mask-type:luminance" maskUnits="userSpaceOnUse" x="0" y="0" width="151" height="50">
<path d="M151 -7.62939e-06H0V50H151V-7.62939e-06Z" fill="white"/>
</mask>
<g mask="url(#mask38_85_600)">
<path d="M18.339 48.1532L16.9756 46.4822L18.6059 45.1631L19.9693 46.834L18.339 48.1532Z" fill="#54A1A3"/>
</g>
<mask id="mask39_85_600" style="mask-type:luminance" maskUnits="userSpaceOnUse" x="0" y="0" width="151" height="50">
<path d="M151 -7.62939e-06H0V50H151V-7.62939e-06Z" fill="white"/>
</mask>
<g mask="url(#mask39_85_600)">
<path d="M16.091 50L14.7275 48.329L16.3578 47.0099L17.7213 48.6808L16.091 50Z" fill="#54A1A3"/>
</g>
<mask id="mask40_85_600" style="mask-type:luminance" maskUnits="userSpaceOnUse" x="-3" y="0" width="139" height="148">
<path d="M135.089 114.321L35.3922 0.649681L-2.07445 33.6728L97.6223 147.344L135.089 114.321Z" fill="white"/>
</mask>
<g mask="url(#mask40_85_600)">
<path d="M18.2636 39.6327L17.04 38.2377L15.6865 39.4308L16.91 40.8258L18.2636 39.6327Z" fill="#54A1A3"/>
</g>
<mask id="mask41_85_600" style="mask-type:luminance" maskUnits="userSpaceOnUse" x="0" y="0" width="151" height="50">
<path d="M151 -7.62939e-06H0V50H151V-7.62939e-06Z" fill="white"/>
</mask>
<g mask="url(#mask41_85_600)">
<path d="M19.1688 49.3038C19.1871 49.2708 19.2017 49.2415 19.22 49.2085C19.3662 48.9447 19.5416 48.6698 19.7354 48.4023C19.9949 48.0469 20.2581 47.7354 20.5432 47.4496C20.9014 47.0868 21.2889 46.768 21.691 46.5005C22.1845 46.1744 22.7072 45.9289 23.2372 45.7677C23.6905 45.6248 24.162 45.5551 24.6445 45.5515C24.809 45.5515 24.9735 45.5588 25.1344 45.5735C25.1636 45.5771 25.1929 45.5771 25.2221 45.5808C25.2769 45.5845 25.3281 45.5918 25.3793 45.5991L25.6388 45.6468C25.7631 45.6687 25.8801 45.7017 26.0043 45.7384C26.0519 45.7494 26.0957 45.764 26.1396 45.775C26.2017 45.7933 26.2639 45.8153 26.3297 45.841L26.3735 45.8593C26.4576 45.8886 26.538 45.9216 26.6221 45.9546C26.7025 45.9875 26.7903 46.0242 26.8743 46.0608C26.9219 46.0791 26.973 46.1011 27.0205 46.1231L27.397 46.277C27.4519 46.2953 27.5067 46.3173 27.5579 46.3393C27.6273 46.3686 27.7004 46.3943 27.7736 46.4199C28.0185 46.5115 28.267 46.5995 28.5156 46.6728C29.0566 46.834 29.5172 46.9219 29.9229 46.9476C30.0253 46.9513 30.1166 46.9549 30.2044 46.9549C30.336 46.9513 30.4566 46.9476 30.5736 46.9329C30.7929 46.9073 31.0013 46.867 31.1986 46.8083C31.5825 46.6948 31.9663 46.5225 32.3464 46.299C32.6462 46.1231 32.9605 45.9179 33.3078 45.6687C33.4979 45.5332 33.6697 45.4012 33.8232 45.284C33.9036 45.2254 33.9767 45.1704 34.0425 45.1191C34.0754 45.0934 34.1047 45.0714 34.1339 45.0495C34.1193 45.0824 34.1047 45.1191 34.0864 45.1557C33.9438 45.4709 33.8013 45.742 33.6441 46.0095C33.4906 46.2624 33.2493 46.6471 32.913 47.0355C32.5658 47.4386 32.171 47.7757 31.736 48.0396C31.4838 48.1898 31.2169 48.3144 30.9355 48.406L30.7125 48.4756C30.6686 48.4866 30.6174 48.4976 30.5663 48.5123L30.4932 48.5269C30.4237 48.5452 30.3579 48.5562 30.2848 48.5672L30.2556 48.5709C30.1788 48.5856 30.1093 48.5965 30.0399 48.6002C29.8717 48.6185 29.7072 48.6295 29.5354 48.6295C29.1041 48.6332 28.6435 48.5782 28.161 48.4756C28.0148 48.439 27.8576 48.4023 27.7114 48.3584C27.6822 48.351 27.6566 48.3437 27.631 48.3364C27.5798 48.3254 27.5323 48.3107 27.4848 48.2961L27.2618 48.2228C27.1412 48.1861 27.0279 48.1422 26.9072 48.0982L26.8232 48.0689C26.6806 48.0139 26.5344 47.9553 26.3809 47.893C26.3406 47.8747 26.2931 47.8527 26.2456 47.8307C26.1579 47.7941 26.0701 47.7538 25.9788 47.7171C25.9239 47.6951 25.8764 47.6731 25.8252 47.6511L25.7887 47.6365C25.7485 47.6182 25.701 47.5998 25.6461 47.5815L25.4926 47.5339C25.4853 47.5302 25.478 47.5266 25.467 47.5229C25.4487 47.5156 25.4268 47.5082 25.4049 47.5046L25.3171 47.4826L25.16 47.4423C25.1197 47.4313 25.0795 47.424 25.0466 47.4203C25.0247 47.4166 25.0064 47.413 24.9882 47.4093C24.7177 47.3617 24.4472 47.3397 24.1767 47.3397C23.9866 47.3397 23.7928 47.3543 23.6064 47.38C23.1824 47.435 22.7291 47.5449 22.2649 47.7061C21.8774 47.8417 21.4826 48.0103 21.055 48.2191C20.2727 48.6075 19.6147 49.0216 19.2602 49.2451C19.2273 49.2671 19.198 49.2854 19.1688 49.3038Z" fill="#54A1A3"/>
</g>
<mask id="mask42_85_600" style="mask-type:luminance" maskUnits="userSpaceOnUse" x="-29" y="-15" width="143" height="143">
<path d="M113.482 92.535L6.70981 -14.4991L-28.5587 20.8559L78.2134 127.89L113.482 92.535Z" fill="white"/>
</mask>
<g mask="url(#mask42_85_600)">
<path d="M21.6831 0.868476L20.8172 0.000471115L19.9487 0.871067L20.8146 1.73907L21.6831 0.868476Z" fill="#54A1A3"/>
</g>
<mask id="mask43_85_600" style="mask-type:luminance" maskUnits="userSpaceOnUse" x="-27" y="-14" width="143" height="143">
<path d="M115.487 93.3675L8.71442 -13.6665L-26.5541 21.6885L80.218 128.722L115.487 93.3675Z" fill="white"/>
</mask>
<g mask="url(#mask43_85_600)">
<path d="M22.4987 3.71167L20.8135 2.0223L19.1282 3.71167L20.8135 5.40104L22.4987 3.71167Z" fill="#54A1A3"/>
</g>
<mask id="mask44_85_600" style="mask-type:luminance" maskUnits="userSpaceOnUse" x="0" y="0" width="151" height="50">
<path d="M151 -7.62939e-06H0V50H151V-7.62939e-06Z" fill="white"/>
</mask>
<g mask="url(#mask44_85_600)">
<path d="M21.1025 8.77244C22.5062 8.77244 23.8477 9.08024 25.0613 9.63356C25.1344 9.66287 25.1929 9.57493 25.138 9.51996L23.3908 7.90399L20.8064 5.59545L18.3208 8.0872L16.7087 9.69585C16.6539 9.74715 16.7161 9.8351 16.7819 9.80212C18.0941 9.1462 19.5599 8.77244 21.1025 8.77244Z" fill="#54A1A3"/>
</g>
</g>
<defs>
<clipPath id="clip0_85_600">
<rect width="151" height="50" fill="white"/>
</clipPath>
</defs>
</svg>
