<svg width="151" height="50" viewBox="0 0 151 50" fill="none" xmlns="http://www.w3.org/2000/svg">
<g clip-path="url(#clip0_85_1338)">
<mask id="mask0_85_1338" style="mask-type:luminance" maskUnits="userSpaceOnUse" x="1" y="8" width="150" height="33">
<path d="M151 8H1V41H151V8Z" fill="white"/>
</mask>
<g mask="url(#mask0_85_1338)">
<mask id="mask1_85_1338" style="mask-type:luminance" maskUnits="userSpaceOnUse" x="1" y="8" width="150" height="33">
<path d="M151 8H1V41H151V8Z" fill="white"/>
</mask>
<g mask="url(#mask1_85_1338)">
<mask id="mask2_85_1338" style="mask-type:luminance" maskUnits="userSpaceOnUse" x="1" y="8" width="35" height="33">
<path d="M35.833 8H1V41H35.833V8Z" fill="white"/>
</mask>
<g mask="url(#mask2_85_1338)">
<path d="M28.9708 8H7.85851C4.07515 8 1 11.051 1 14.8002C1 18.5494 4.07515 21.5967 7.85851 21.5967H10.8069V33.4795C10.7771 35.4778 11.5375 37.358 12.9465 38.7764C13.3267 39.1605 13.7516 39.4966 14.2026 39.7884C15.0711 40.3721 16.0663 40.7636 17.1361 40.9077C17.5126 40.9668 17.8928 41 18.2767 41C18.5078 41 18.7427 40.9852 18.9775 40.9631C22.813 40.7968 25.8807 37.4355 25.8807 33.3318V21.5967H28.9708C32.7541 21.5967 35.833 18.5494 35.833 14.8002C35.833 11.051 32.7541 8 28.9708 8ZM21.911 34.6652C21.5457 35.862 20.6474 36.7707 19.4471 37.1511C19.2049 37.2287 18.9588 37.2804 18.7128 37.3099C18.7017 37.3099 18.683 37.3099 18.6718 37.3099H18.0493C17.9301 37.3099 17.8145 37.3062 17.699 37.2915C17.1548 37.2065 16.6329 36.9997 16.1744 36.6968C15.1904 35.9913 14.5344 34.7465 14.5344 33.3318V24.3486L21.0164 31.0158C21.3146 31.3261 21.5755 31.677 21.7544 32.0685C22.116 32.8774 22.1756 33.7824 21.911 34.6652ZM13.8001 18.4533C13.487 18.1357 13.062 17.9399 12.6147 17.9362H12.6073H7.93305C6.16252 17.9362 4.66408 16.4993 4.6939 14.7448C4.72372 13.0383 6.1327 11.6605 7.85851 11.6605H28.9C30.6705 11.6605 32.1689 13.0974 32.1391 14.8519C32.1093 16.5584 30.7003 17.9362 28.9708 17.9362H23.3647C22.7161 17.9362 22.1868 18.4607 22.1868 19.1034V26.9453L13.8001 18.4533Z" fill="#E01F26"/>
</g>
</g>
<mask id="mask3_85_1338" style="mask-type:luminance" maskUnits="userSpaceOnUse" x="1" y="8" width="150" height="33">
<path d="M151 8H1V41H151V8Z" fill="white"/>
</mask>
<g mask="url(#mask3_85_1338)">
<g opacity="0.44">
<mask id="mask4_85_1338" style="mask-type:luminance" maskUnits="userSpaceOnUse" x="22" y="26" width="4" height="8">
<path d="M25.8919 26.9453H22.1906V33.3318H25.8919V26.9453Z" fill="white"/>
</mask>
<g mask="url(#mask4_85_1338)">
<path d="M22.1906 26.9453C22.1906 26.9453 24.3338 28.4302 25.8919 30.7166L25.8845 33.3318C25.8845 33.3318 25.1427 29.3277 22.1906 27.141V26.9453Z" fill="#B11F24"/>
</g>
</g>
</g>
</g>
<mask id="mask5_85_1338" style="mask-type:luminance" maskUnits="userSpaceOnUse" x="1" y="8" width="150" height="33">
<path d="M151 8H1V41H151V8Z" fill="white"/>
</mask>
<g mask="url(#mask5_85_1338)">
<path d="M43.2879 36.6192V40.1578H43.9626V38.8465H45.7555V38.2297H43.9626V37.2619H45.8561V36.6192H43.2879Z" fill="#756E78"/>
</g>
<mask id="mask6_85_1338" style="mask-type:luminance" maskUnits="userSpaceOnUse" x="1" y="8" width="150" height="33">
<path d="M151 8H1V41H151V8Z" fill="white"/>
</mask>
<g mask="url(#mask6_85_1338)">
<mask id="mask7_85_1338" style="mask-type:luminance" maskUnits="userSpaceOnUse" x="1" y="8" width="150" height="33">
<path d="M151 8H1V41H151V8Z" fill="white"/>
</mask>
<g mask="url(#mask7_85_1338)">
<path d="M53.4415 36.6192V38.6471C53.4415 39.6961 52.7929 40.2317 51.8946 40.2317C51.0373 40.2317 50.3067 39.7146 50.3067 38.6471V36.6192H50.9739V38.6471C50.9739 39.2861 51.3429 39.6259 51.8983 39.6259C52.4574 39.6259 52.7705 39.2565 52.7705 38.6471V36.6192H53.4415Z" fill="#756E78"/>
</g>
<mask id="mask8_85_1338" style="mask-type:luminance" maskUnits="userSpaceOnUse" x="1" y="8" width="150" height="33">
<path d="M151 8H1V41H151V8Z" fill="white"/>
</mask>
<g mask="url(#mask8_85_1338)">
<path d="M60.7436 40.1578H58.0673V36.6155H60.7436V37.2619H58.7382V38.0782H60.6727V38.6988H58.7382V39.5003H60.7436V40.1578Z" fill="#756E78"/>
</g>
<mask id="mask9_85_1338" style="mask-type:luminance" maskUnits="userSpaceOnUse" x="1" y="8" width="150" height="33">
<path d="M151 8H1V41H151V8Z" fill="white"/>
</mask>
<g mask="url(#mask9_85_1338)">
<path d="M65.921 36.6155V39.541H67.7586V40.1578H65.2463V36.6155H65.921Z" fill="#756E78"/>
</g>
<mask id="mask10_85_1338" style="mask-type:luminance" maskUnits="userSpaceOnUse" x="1" y="8" width="150" height="33">
<path d="M151 8H1V41H151V8Z" fill="white"/>
</mask>
<g mask="url(#mask10_85_1338)">
<path d="M78.1545 37.2213H77.0213V36.6155H79.9623V37.2213H78.8291V40.1578H78.1545V37.2213Z" fill="#756E78"/>
</g>
<mask id="mask11_85_1338" style="mask-type:luminance" maskUnits="userSpaceOnUse" x="1" y="8" width="150" height="33">
<path d="M151 8H1V41H151V8Z" fill="white"/>
</mask>
<g mask="url(#mask11_85_1338)">
<path d="M87.5253 40.1541H86.7201L85.6802 38.9721H85.0316V40.1541H84.3569V36.6081C84.9235 36.6081 85.4901 36.6155 86.0566 36.6155C86.8991 36.6192 87.3426 37.177 87.3426 37.7864C87.3426 38.274 87.119 38.7653 86.4406 38.9019L87.5253 40.1098V40.1541ZM85.0316 37.2361V38.37H86.0566C86.4853 38.37 86.6717 38.0856 86.6717 37.8012C86.6717 37.5205 86.4816 37.2361 86.0566 37.2361H85.0316Z" fill="#756E78"/>
</g>
<mask id="mask12_85_1338" style="mask-type:luminance" maskUnits="userSpaceOnUse" x="1" y="8" width="150" height="33">
<path d="M151 8H1V41H151V8Z" fill="white"/>
</mask>
<g mask="url(#mask12_85_1338)">
<path d="M94.3167 39.4893H92.4455L92.1399 40.1541H91.4093L93.0121 36.6155H93.7501L95.3529 40.1541H94.6186L94.3167 39.4893ZM93.3811 37.358L92.7176 38.865H94.0446L93.3811 37.358Z" fill="#756E78"/>
</g>
<mask id="mask13_85_1338" style="mask-type:luminance" maskUnits="userSpaceOnUse" x="1" y="8" width="150" height="33">
<path d="M151 8H1V41H151V8Z" fill="white"/>
</mask>
<g mask="url(#mask13_85_1338)">
<path d="M102.894 38.3553C102.908 39.2529 102.357 40.1578 101.104 40.1578H99.7029V36.6155H101.104C102.331 36.6155 102.879 37.4799 102.894 38.3553ZM100.37 39.5151H101.104C101.917 39.5151 102.238 38.9278 102.223 38.3516C102.208 37.8012 101.883 37.2471 101.104 37.2471H100.37V39.5151Z" fill="#756E78"/>
</g>
<mask id="mask14_85_1338" style="mask-type:luminance" maskUnits="userSpaceOnUse" x="1" y="8" width="150" height="33">
<path d="M151 8H1V41H151V8Z" fill="white"/>
</mask>
<g mask="url(#mask14_85_1338)">
<path d="M108.049 36.6155H107.381V40.1578H108.049V36.6155Z" fill="#756E78"/>
</g>
<mask id="mask15_85_1338" style="mask-type:luminance" maskUnits="userSpaceOnUse" x="1" y="8" width="150" height="33">
<path d="M151 8H1V41H151V8Z" fill="white"/>
</mask>
<g mask="url(#mask15_85_1338)">
<path d="M115.011 36.6118H115.686V40.1578H115.265V40.1652L113.386 37.7717V40.1578H112.712V36.6155H113.26L115.011 38.8133V36.6118Z" fill="#756E78"/>
</g>
<mask id="mask16_85_1338" style="mask-type:luminance" maskUnits="userSpaceOnUse" x="1" y="8" width="150" height="33">
<path d="M151 8H1V41H151V8Z" fill="white"/>
</mask>
<g mask="url(#mask16_85_1338)">
<path d="M122.94 37.4798C122.701 37.2508 122.343 37.1252 122.03 37.1252C121.266 37.1252 120.8 37.7015 120.8 38.4328C120.8 39.0128 121.143 39.6148 122.03 39.6148C122.314 39.6148 122.556 39.5557 122.839 39.3304V38.7062H121.922V38.1078H123.454V39.6001C123.104 39.999 122.66 40.2391 122.03 40.2391C120.688 40.2391 120.14 39.3637 120.14 38.4328C120.14 37.4355 120.77 36.5121 122.03 36.5121C122.511 36.5121 122.992 36.6968 123.357 37.0551L122.94 37.4798Z" fill="#756E78"/>
</g>
<mask id="mask17_85_1338" style="mask-type:luminance" maskUnits="userSpaceOnUse" x="1" y="8" width="150" height="33">
<path d="M151 8H1V41H151V8Z" fill="white"/>
</mask>
<g mask="url(#mask17_85_1338)">
<path d="M133.679 36.6155V39.541H135.516V40.1578H133.004V36.6155H133.679Z" fill="#756E78"/>
</g>
<mask id="mask18_85_1338" style="mask-type:luminance" maskUnits="userSpaceOnUse" x="1" y="8" width="150" height="33">
<path d="M151 8H1V41H151V8Z" fill="white"/>
</mask>
<g mask="url(#mask18_85_1338)">
<path d="M140.645 36.6155V39.541H142.483V40.1578H139.97V36.6155H140.645Z" fill="#756E78"/>
</g>
<mask id="mask19_85_1338" style="mask-type:luminance" maskUnits="userSpaceOnUse" x="1" y="8" width="150" height="33">
<path d="M151 8H1V41H151V8Z" fill="white"/>
</mask>
<g mask="url(#mask19_85_1338)">
<path d="M150.091 39.7109C149.721 40.0692 149.248 40.2354 148.734 40.2354C147.403 40.2354 146.844 39.3304 146.836 38.4107C146.833 37.4835 147.44 36.5416 148.734 36.5416C149.218 36.5416 149.677 36.7263 150.046 37.0846L149.595 37.5131C149.36 37.2878 149.043 37.1807 148.734 37.1807C147.869 37.1807 147.496 37.8197 147.5 38.4107C147.507 38.998 147.85 39.6111 148.734 39.6111C149.043 39.6111 149.397 39.4819 149.632 39.2492L150.091 39.7109Z" fill="#756E78"/>
</g>
</g>
<mask id="mask20_85_1338" style="mask-type:luminance" maskUnits="userSpaceOnUse" x="1" y="8" width="150" height="33">
<path d="M151 8H1V41H151V8Z" fill="white"/>
</mask>
<g mask="url(#mask20_85_1338)">
<mask id="mask21_85_1338" style="mask-type:luminance" maskUnits="userSpaceOnUse" x="10" y="17" width="16" height="24">
<path d="M17.699 37.2952C17.1548 37.2065 16.6367 36.9997 16.1782 36.6968C15.1904 35.9913 14.5381 34.7465 14.5381 33.3355V24.3486L21.0127 31.0158C21.3146 31.3298 21.5793 31.677 21.7544 32.0722C22.116 32.8774 22.1794 33.7861 21.911 34.6652C21.5457 35.862 20.6474 36.7707 19.4471 37.1548C19.2049 37.2287 18.9626 37.2841 18.7128 37.3099C18.7017 37.3099 18.6868 37.3136 18.6718 37.3136H18.0531C17.9301 37.3136 17.8145 37.3062 17.699 37.2952ZM12.6073 17.9399H11.9773C11.7201 17.9399 11.4592 18.0766 11.2468 18.2723C10.9486 18.5457 10.8069 18.9483 10.8069 19.3509V21.6004V33.4795C10.7808 35.4778 11.5412 37.358 12.9465 38.7764C13.3267 39.1605 13.7516 39.4966 14.2026 39.7884C15.0711 40.3758 16.0701 40.7673 17.1361 40.9113C17.5126 40.9704 17.8928 41 18.2767 41C18.5116 41 18.7427 40.9852 18.9775 40.9668C22.813 40.7968 25.8807 37.4392 25.8807 33.3355C26.0746 30.6279 22.1868 26.949 22.1868 26.949L13.8001 18.4533C13.4907 18.1394 13.062 17.9436 12.6185 17.9399C12.6147 17.9399 12.611 17.9399 12.6073 17.9399Z" fill="white"/>
</mask>
<g mask="url(#mask21_85_1338)">
<path d="M0.705536 35.2341L14.6052 11.3761L36.1498 23.7021L22.2502 47.5601L0.705536 35.2341Z" fill="url(#paint0_linear_85_1338)"/>
</g>
</g>
<mask id="mask22_85_1338" style="mask-type:luminance" maskUnits="userSpaceOnUse" x="1" y="8" width="150" height="33">
<path d="M151 8H1V41H151V8Z" fill="white"/>
</mask>
<g mask="url(#mask22_85_1338)">
<mask id="mask23_85_1338" style="mask-type:luminance" maskUnits="userSpaceOnUse" x="1" y="8" width="150" height="33">
<path d="M151 8H1V41H151V8Z" fill="white"/>
</mask>
<g mask="url(#mask23_85_1338)">
<path d="M43.4333 16.9647V12.1776H47.0303V16.9647H52.2711V20.4886H47.0303V31.6216H43.4333V20.4886V16.9647Z" fill="#482F51"/>
</g>
<mask id="mask24_85_1338" style="mask-type:luminance" maskUnits="userSpaceOnUse" x="1" y="8" width="150" height="33">
<path d="M151 8H1V41H151V8Z" fill="white"/>
</mask>
<g mask="url(#mask24_85_1338)">
<path d="M66.7597 26.7717C66.7597 27.2592 66.6739 27.7874 66.4987 28.3526C66.3273 28.9177 66.044 29.4422 65.6563 29.9261C65.2687 30.4063 64.7655 30.8126 64.1393 31.1377C63.5131 31.4627 62.7564 31.6252 61.8618 31.6252H56.416C55.924 31.6252 55.3947 31.5403 54.8244 31.3704C54.2541 31.1968 53.7248 30.9197 53.2365 30.5356C52.7482 30.1514 52.3419 29.6491 52.0102 29.0285C51.6821 28.4117 51.5181 27.6582 51.5181 26.7717C51.5181 26.2841 51.6039 25.7559 51.779 25.187C51.9505 24.6145 52.2338 24.09 52.6215 23.6061C53.0091 23.1222 53.516 22.7159 54.1385 22.3909C54.7647 22.0658 55.5251 21.9033 56.416 21.9033H61.8618V25.2683H56.416C55.9352 25.2683 55.5587 25.4124 55.294 25.7079C55.0294 25.9997 54.8989 26.3653 54.8989 26.7975C54.8989 27.2592 55.0517 27.6175 55.3574 27.8761C55.663 28.1347 56.0246 28.2639 56.4458 28.2639H61.8618C62.3426 28.2639 62.7191 28.1199 62.9838 27.8281C63.2484 27.54 63.3789 27.178 63.3789 26.7458V21.822C63.3789 21.3603 63.2372 20.9946 62.9502 20.725C62.6632 20.4516 62.2979 20.3187 61.8618 20.3187H55.0219V16.9684H61.8618C62.3538 16.9684 62.8831 17.0534 63.4534 17.227C64.0237 17.3969 64.553 17.6739 65.0413 18.0581C65.5296 18.4422 65.9396 18.9446 66.2676 19.5651C66.5957 20.1857 66.7597 20.9355 66.7597 21.822V26.7717Z" fill="#482F51"/>
</g>
<mask id="mask25_85_1338" style="mask-type:luminance" maskUnits="userSpaceOnUse" x="1" y="8" width="150" height="33">
<path d="M151 8H1V41H151V8Z" fill="white"/>
</mask>
<g mask="url(#mask25_85_1338)">
<path d="M84.4837 26.6756C84.4837 27.0118 84.4464 27.3627 84.3681 27.732C84.2899 28.1051 84.1706 28.4708 84.0066 28.8402C83.8388 29.2058 83.6301 29.5568 83.3692 29.8892C83.1083 30.2253 82.7951 30.5208 82.4261 30.7794C82.0534 31.0343 81.6285 31.2411 81.1439 31.3962C80.663 31.5477 80.1151 31.6253 79.5038 31.6253H74.058C73.7225 31.6253 73.3647 31.5883 72.992 31.5107C72.6192 31.4332 72.2465 31.315 71.8775 31.1488C71.5084 30.9862 71.1543 30.7794 70.8151 30.5208C70.4797 30.2623 70.1815 29.952 69.9205 29.5826C69.6596 29.2169 69.4546 28.7921 69.2981 28.3083C69.1415 27.8281 69.067 27.2814 69.067 26.6756V10.7703H72.6229V26.6756C72.6229 27.1078 72.7609 27.455 73.033 27.7136C73.3088 27.9721 73.648 28.1014 74.058 28.1014H79.5038C79.9511 28.1014 80.2978 27.9684 80.5512 27.7062C80.801 27.4439 80.9277 27.1004 80.9277 26.6756V21.9033C80.9277 21.46 80.7935 21.1128 80.5289 20.8653C80.2642 20.6179 79.9213 20.4923 79.5038 20.4923H74.058V16.9684H79.5038C79.8393 16.9684 80.1971 17.0054 80.5699 17.0829C80.9426 17.1605 81.3154 17.2787 81.6844 17.4412C82.0534 17.6038 82.4075 17.8143 82.7467 18.0729C83.0822 18.3277 83.3804 18.6417 83.6338 19.0074C83.891 19.3731 84.096 19.7979 84.2526 20.2743C84.4054 20.7545 84.4837 21.2975 84.4837 21.9033V26.6756Z" fill="#482F51"/>
</g>
<mask id="mask26_85_1338" style="mask-type:luminance" maskUnits="userSpaceOnUse" x="1" y="8" width="150" height="33">
<path d="M151 8H1V41H151V8Z" fill="white"/>
</mask>
<g mask="url(#mask26_85_1338)">
<path d="M101.496 26.7717C101.496 27.2592 101.41 27.7874 101.235 28.3526C101.063 28.9177 100.78 29.4422 100.392 29.9261C100.005 30.4063 99.5016 30.8126 98.8754 31.1377C98.2491 31.4627 97.4925 31.6252 96.5979 31.6252H91.1521C90.6601 31.6252 90.1308 31.5403 89.5605 31.3704C88.9902 31.1968 88.4609 30.9197 87.9726 30.5356C87.4843 30.1514 87.078 29.6491 86.7462 29.0285C86.4182 28.4117 86.2542 27.6582 86.2542 26.7717C86.2542 26.2841 86.3399 25.7559 86.5151 25.187C86.6866 24.6145 86.9699 24.09 87.3575 23.6061C87.7452 23.1222 88.2521 22.7159 88.8746 22.3909C89.5008 22.0658 90.2612 21.9033 91.1521 21.9033H96.5979V25.2683H91.1521C90.6712 25.2683 90.2948 25.4124 90.0301 25.7079C89.7655 25.9997 89.635 26.3653 89.635 26.7975C89.635 27.2592 89.7878 27.6175 90.0935 27.8761C90.3991 28.1347 90.7607 28.2639 91.1819 28.2639H96.5979C97.0787 28.2639 97.4552 28.1199 97.7198 27.8281C97.9845 27.54 98.115 27.178 98.115 26.7458V21.822C98.115 21.3603 97.9733 20.9946 97.6863 20.725C97.3993 20.4516 97.034 20.3187 96.5979 20.3187H89.758V16.9684H96.5979C97.0899 16.9684 97.6192 17.0534 98.1895 17.227C98.7598 17.3969 99.2891 17.6739 99.7774 18.0581C100.266 18.4422 100.676 18.9446 101.004 19.5651C101.332 20.1857 101.496 20.9355 101.496 21.822V26.7717Z" fill="#482F51"/>
</g>
<mask id="mask27_85_1338" style="mask-type:luminance" maskUnits="userSpaceOnUse" x="1" y="8" width="150" height="33">
<path d="M151 8H1V41H151V8Z" fill="white"/>
</mask>
<g mask="url(#mask27_85_1338)">
<path d="M117.531 26.6756C117.531 27.2814 117.453 27.8281 117.3 28.3083C117.144 28.7921 116.939 29.2169 116.681 29.5826C116.428 29.952 116.13 30.2623 115.794 30.5208C115.455 30.7794 115.101 30.9862 114.732 31.1488C114.363 31.315 113.99 31.4332 113.61 31.5107C113.233 31.5883 112.876 31.6252 112.536 31.6252H103.878V28.1014H112.51C112.991 28.1014 113.356 27.9758 113.602 27.732C113.849 27.4882 113.975 27.1373 113.975 26.6756C113.927 25.7337 113.45 25.2646 112.536 25.2646H107.996C107.214 25.2646 106.546 25.1279 105.999 24.8583C105.451 24.5886 105.007 24.2488 104.664 23.8425C104.321 23.4362 104.075 22.9966 103.926 22.5275C103.777 22.0547 103.699 21.6189 103.699 21.2126C103.699 20.4258 103.84 19.7609 104.124 19.2253C104.407 18.686 104.761 18.2502 105.193 17.914C105.622 17.5816 106.084 17.3415 106.587 17.1901C107.091 17.0423 107.56 16.9684 107.996 16.9684H115.764V20.4923H108.023C107.84 20.4923 107.698 20.5144 107.594 20.5514C107.489 20.5957 107.411 20.6474 107.359 20.7176C107.311 20.7841 107.281 20.858 107.273 20.9318C107.262 21.0094 107.258 21.0833 107.258 21.1572C107.266 21.3012 107.296 21.4157 107.34 21.497C107.385 21.5782 107.441 21.6373 107.512 21.6706C107.579 21.7075 107.657 21.7297 107.743 21.7334C107.829 21.7371 107.914 21.7408 107.996 21.7408H112.536C113.45 21.7408 114.225 21.9033 114.862 22.2283C115.5 22.5534 116.018 22.9634 116.409 23.4547C116.801 23.9496 117.088 24.4852 117.263 25.0614C117.442 25.6414 117.531 26.177 117.531 26.6756Z" fill="#482F51"/>
</g>
<mask id="mask28_85_1338" style="mask-type:luminance" maskUnits="userSpaceOnUse" x="1" y="8" width="150" height="33">
<path d="M151 8H1V41H151V8Z" fill="white"/>
</mask>
<g mask="url(#mask28_85_1338)">
<path d="M133.049 31.6252H124.375C123.883 31.6252 123.346 31.5403 122.761 31.3667C122.176 31.1968 121.635 30.9124 121.139 30.5208C120.644 30.1256 120.226 29.6158 119.894 28.9879C119.563 28.36 119.395 27.588 119.395 26.6756V21.9033C119.395 21.5672 119.432 21.2163 119.511 20.8432C119.589 20.4738 119.708 20.1044 119.876 19.7387C120.04 19.3731 120.249 19.0222 120.509 18.6897C120.77 18.3536 121.083 18.0618 121.456 17.8069C121.825 17.5557 122.25 17.3526 122.735 17.1974C123.216 17.0423 123.764 16.9684 124.375 16.9684H133.049V20.4923H124.375C123.909 20.4923 123.559 20.6105 123.316 20.8432C123.074 21.0796 122.955 21.4416 122.955 21.9291V26.6756C122.955 27.1373 123.078 27.4882 123.324 27.732C123.57 27.9758 123.928 28.1014 124.405 28.1014H133.049V31.6252Z" fill="#482F51"/>
</g>
<mask id="mask29_85_1338" style="mask-type:luminance" maskUnits="userSpaceOnUse" x="1" y="8" width="150" height="33">
<path d="M151 8H1V41H151V8Z" fill="white"/>
</mask>
<g mask="url(#mask29_85_1338)">
<path d="M150.996 26.6756C150.996 27.2814 150.922 27.8244 150.765 28.3083C150.609 28.7921 150.404 29.2169 150.15 29.5826C149.893 29.9483 149.598 30.2623 149.259 30.5208C148.924 30.7757 148.57 30.9862 148.201 31.1488C147.832 31.3113 147.455 31.4332 147.079 31.5107C146.699 31.5846 146.341 31.6253 146.005 31.6253H140.235C139.743 31.6253 139.206 31.5403 138.621 31.3667C138.036 31.1968 137.495 30.9124 137 30.5208C136.504 30.1256 136.086 29.6158 135.755 28.9879C135.419 28.36 135.255 27.588 135.255 26.6756V21.9033C135.255 20.9983 135.419 20.2337 135.755 19.6021C136.086 18.9741 136.504 18.4644 137 18.0729C137.495 17.6776 138.036 17.3969 138.621 17.2233C139.206 17.0534 139.743 16.9647 140.235 16.9647H146.005C146.915 16.9647 147.69 17.1273 148.331 17.456C148.969 17.7811 149.483 18.1874 149.874 18.6823C150.269 19.1736 150.553 19.7092 150.732 20.2891C150.911 20.8653 150.996 21.4046 150.996 21.9033V26.6756ZM147.44 21.9291C147.44 21.4416 147.317 21.0796 147.071 20.8432C146.825 20.6105 146.467 20.4923 146.005 20.4923H140.261C139.788 20.4923 139.43 20.6105 139.184 20.8506C138.934 21.0907 138.811 21.4416 138.811 21.9033V26.6756C138.811 27.1373 138.934 27.4882 139.184 27.732C139.43 27.9758 139.788 28.0977 140.261 28.0977H146.005C146.486 28.0977 146.848 27.9758 147.086 27.732C147.321 27.4882 147.44 27.1373 147.44 26.6756V21.9291Z" fill="#482F51"/>
</g>
<mask id="mask30_85_1338" style="mask-type:luminance" maskUnits="userSpaceOnUse" x="1" y="8" width="150" height="33">
<path d="M151 8H1V41H151V8Z" fill="white"/>
</mask>
<g mask="url(#mask30_85_1338)">
<path d="M41.6739 16.9684H38.118V20.4923H41.6739V16.9684Z" fill="#482F51"/>
</g>
</g>
</g>
<defs>
<linearGradient id="paint0_linear_85_1338" x1="12.8523" y1="39.0384" x2="21.9913" y2="23.0645" gradientUnits="userSpaceOnUse">
<stop stop-color="#F7901E"/>
<stop offset="1" stop-color="#F05123"/>
</linearGradient>
<clipPath id="clip0_85_1338">
<rect width="150" height="33" fill="white" transform="translate(1 8)"/>
</clipPath>
</defs>
</svg>
