<svg width="151" height="50" viewBox="0 0 151 50" fill="none" xmlns="http://www.w3.org/2000/svg">
<g clip-path="url(#clip0_85_1435)">
<mask id="mask0_85_1435" style="mask-type:luminance" maskUnits="userSpaceOnUse" x="1" y="1" width="149" height="48">
<path d="M150 1.99686H1V48.001H150V1.99686Z" fill="white"/>
</mask>
<g mask="url(#mask0_85_1435)">
<path d="M139.7 2.29237H149.08C149.631 2.29237 150.058 2.77003 149.996 3.30946L146.698 32.1423C146.636 32.6818 146.176 33.0894 145.633 33.0894H140.844C140.202 33.0894 139.7 32.5294 139.779 31.8953L142.393 10.4168H142.166L132.425 32.1465C132.168 32.7188 131.597 33.0894 130.967 33.0894H125.925C125.196 33.0894 124.558 32.5994 124.375 31.8994L118.77 10.4168H118.542L114.917 32.5788C114.867 32.8712 114.61 33.0894 114.312 33.0894H109.216C108.847 33.0894 108.561 32.76 108.611 32.3935L112.369 6.55018C112.721 4.10832 114.83 2.29237 117.316 2.29237H122.963C123.704 2.29237 124.35 2.80297 124.52 3.52359L129.074 23.3961C129.148 23.7255 129.6 23.7667 129.736 23.4579L138.536 3.05004C138.731 2.58885 139.191 2.29237 139.7 2.29237Z" fill="#273B88"/>
</g>
<mask id="mask1_85_1435" style="mask-type:luminance" maskUnits="userSpaceOnUse" x="1" y="1" width="149" height="48">
<path d="M150 1.99686H1V48.001H150V1.99686Z" fill="white"/>
</mask>
<g mask="url(#mask1_85_1435)">
<path d="M16.5198 31.8417C16.1552 32.3688 16.5281 33.0894 17.1785 33.0894H56.4379C56.4545 33.0894 56.4752 33.0894 56.4959 33.0894C57.2707 33.0894 58.0371 33.0318 58.7953 32.9206H58.8119C66.4723 31.8088 72.9313 25.3274 73.7102 17.52C74.1287 13.3651 72.8816 9.46146 70.2052 6.52135C67.5495 3.60594 63.7959 2 59.6446 2C51.0105 2 43.2879 8.9838 42.4303 17.5653C42.1776 20.1142 42.5505 22.5684 43.4909 24.7632H50.8987C50.7744 24.6397 50.6542 24.5162 50.5382 24.3844C48.8645 22.552 48.0856 20.1142 48.3466 17.52C48.8769 12.2039 53.6621 7.87611 59.0149 7.87611C61.6043 7.87611 63.9451 8.88085 65.6064 10.705C67.2802 12.5375 68.055 14.9752 67.7981 17.5653C67.6904 18.6236 67.4211 19.6571 67.0109 20.6331C65.2336 24.8868 60.9455 27.5675 56.3136 27.5675H28.4559C28.1369 27.5675 27.9504 27.2092 28.1369 26.9498L43.3708 4.89893C43.5365 4.6601 43.6401 4.38421 43.6691 4.09596C43.7561 3.12828 42.9896 2.29236 42.0119 2.29236H19.3661C19.1879 2.29236 19.0263 2.38707 18.9393 2.53943L16.3458 7.08137C16.1552 7.40668 16.3914 7.81434 16.7684 7.81434H32.2716C32.6818 7.81434 32.9221 8.27142 32.6901 8.60496L16.5198 31.8417Z" fill="#273B88"/>
</g>
<mask id="mask2_85_1435" style="mask-type:luminance" maskUnits="userSpaceOnUse" x="1" y="1" width="149" height="48">
<path d="M150 1.99686H1V48.001H150V1.99686Z" fill="white"/>
</mask>
<g mask="url(#mask2_85_1435)">
<path d="M17.2407 12.2904L14.0961 16.9806C14.0174 17.0959 13.8848 17.1659 13.7481 17.1659H1.41844C1.087 17.1659 0.88813 16.7994 1.06628 16.5235L4.13627 11.8333C4.21498 11.7139 4.34756 11.6439 4.48842 11.6439H16.8927C17.2282 11.6439 17.4271 12.0145 17.2407 12.2904Z" fill="#F6B818"/>
</g>
<mask id="mask3_85_1435" style="mask-type:luminance" maskUnits="userSpaceOnUse" x="1" y="1" width="149" height="48">
<path d="M150 1.99686H1V48.001H150V1.99686Z" fill="white"/>
</mask>
<g mask="url(#mask3_85_1435)">
<path d="M19.0305 21.6625L15.8859 26.3527C15.8072 26.468 15.6746 26.538 15.5379 26.538H3.20823C2.87679 26.538 2.67792 26.1715 2.85608 25.8956L5.92606 21.2054C6.00478 21.086 6.13736 21.016 6.27822 21.016H18.6825C19.018 21.016 19.2169 21.3866 19.0305 21.6625Z" fill="#F6B818"/>
</g>
<mask id="mask4_85_1435" style="mask-type:luminance" maskUnits="userSpaceOnUse" x="1" y="1" width="149" height="48">
<path d="M150 1.99686H1V48.001H150V1.99686Z" fill="white"/>
</mask>
<g mask="url(#mask4_85_1435)">
<path d="M90.2906 33.3736C86.1393 33.3736 82.3899 31.7676 79.7342 28.8522C77.0578 25.9121 75.8149 22.0084 76.2292 17.8494C77.0868 9.26793 84.8135 2.28413 93.4476 2.28413C97.5989 2.28413 101.348 3.89008 104.004 6.80548C106.68 9.74148 107.928 13.6493 107.509 17.8041C106.651 26.3898 98.9289 33.3736 90.2906 33.3736ZM92.8137 8.16024C87.4609 8.16024 82.6757 12.4881 82.1454 17.8041C81.8844 20.3984 82.6633 22.8361 84.333 24.6685C85.9943 26.4927 88.3351 27.4975 90.9245 27.4975C96.2773 27.4975 101.063 23.1696 101.597 17.8494C101.854 15.2593 101.075 12.8216 99.4053 10.9851C97.7439 9.16499 95.4031 8.16024 92.8137 8.16024Z" fill="#273B88"/>
</g>
<mask id="mask5_85_1435" style="mask-type:luminance" maskUnits="userSpaceOnUse" x="1" y="1" width="149" height="48">
<path d="M150 1.99686H1V48.001H150V1.99686Z" fill="white"/>
</mask>
<g mask="url(#mask5_85_1435)">
<path d="M134.721 43.9019C134.553 43.9019 134.421 43.8432 134.324 43.7258C134.226 43.6084 134.194 43.4678 134.226 43.3039C134.258 43.14 134.346 42.9993 134.49 42.8819C134.633 42.7646 134.789 42.7059 134.957 42.7059C135.125 42.7059 135.258 42.7646 135.355 42.8819C135.452 42.9993 135.485 43.14 135.452 43.3039C135.431 43.4124 135.383 43.5121 135.308 43.6029C135.236 43.6937 135.148 43.7668 135.044 43.8222C134.942 43.8753 134.835 43.9019 134.721 43.9019Z" fill="#273B88"/>
<path d="M133.945 40.4466C133.804 41.1643 133.549 41.7845 133.18 42.3072C132.811 42.8299 132.367 43.233 131.848 43.5165C131.329 43.8 130.772 43.9418 130.177 43.9418C129.582 43.9418 129.081 43.8 128.674 43.5165C128.266 43.233 127.981 42.8299 127.819 42.3072C127.656 41.7845 127.645 41.1643 127.787 40.4466C127.928 39.729 128.183 39.1088 128.552 38.5861C128.921 38.0634 129.364 37.6603 129.884 37.3768C130.403 37.0933 130.96 36.9515 131.555 36.9515C132.15 36.9515 132.651 37.0933 133.058 37.3768C133.466 37.6603 133.751 38.0634 133.913 38.5861C134.076 39.1088 134.087 39.729 133.945 40.4466ZM133.128 40.4466C133.244 39.8575 133.241 39.3602 133.118 38.9549C132.999 38.5496 132.788 38.2428 132.486 38.0346C132.186 37.8264 131.825 37.7223 131.403 37.7223C130.98 37.7223 130.577 37.8264 130.193 38.0346C129.812 38.2428 129.48 38.5496 129.198 38.9549C128.918 39.3602 128.72 39.8575 128.604 40.4466C128.488 41.0358 128.49 41.5331 128.61 41.9384C128.732 42.3437 128.943 42.6505 129.243 42.8587C129.545 43.0669 129.907 43.171 130.329 43.171C130.752 43.171 131.154 43.0669 131.535 42.8587C131.919 42.6505 132.251 42.3437 132.531 41.9384C132.813 41.5331 133.012 41.0358 133.128 40.4466Z" fill="#273B88"/>
<path d="M126.946 39.1708H126.101C126.098 38.9339 126.051 38.7256 125.962 38.5462C125.874 38.3668 125.754 38.2162 125.601 38.0944C125.451 37.9704 125.275 37.8773 125.074 37.8153C124.872 37.7533 124.656 37.7223 124.424 37.7223C124.002 37.7223 123.599 37.8264 123.215 38.0346C122.833 38.2428 122.501 38.5496 122.219 38.9549C121.94 39.3602 121.742 39.8575 121.626 40.4466C121.51 41.0358 121.512 41.5331 121.632 41.9384C121.754 42.3437 121.965 42.6505 122.264 42.8587C122.566 43.0669 122.928 43.171 123.351 43.171C123.582 43.171 123.811 43.14 124.037 43.078C124.262 43.0159 124.475 42.924 124.673 42.8022C124.875 42.6782 125.055 42.5264 125.213 42.347C125.373 42.1654 125.502 41.9572 125.598 41.7224H126.443C126.311 42.0702 126.134 42.3814 125.911 42.656C125.689 42.9307 125.434 43.1643 125.147 43.357C124.859 43.5475 124.55 43.6926 124.219 43.7923C123.891 43.8919 123.551 43.9418 123.199 43.9418C122.604 43.9418 122.103 43.8 121.695 43.5165C121.288 43.233 121.003 42.8299 120.84 42.3072C120.677 41.7845 120.667 41.1643 120.808 40.4466C120.95 39.729 121.205 39.1088 121.573 38.5861C121.942 38.0634 122.386 37.6603 122.905 37.3768C123.424 37.0933 123.981 36.9515 124.576 36.9515C124.928 36.9515 125.249 37.0013 125.538 37.101C125.829 37.2007 126.081 37.3469 126.293 37.5396C126.505 37.73 126.668 37.9626 126.782 38.2373C126.896 38.5097 126.951 38.8209 126.946 39.1708Z" fill="#273B88"/>
<path d="M112.075 37.0445H113.042L114.351 40.2207H114.433L116.993 37.0445H117.961L114.652 41.0447L114.099 43.8488H113.255L113.807 41.0447L112.075 37.0445Z" fill="#273B88"/>
<path d="M105.432 43.8488L106.773 37.0445H109.13C109.675 37.0445 110.105 37.1353 110.419 37.317C110.733 37.4964 110.943 37.7433 111.049 38.0579C111.155 38.3724 111.169 38.7301 111.09 39.131C111.011 39.5319 110.857 39.8874 110.628 40.1975C110.398 40.5075 110.093 40.7512 109.71 40.9284C109.328 41.1034 108.867 41.1909 108.327 41.1909H106.419L106.566 40.4466H108.446C108.819 40.4466 109.129 40.3935 109.377 40.2872C109.627 40.1808 109.823 40.0302 109.963 39.8353C110.106 39.6382 110.205 39.4034 110.259 39.131C110.312 38.8585 110.307 38.6204 110.243 38.4167C110.178 38.2129 110.042 38.0556 109.835 37.9449C109.628 37.8319 109.336 37.7754 108.959 37.7754H107.474L106.277 43.8488H105.432ZM109.318 40.7922L110.433 43.8488H109.452L108.364 40.7922H109.318Z" fill="#273B88"/>
<path d="M99.6996 43.8488L101.04 37.0445H105.25L105.106 37.7754H101.741L101.288 40.0745H104.435L104.291 40.8055H101.144L100.688 43.1178H104.108L103.964 43.8488H99.6996Z" fill="#273B88"/>
<path d="M94.8444 37.0445L95.7868 42.7723H95.8685L99.0682 37.0445H99.9538L96.0516 43.8488H95.1796L93.9588 37.0445H94.8444Z" fill="#273B88"/>
<path d="M92.8646 37.0445L91.5238 43.8488H90.6791L92.0198 37.0445H92.8646Z" fill="#273B88"/>
<path d="M85.2836 43.8488L86.6243 37.0445H87.4691L86.2724 43.1178H89.5151L89.3711 43.8488H85.2836Z" fill="#273B88"/>
<path d="M79.5509 43.8488L80.8917 37.0445H85.1018L84.9577 37.7754H81.5924L81.1394 40.0745H84.2867L84.1427 40.8055H80.9953L80.5397 43.1178H83.9596L83.8155 43.8488H79.5509Z" fill="#273B88"/>
<path d="M74.8095 43.8488H72.6567L73.9974 37.0445H76.2455C76.9223 37.0445 77.4745 37.1807 77.9022 37.4532C78.3304 37.7234 78.6228 38.1121 78.7794 38.6193C78.9365 39.1243 78.9457 39.729 78.8069 40.4333C78.6673 41.1421 78.4176 41.7523 78.0579 42.264C77.6986 42.7734 77.2444 43.1655 76.6953 43.4401C76.1466 43.7125 75.5179 43.8488 74.8095 43.8488ZM73.6455 43.1178H74.899C75.4758 43.1178 75.9752 43.0093 76.3972 42.7922C76.8192 42.5752 77.1628 42.2662 77.428 41.8653C77.6932 41.4644 77.8803 40.9871 77.9894 40.4333C78.0977 39.884 78.0989 39.4112 77.993 39.0147C77.8877 38.616 77.6731 38.3104 77.3494 38.0977C77.0262 37.8829 76.592 37.7754 76.047 37.7754H74.6982L73.6455 43.1178Z" fill="#273B88"/>
<path d="M63.8235 43.8488L65.1642 37.0445H67.5214C68.0664 37.0445 68.4958 37.1353 68.8097 37.317C69.1241 37.4964 69.3343 37.7433 69.4404 38.0579C69.5464 38.3724 69.56 38.7301 69.481 39.131C69.402 39.5319 69.2479 39.8874 69.0188 40.1975C68.7896 40.5075 68.4839 40.7512 68.1015 40.9284C67.7196 41.1034 67.2584 41.1909 66.718 41.1909H64.8105L64.9571 40.4466H66.8374C67.2098 40.4466 67.52 40.3935 67.768 40.2872C68.0183 40.1808 68.2138 40.0302 68.3544 39.8353C68.4977 39.6382 68.5962 39.4034 68.6499 39.131C68.7035 38.8585 68.6982 38.6204 68.6339 38.4167C68.5696 38.2129 68.4337 38.0556 68.2262 37.9449C68.0191 37.8319 67.727 37.7754 67.3501 37.7754H65.865L64.6683 43.8488H63.8235ZM67.7094 40.7922L68.8239 43.8488H67.8429L66.7557 40.7922H67.7094Z" fill="#273B88"/>
<path d="M58.0908 43.8488L59.4315 37.0445H63.6417L63.4976 37.7754H60.1323L59.6793 40.0745H62.8266L62.6826 40.8055H59.5352L59.0796 43.1178H62.4995L62.3554 43.8488H58.0908Z" fill="#273B88"/>
<path d="M50.8981 37.0445H51.9063L53.1642 42.6926H53.2459L56.7295 37.0445H57.7378L56.3971 43.8488H55.6068L56.6255 38.6791H56.5573L53.3587 43.8488H52.5957L51.4344 38.6791H51.3662L50.3476 43.8488H49.5573L50.8981 37.0445Z" fill="#273B88"/>
<path d="M48.3664 37.0445H49.2111L48.3234 41.5497C48.2318 42.0148 48.0376 42.4301 47.7407 42.7956C47.4466 43.1588 47.0756 43.4456 46.6276 43.6561C46.1801 43.8643 45.6828 43.9684 45.1355 43.9684C44.5882 43.9684 44.1319 43.8643 43.7664 43.6561C43.4014 43.4456 43.1423 43.1588 42.989 42.7956C42.8385 42.4301 42.8091 42.0148 42.9007 41.5497L43.7884 37.0445H44.6332L43.7586 41.4832C43.6931 41.8155 43.7098 42.1111 43.8086 42.3703C43.9078 42.6272 44.0813 42.8299 44.3291 42.9783C44.5797 43.1245 44.8991 43.1976 45.2874 43.1976C45.6757 43.1976 46.0239 43.1245 46.332 42.9783C46.6406 42.8299 46.894 42.6272 47.0922 42.3703C47.2931 42.1111 47.4263 41.8155 47.4918 41.4832L48.3664 37.0445Z" fill="#273B88"/>
<path d="M41.1515 38.7456C41.1769 38.4089 41.0627 38.1476 40.8087 37.9615C40.5547 37.7754 40.2165 37.6824 39.7941 37.6824C39.4853 37.6824 39.2054 37.7312 38.9546 37.8286C38.7061 37.9261 38.5003 38.0601 38.3372 38.2306C38.1764 38.4012 38.0747 38.595 38.0319 38.812C37.9961 38.9937 38.0096 39.1498 38.0724 39.2805C38.138 39.409 38.2326 39.5164 38.3564 39.6028C38.4806 39.6869 38.6144 39.7567 38.7579 39.8121C38.9019 39.8652 39.0353 39.9084 39.1582 39.9416L39.83 40.1277C40.0025 40.1742 40.192 40.2384 40.3984 40.3204C40.607 40.4023 40.7996 40.5142 40.976 40.656C41.1552 40.7955 41.2901 40.9749 41.3809 41.1942C41.4717 41.4135 41.4856 41.6826 41.4228 42.0015C41.3503 42.3692 41.1861 42.7014 40.9301 42.9982C40.6763 43.295 40.3437 43.5309 39.9322 43.7059C39.5231 43.8809 39.0505 43.9684 38.5146 43.9684C38.015 43.9684 37.5979 43.8897 37.2633 43.7325C36.931 43.5752 36.6881 43.3559 36.5346 43.0746C36.3834 42.7933 36.3308 42.4666 36.3769 42.0945H37.2489C37.2209 42.3515 37.2676 42.5641 37.3888 42.7324C37.5128 42.8986 37.6859 43.0226 37.9082 43.1045C38.1332 43.1843 38.3842 43.2241 38.6613 43.2241C38.9837 43.2241 39.2833 43.1732 39.56 43.0713C39.8371 42.9672 40.0687 42.8232 40.2548 42.6394C40.4413 42.4534 40.559 42.2363 40.6079 41.9882C40.6524 41.7623 40.6239 41.5785 40.5224 41.4367C40.4209 41.295 40.2733 41.1798 40.0796 41.0912C39.8858 41.0026 39.6729 40.9251 39.4407 40.8586L38.6295 40.6194C38.1146 40.4666 37.7262 40.2484 37.4641 39.9649C37.2021 39.6814 37.1162 39.3104 37.2065 38.8519C37.2816 38.4709 37.4527 38.1387 37.7197 37.8552C37.9895 37.5695 38.3192 37.348 38.709 37.1907C39.1015 37.0312 39.5203 36.9515 39.9654 36.9515C40.415 36.9515 40.7992 37.0301 41.1179 37.1874C41.437 37.3424 41.6722 37.5551 41.8233 37.8253C41.9767 38.0955 42.0253 38.4023 41.969 38.7456H41.1515Z" fill="#273B88"/>
<path d="M35.9813 37.0445L34.6406 43.8488H33.8231L31.0744 38.5064H31.0063L29.9536 43.8488H29.1089L30.4496 37.0445H31.2671L34.0268 42.4002H34.0949L35.1502 37.0445H35.9813Z" fill="#273B88"/>
<path d="M28.3589 40.4466C28.2175 41.1643 27.9624 41.7845 27.5937 42.3072C27.2251 42.8299 26.7812 43.233 26.262 43.5165C25.7429 43.8 25.1859 43.9418 24.591 43.9418C23.996 43.9418 23.4948 43.8 23.0874 43.5165C22.6801 43.233 22.395 42.8299 22.2323 42.3072C22.0696 41.7845 22.059 41.1643 22.2004 40.4466C22.3418 39.729 22.5969 39.1088 22.9655 38.5861C23.3342 38.0634 23.7781 37.6603 24.2972 37.3768C24.8163 37.0933 25.3734 36.9515 25.9683 36.9515C26.5633 36.9515 27.0645 37.0933 27.4718 37.3768C27.8792 37.6603 28.1643 38.0634 28.3269 38.5861C28.4896 39.1088 28.5003 39.729 28.3589 40.4466ZM27.5414 40.4466C27.6575 39.8575 27.6544 39.3602 27.5322 38.9549C27.4122 38.5496 27.2013 38.2428 26.8994 38.0346C26.5998 37.8264 26.2388 37.7223 25.8165 37.7223C25.3941 37.7223 24.9909 37.8264 24.607 38.0346C24.2254 38.2428 23.8936 38.5496 23.6116 38.9549C23.3319 39.3602 23.134 39.8575 23.0179 40.4466C22.9018 41.0358 22.9037 41.5331 23.0237 41.9384C23.146 42.3437 23.3569 42.6505 23.6565 42.8587C23.9583 43.0669 24.3205 43.171 24.7428 43.171C25.1652 43.171 25.5672 43.0669 25.9489 42.8587C26.3328 42.6505 26.6646 42.3437 26.9443 41.9384C27.2263 41.5331 27.4253 41.0358 27.5414 40.4466Z" fill="#273B88"/>
<path d="M21.3555 39.2145H20.5186C20.5154 38.9797 20.4694 38.7734 20.3807 38.5957C20.2942 38.4179 20.1752 38.2687 20.0235 38.148C19.8745 38.0252 19.7003 37.933 19.5009 37.8716C19.3016 37.8101 19.0871 37.7794 18.8577 37.7794C18.4392 37.7794 18.0399 37.8825 17.6595 38.0888C17.2814 38.2951 16.9527 38.599 16.6734 39.0005C16.3963 39.4021 16.2002 39.8947 16.0852 40.4784C15.9702 41.062 15.9721 41.5546 16.091 41.9562C16.2121 42.3578 16.421 42.6617 16.7178 42.8679C17.0169 43.0742 17.3756 43.1773 17.7941 43.1773C18.0235 43.1773 18.25 43.1466 18.4736 43.0852C18.6972 43.0237 18.9075 42.9326 19.1045 42.812C19.3042 42.6891 19.4823 42.5388 19.6388 42.361C19.7979 42.1811 19.9252 41.9749 20.0205 41.7423H20.8574C20.7265 42.0868 20.551 42.3951 20.331 42.6671C20.1109 42.9392 19.8583 43.1707 19.5732 43.3616C19.2886 43.5503 18.9824 43.6941 18.6548 43.7928C18.3293 43.8915 17.9923 43.9409 17.6436 43.9409C17.0542 43.9409 16.5577 43.8005 16.1541 43.5196C15.7505 43.2388 15.4681 42.8394 15.307 42.3215C15.1458 41.8037 15.1353 41.1893 15.2753 40.4784C15.4154 39.7674 15.6681 39.153 16.0333 38.6352C16.3986 38.1173 16.8383 37.718 17.3526 37.4371C17.8669 37.1562 18.4187 37.0158 19.0081 37.0158C19.3568 37.0158 19.6744 37.0652 19.9609 37.1639C20.2497 37.2627 20.499 37.4075 20.7088 37.5984C20.9191 37.7871 21.0807 38.0175 21.1935 38.2896C21.3068 38.5595 21.3608 38.8678 21.3555 39.2145Z" fill="#273B88"/>
</g>
</g>
<defs>
<clipPath id="clip0_85_1435">
<rect width="149" height="46" fill="white" transform="translate(1 2)"/>
</clipPath>
</defs>
</svg>
