<?xml version="1.0" encoding="utf-8"?>
<!-- Generator: Adobe Illustrator 17.0.0, SVG Export Plug-In . SVG Version: 6.00 Build 0)  -->
<!DOCTYPE svg PUBLIC "-//W3C//DTD SVG 1.1//EN" "http://www.w3.org/Graphics/SVG/1.1/DTD/svg11.dtd">
<svg version="1.1" id="Layer_1" xmlns="http://www.w3.org/2000/svg" xmlns:xlink="http://www.w3.org/1999/xlink" x="0px" y="0px"
	 width="159.163px" height="186.264px" viewBox="0 0 159.163 186.264" enable-background="new 0 0 159.163 186.264"
	 xml:space="preserve">
<path fill="#D09D62" d="M128.278,185.271c-0.175,0.013-0.347,0.02-0.519,0.02c-30.229-0.002-91.449-0.006-91.449-0.006
	c-0.379,0-0.759,0.001-1.138,0.007c-0.094,0.001-0.188,0.002-0.282,0.002c-2.14,0-4.158-0.348-6.385-0.769
	c-1.603-0.303-3.118-0.805-4.583-1.291l-0.502-0.166l-0.135-0.101c-3.112-1.108-6.069-2.734-9.031-4.965
	c-1.661-1.251-3.236-2.674-4.681-4.23c-2.068-2.227-3.913-4.833-5.483-7.745c-0.099-0.185-0.151-0.36-0.179-0.493l-0.185-0.333
	c-0.645-1.157-1.094-2.355-1.529-3.513l-0.154-0.41c-0.692-1.83-1.21-3.851-1.632-6.36c-0.151-0.899-0.291-1.871-0.29-2.892
	c0-0.555-0.033-1.119-0.068-1.716c-0.017-0.285-0.034-0.569-0.047-0.854c-0.04-0.863,0.27-1.687,0.873-2.318
	c0.618-0.648,1.479-1.019,2.361-1.019h0.026c0.846,0.007,1.692,0.009,2.549,0.009c0.036,0,0.071,0,0.107,0
	c-0.183-0.29-0.355-0.592-0.513-0.91l-0.013-0.003l-0.346-0.699c-0.679-1.369-1.114-2.822-1.292-4.319
	c-0.08-0.667-0.112-1.329-0.099-2.022c0.054-2.744,0.798-5.222,2.216-7.391H5.634c-0.697,0-1.395,0-2.092-0.001
	c-1.987-0.004-2.866-1.045-3.254-1.917c-0.171-0.385-0.259-0.786-0.269-1.226c-0.094-4.464,0.765-9.019,2.551-13.538
	c1.402-3.545,3.382-6.822,5.888-9.741c0.348-0.406,0.706-0.796,1.052-1.173c0.147-0.16,0.295-0.321,0.441-0.483l0.358-0.396
	l0.312-0.064L10.67,102l0.335-0.354c0.833-0.866,1.743-1.592,2.622-2.294l0.133-0.106l0.161-0.125l0.773-0.576l0.144-0.113
	l0.045-0.031c0.183-0.125,0.366-0.251,0.549-0.378c0.943-0.652,1.917-1.326,3.03-1.86l0.076-0.057l0.093-0.052
	c0.739-0.414,1.617-0.886,2.59-1.281l0.137-0.103l0.673-0.249l0.102-0.076l0.195-0.079c2.329-0.945,4.785-1.653,7.299-2.105
	c1.36-0.244,2.494-0.375,3.57-0.413c2.876-0.099,5.911-0.144,9.84-0.144c1.867,0,3.733,0.01,5.6,0.02
	c1.861,0.01,3.722,0.02,5.583,0.02c0.714,0,1.427-0.002,2.141-0.005c-0.006-0.15-0.012-0.292-0.024-0.415
	c-0.073-0.754-0.14-1.508-0.207-2.263c-0.109-1.229-0.221-2.499-0.361-3.737c-0.07-0.621-0.111-1.237-0.15-1.832
	c-0.029-0.442-0.057-0.859-0.095-1.277c-0.071-0.769-0.151-1.537-0.23-2.305c-0.07-0.678-0.141-1.357-0.205-2.036
	c-0.082-0.861-0.184-1.934-0.238-2.978c-0.009-0.181-0.033-0.381-0.058-0.593c-0.006-0.048-0.011-0.096-0.017-0.145l-0.123,0
	c-0.164,0-0.328,0.001-0.492,0.002l-0.117,0.001c-2.432,0-4.675-0.832-6.666-2.473c-1.777-1.464-2.941-3.385-3.557-5.873
	c-0.117-0.473-0.175-1-0.178-1.611c-0.003-0.697-0.009-1.393-0.015-2.09c-0.018-2.131-0.037-4.334,0.024-6.513
	c0.057-2.025,0.793-3.942,2.189-5.696c1.526-1.918,3.527-3.169,5.947-3.716c1.202-0.272,2.386-0.307,3.282-0.307
	c0.197,0,0.393,0.002,0.59,0.005c0.863-1.945,1.75-3.902,2.611-5.8l0.268-0.592c0.33-0.728,0.663-1.454,0.997-2.18
	c0.307-0.667,0.613-1.335,0.917-2.003c0.372-0.818,0.74-1.637,1.109-2.456c0.672-1.492,1.367-3.035,2.068-4.549
	c0.954-2.06,2.197-3.559,3.798-4.582l0.167-0.126l0.115-0.061c0.08-0.043,0.184-0.11,0.294-0.181
	c0.317-0.205,0.723-0.468,1.256-0.616l0.086-0.063l0.616-0.161l0.183-0.073c1.168-0.463,2.308-0.502,3.376-0.502l18.303,0
	c-0.215-0.87-0.429-1.739-0.643-2.609c-0.791-3.214-1.609-6.537-2.46-9.786c-0.49-1.87-2.003-2.99-4.048-2.995
	C80.799,6.444,76.927,6.44,73.056,6.44c-5.037,0-10.072,0.006-15.109,0.012c-1.357,0-2.383-0.569-3.056-1.692
	c-0.512-0.856-0.513-2.002-0.001-2.993c0.522-1.009,1.473-1.662,2.546-1.745c0.176-0.014,0.337-0.015,0.47-0.015l0.222,0.001
	c2.492,0,4.985-0.002,7.477-0.004C68.166,0.002,70.728,0,73.289,0c4.418,0,8.024,0.006,11.347,0.018
	c3.991,0.015,7.188,1.827,9.246,5.241c0.771,1.28,1.096,2.615,1.41,3.907c0.042,0.175,0.085,0.349,0.128,0.523
	c0.92,3.675,1.981,7.921,3.019,12.162c4.396-0.005,8.79-0.005,13.185-0.006c5.812-0.001,11.624-0.001,17.436-0.011h0.025
	c2.336,0,4.319,0.557,6.061,1.703c1.21,0.796,2.118,1.678,2.776,2.696l0.343,0.53c0.486,0.608,0.754,1.27,0.973,1.811
	c0.085,0.209,0.165,0.406,0.248,0.58c0.576,1.202,1.124,2.43,1.654,3.618c0.174,0.39,0.348,0.78,0.523,1.169
	c0.103,0.23,0.154,0.438,0.187,0.576c0.006,0.025,0.012,0.05,0.019,0.075l0.067,0.237c0.296,0.345,0.483,0.763,0.545,1.221
	c0.309,0.35,0.503,0.777,0.566,1.246c0.309,0.35,0.503,0.777,0.566,1.246c0.309,0.35,0.503,0.777,0.566,1.246
	c0.309,0.35,0.503,0.777,0.566,1.246c0.309,0.35,0.503,0.777,0.566,1.246c0.309,0.35,0.503,0.777,0.566,1.246
	c0.309,0.35,0.503,0.777,0.566,1.246c0.258,0.293,0.437,0.64,0.525,1.02c0.094-0.002,0.188-0.004,0.281-0.006
	c0.26-0.006,0.521-0.011,0.782-0.011c0.491,0,1.144,0.016,1.84,0.143l0.503,0.092l1.257,0.078l0.039,0.208
	c0.728,0.185,1.36,0.449,1.928,0.807l0.126-0.067l0.844,0.664l1.835,1.467l-0.01,0.09c0.155,0.175,0.255,0.343,0.321,0.455
	l0.951,0.95l-0.124,0.156c0.108,0.221,0.184,0.459,0.228,0.712l0.042,0.243l0.876,0.62l-0.195,0.458
	c0.173,0.35,0.23,0.762,0.15,1.19l-0.003,0.019l0.294,0.174l0.072,0.838c0.208,2.442,0.165,4.886,0.123,7.25l-0.013,0.745
	c-0.029,1.76-0.203,3.613-1.211,5.325l0.028,0.053l-0.528,0.818l-0.579,0.875l-0.044,0.004c-0.267,0.385-0.579,0.66-0.811,0.863
	c-0.11,0.096-0.213,0.188-0.268,0.251l-0.565,0.658l-0.127-0.015l-1.547,0.971c-0.334,0.206-0.77,0.42-1.322,0.484l-0.87,0.1
	l-0.029,0.167l-0.993,0.279c-0.548,0.154-1.06,0.172-1.396,0.172c-0.179,0-0.358-0.006-0.537-0.012
	c-0.139-0.005-0.278-0.01-0.417-0.01c-0.027,0.341-0.07,0.667-0.11,0.973c-0.051,0.382-0.098,0.743-0.108,1.075l-0.028,1.032
	l-0.085,0.038l0.001,1.082l-0.113,0.05l0.003,1.084l-0.105,0.046c-0.016,0.488-0.077,0.947-0.133,1.369
	c-0.051,0.382-0.098,0.743-0.107,1.075l-0.028,1.032l-0.085,0.037l0.001,1.082l-0.113,0.05l0.002,1.085l-0.104,0.045
	c-0.016,0.488-0.077,0.947-0.133,1.369c-0.051,0.382-0.098,0.744-0.107,1.075l-0.028,1.032l-0.085,0.038v1.082l-0.112,0.05
	l0.002,1.086l-0.103,0.045c-0.016,0.488-0.077,0.947-0.133,1.369c-0.051,0.382-0.098,0.743-0.108,1.075l-0.028,1.032l-0.085,0.038
	l0.001,1.082l-0.113,0.05l0.002,1.085l-0.104,0.045c-0.016,0.488-0.077,0.947-0.133,1.369c-0.051,0.382-0.098,0.743-0.107,1.075
	l-0.028,1.032l-0.085,0.038v1.082l-0.112,0.05l0.002,1.085l-0.103,0.046c-0.016,0.488-0.077,0.947-0.133,1.37
	c-0.051,0.382-0.098,0.743-0.108,1.075l-0.028,1.032l-0.085,0.037l0.001,1.082l-0.113,0.05l0.003,1.085l-0.105,0.046
	c-0.016,0.488-0.077,0.947-0.133,1.37c-0.051,0.382-0.098,0.743-0.108,1.075l-0.028,1.031l-0.085,0.038l0.001,1.082l-0.113,0.05
	l0.002,1.086l-0.104,0.045c-0.016,0.487-0.077,0.946-0.133,1.368c-0.051,0.382-0.098,0.743-0.107,1.075l-0.028,1.033l-0.085,0.038
	v1.082l-0.112,0.05l0.002,1.085l-0.103,0.045c-0.016,0.488-0.077,0.946-0.133,1.369c-0.051,0.382-0.099,0.743-0.108,1.075
	l-0.028,1.032l-0.085,0.038l0.001,1.083l-0.113,0.05l0.002,1.085l-0.103,0.045c-0.016,0.488-0.077,0.947-0.133,1.369
	c-0.051,0.382-0.098,0.743-0.108,1.075l-0.028,1.032l-0.085,0.038v1.083l-0.112,0.05l0.002,1.086l-0.103,0.045
	c-0.016,0.487-0.077,0.946-0.133,1.368c-0.051,0.383-0.099,0.744-0.108,1.076l-0.028,1.032l-0.085,0.038l0.001,1.082l-0.113,0.05
	l0.003,1.085l-0.105,0.046c-0.016,0.488-0.077,0.947-0.133,1.369c-0.051,0.382-0.098,0.743-0.108,1.075l-0.028,1.032l-0.085,0.038
	l0.001,1.082l-0.113,0.05l0.002,1.163l-0.106,0.039c-0.019,0.461-0.077,0.896-0.13,1.298c-0.051,0.382-0.098,0.743-0.107,1.075
	l-0.028,1.032l-0.085,0.038v1.082l-0.112,0.05l0.002,1.085l-0.119,0.052c-0.024,0.694-0.106,1.359-0.186,2.008
	c-0.039,0.315-0.078,0.63-0.109,0.946c-0.041,0.417-0.08,0.833-0.118,1.25c-0.046,0.496-0.092,0.992-0.141,1.487
	c-0.065,0.641-0.132,1.282-0.199,1.922c-0.081,0.769-0.161,1.537-0.237,2.306c-0.043,0.44-0.08,0.881-0.117,1.322
	c-0.04,0.472-0.08,0.945-0.126,1.417c-0.05,0.504-0.107,1.008-0.163,1.512c-0.097,0.863-0.196,1.754-0.259,2.618
	c-0.063,0.866-0.15,1.732-0.235,2.569l-0.021,0.214c-0.065,0.65-0.133,1.3-0.2,1.95c-0.08,0.778-0.161,1.556-0.238,2.334
	l-0.04,0.395c-0.075,0.749-0.146,1.457-0.192,2.172c-0.174,2.711-1.133,4.983-2.85,6.751c-0.896,0.922-2.154,2.052-3.951,2.618
	l-0.278,0.087l-0.008,0.053l-0.348,0.102l-2.095,1.475L128.278,185.271z M101.203,178.847c8.444,0,16.887,0.001,25.331,0.008
	c0.993,0,1.75-0.048,2.42-0.274l0.058-0.044l0.145-0.07c1.311-0.631,2.051-1.543,2.263-2.787c0.211-1.239,0.328-2.489,0.451-3.811
	c0.034-0.366,0.068-0.732,0.104-1.097c0.085-0.854,0.159-1.729,0.232-2.576c0.073-0.862,0.149-1.753,0.237-2.633
	c0.122-1.228,0.252-2.456,0.383-3.683c0.133-1.249,0.266-2.499,0.39-3.749c0.104-1.057,0.2-2.138,0.292-3.183
	c0.092-1.048,0.188-2.132,0.294-3.2c0.137-1.389,0.284-2.777,0.432-4.164c0.116-1.091,0.232-2.183,0.343-3.274
	c0.158-1.558,0.309-3.117,0.459-4.676c0.075-0.77,0.149-1.54,0.224-2.31c0.159-1.625,0.729-7.434,0.729-7.434
	c0.172-1.755,0.344-3.51,0.518-5.265c0,0,0.557-5.607,0.671-6.77c0.265-2.689,0.529-5.377,0.792-8.066c0,0,0.659-6.761,0.798-8.179
	c0.262-2.67,0.525-5.341,0.788-8.011l0.594-6.019l-0.024-0.005l0.145-1.498l0.213-2.009l-0.065-0.012l0.145-1.126l-0.028-0.005
	l0.204-1.609l0.098-1.014l0.213-2.011l-0.064-0.012l0.144-1.125l-0.028-0.005l0.194-1.537l0.039-0.286l0.068-0.783
	c0.014-0.146,0.025-0.292,0.037-0.438c0.001-0.013,0.002-0.026,0.003-0.039c0,0-18.19,0-23.41,0.001l-0.186,0.001
	c-0.358,0-1.196,0-1.939-0.623l-0.618-0.518l0.01-0.235l-0.388-0.146l-0.225-0.792c-0.445-1.563,0.127-2.921,1.57-3.727l0.523-0.292
	l0.041-0.067l0.083-0.002l0.182-0.102l0.154,0.093l0.694-0.018c0.183-0.006,0.366-0.011,0.548-0.011c0,0,23.576-0.001,29.863-0.002
	c0.086,0,0.17,0.001,0.254,0.003c0.066,0.001,0.132,0.002,0.198,0.002c0.202,0,0.26-0.014,0.273-0.018l0.886-0.287l0.034,0.03
	l0.031-0.261l0.898-0.167l0.19-0.137c0.51-0.368,0.911-0.913,1.383-1.883l0.078-0.288l0.048-0.428
	c0.011-0.094,0.026-0.188,0.04-0.282c0.013-0.087,0.032-0.206,0.032-0.247c0.006-2.487,0.006-5.009,0-7.496
	c0-0.041-0.019-0.16-0.032-0.247c-0.015-0.094-0.029-0.188-0.04-0.282l-0.043-0.353l-0.164-0.543l-0.298-0.571l-0.011-0.015
	c-0.586-0.8-1.237-1.332-1.988-1.627l-0.268-0.105c-0.144-0.015-0.359-0.046-0.601-0.136c-0.06,0.003-0.119,0.006-0.179,0.006
	l-4.91,0c-29.964-0.001-59.928-0.001-89.892-0.007c-0.765,0-1.281,0.075-1.727,0.252l-0.156,0.062l-0.156,0.093
	c-0.66,0.395-1.077,0.754-1.351,1.163c-0.541,0.808-0.777,1.366-0.786,1.864c-0.035,1.899-0.027,3.84-0.019,5.717
	c0.004,0.857,0.007,1.713,0.007,2.57c0,0.184,0.071,0.445,0.145,0.723c0.442,1.639,2.239,2.923,4.092,2.923l0.028,0
	c3.963-0.026,8.312-0.038,13.688-0.038c2.738,0,5.475,0.003,8.213,0.006c2.736,0.003,5.473,0.006,8.209,0.006
	c0.033,0,0.066-0.002,0.098-0.003c0.073-0.003,0.145-0.005,0.218-0.005c0.156,0,0.298,0.01,0.435,0.031
	c0.492,0.074,1.664,0.249,2.369,1.265l0.144,0.024l0.33,0.946c0.042,0.13,0.077,0.26,0.103,0.39l0.115,0.339l-0.06,0.058
	c0.058,0.733-0.135,1.448-0.565,2.041c-0.622,0.859-1.653,1.352-2.828,1.352c-4.203,0.001-23.523,0.001-23.523,0.001
	c0.018,0.195,1.112,12.228,1.112,12.228c0.05,0.545,0.1,1.091,0.151,1.636c0.114,1.218,0.23,2.469,0.332,3.719
	c0.099,0,0.199,0,0.298,0c0.68,0,1.36-0.007,2.04-0.014c0.692-0.007,1.383-0.014,2.074-0.014c1.415,0,3.281,0.027,5.164,0.237
	c1.732,0.193,3.254,0.448,4.655,0.781c3.258,0.773,6.418,2.034,9.392,3.747c3.157,1.818,5.981,4.057,8.395,6.655
	c1.747,1.88,3.27,3.892,4.528,5.977c0.7,1.162,1.367,2.313,1.833,3.615l0.26,0.492c0.357,0.676,0.662,1.433,0.931,2.316l0.12,0.392
	l-0.046,0.232l0.14,0.127l0.146,0.327c0.249,0.569,0.434,1.181,0.564,1.865l0.075,0.259l0.033,0.11
	c0.036,0.115,0.08,0.259,0.117,0.423c0.642,2.882,0.958,5.544,0.964,8.139c0.005,1.919-1.362,3.394-3.18,3.431
	c-0.906,0.019-1.821,0.027-2.717,0.033c0.586,0.892,1.032,1.798,1.353,2.745l0.02,0.009l0.224,0.703
	c0.612,1.925,0.797,3.927,0.549,5.949c-0.265,2.16-0.974,4.115-2.158,5.942h0.126c0.797,0,1.59,0.001,2.383,0.006
	c2.085,0.011,3.387,1.312,3.399,3.393c0.007,1.306-0.071,2.66-0.238,4.139c-0.45,3.985-1.587,7.848-3.379,11.48
	c-2.116,4.29-4.97,8.015-8.482,11.073c-1.078,0.939-2.208,1.82-3.38,2.636L101.203,178.847z M9.993,163.475
	c0.866,1.398,1.847,2.975,2.968,4.381c1.422,1.785,3.078,3.413,4.921,4.841c2.213,1.715,4.666,3.106,7.29,4.135
	c3.385,1.328,6.506,1.979,9.542,1.99c6.421,0.023,12.708,0.026,18.011,0.026l15.015-0.003c1.029,0,2.132-0.01,3.226-0.087
	c1.424-0.1,2.964-0.345,4.707-0.751c1.526-0.355,3.035-0.905,4.448-1.456l0.105-0.079l1.123-0.473l0.176-0.133l0.137-0.045
	l0.093-0.07l0.135-0.044l0.092-0.069l0.154-0.051l1.088-0.569l0.055-0.041l0.17-0.114c0.131-0.088,0.262-0.176,0.397-0.257
	c1.696-1.013,3.259-2.183,4.647-3.477c1.857-1.731,3.323-3.407,4.482-5.125c1.175-1.74,1.988-3.204,2.561-4.605l0.111-0.272
	l0.083-0.09c0.438-1.105,0.854-2.191,1.184-3.277c0.477-1.566,0.818-3.279,1.034-5.198H6.588c0.035,0.305,0.078,0.612,0.128,0.922
	c0.108,0.671,0.233,1.359,0.355,2.024c0.028,0.152,0.055,0.304,0.083,0.456l0.15,0.551l0.485,1.871l1.09,2.871L9.993,163.475z
	 M10.396,140.772c0.051,0.093,0.114,0.216,0.17,0.365c0.538,1.443,1.437,2.613,2.748,3.579c1.242,0.915,2.451,1.38,3.593,1.381
	c15.688,0.022,31.349,0.025,43.239,0.025c6.049,0,26.729-0.003,26.729-0.003c0.311,0,0.567-0.003,0.796-0.034
	c1.751-0.244,3.22-0.941,4.49-2.13l0.191-0.18c0.075-0.093,0.151-0.185,0.228-0.277c0.142-0.171,0.276-0.333,0.388-0.487
	c0.958-1.314,1.458-2.76,1.531-4.423c0.051-1.18-0.315-2.354-0.727-3.552l-0.013-0.038l-0.01-0.013
	c-0.131-0.188-0.258-0.379-0.384-0.571c-0.29-0.44-0.564-0.855-0.869-1.17c-1.604-1.658-3.541-2.464-5.921-2.464
	c-10.986,0.004-21.97,0.005-32.953,0.005c-11.878,0-23.754-0.002-35.632-0.003l-0.007-1.633v1.633c-0.51,0-1.172,0.017-1.767,0.148
	c-1.859,0.41-3.294,1.274-4.388,2.641c-1.096,1.371-1.669,2.92-1.751,4.737c-0.035,0.773,0.141,1.61,0.312,2.421L10.396,140.772z
	 M97.934,124.283c-0.003-0.076-0.007-0.145-0.014-0.205c-0.216-1.875-0.603-3.725-1.152-5.5c-0.314-1.015-0.725-2.001-1.161-3.044
	c-0.111-0.266-0.222-0.532-0.331-0.799l-0.186-0.453l-0.1-0.144l-0.02-0.027c-0.056-0.075-0.15-0.201-0.237-0.368
	c-1.155-2.187-2.607-4.247-4.316-6.124c-1.144-1.256-2.383-2.392-3.682-3.378c-2.225-1.688-4.45-2.978-6.801-3.944
	c-0.741-0.304-1.503-0.558-2.309-0.826c-0.466-0.155-0.948-0.315-1.428-0.487l-0.167-0.06l-0.031,0.018l-0.612-0.131
	c-2.309-0.495-4.569-0.746-6.715-0.746l-0.171,0c-1.673,0.01-3.347,0.014-5.02,0.014c-2.648,0-5.296-0.01-7.944-0.02
	c-2.643-0.01-5.287-0.019-7.93-0.019c-5.524,0-9.787,0.043-13.822,0.141c-0.979,0.023-1.964,0.183-3.006,0.351l-0.272,0.044
	c-0.503,0.081-1.013,0.207-1.553,0.34c-0.566,0.14-1.151,0.285-1.768,0.386l-0.23,0.038l-0.231-0.028
	c-0.034-0.004-0.065-0.006-0.093-0.006c-0.073,0-0.076,0.003-0.117,0.047l-0.246,0.262l-3.468,1.397l-0.148-0.045
	c-0.423,0.558-0.973,0.79-1.331,0.917c-0.283,0.251-0.574,0.376-0.731,0.444l-0.116,0.089l-0.079,0.048
	c-1.654,0.997-3.219,2.202-4.785,3.686c-1.891,1.791-3.541,3.838-4.903,6.083c-1.424,2.345-2.496,4.83-3.186,7.385
	c-0.472,1.748-0.763,3.254-0.899,4.663H97.934z M99.468,45.787c13.494,0,26.986-0.001,40.48-0.002l-0.354-0.842l-0.129-0.322
	l-0.05-0.005l-0.387-0.917l-0.129-0.323l-0.051-0.005l-0.386-0.919l-0.129-0.323l-0.05-0.005l-0.386-0.917l-0.206-0.514
	l-0.316-0.611l-0.849-1.709l0.034-0.036l-1.114-2.241l0.124-0.016c-0.129-0.225-0.28-0.519-0.369-0.886
	c-0.344-0.608-0.611-1.218-0.87-1.809c-0.116-0.264-0.231-0.528-0.353-0.789c-0.138-0.294-0.262-0.587-0.383-0.869
	c-0.244-0.572-0.474-1.112-0.76-1.547c-0.854-1.298-2.006-1.902-3.624-1.902c-9.662,0.004-19.323,0.006-28.982,0.006
	c-8.876,0-17.751-0.001-26.628-0.003c-1.977,0-3.213,0.776-4.009,2.518c-0.332,0.726-0.668,1.451-1.003,2.175
	c-0.375,0.808-0.749,1.617-1.118,2.427c-0.78,1.713-1.558,3.427-2.336,5.141c-0.794,1.748-1.587,3.497-2.383,5.244
	C74.99,45.786,87.23,45.787,99.468,45.787z"/>
<path fill="#D09D62" d="M9.878,102.793c0.361-0.459,0.778-0.878,1.274-1.282l3.501-2.845l-0.868,4.427
	c-0.239,1.216-1.075,2.058-2.294,2.309l-4.373,0.9L9.878,102.793z"/>
<path fill="#D09D62" d="M136.793,29.501c-0.477,0-0.928-0.2-1.27-0.564l-0.029-0.03c-1.061-1.082-0.745-2.229-0.153-2.882
	l1.106-1.22l1.211,1.116c0.451,0.416,0.735,0.899,0.842,1.435l0.082,0.41l-0.12,0.383C138.183,29.149,137.39,29.501,136.793,29.501z
	"/>
<path fill="#D09D62" d="M143.091,43.655c-0.927-0.224-1.332-0.811-1.491-1.141c-0.197-0.409-0.349-1.076,0.048-1.932l1.095-2.362
	l1.65,2.014c0.442,0.54,0.682,1.129,0.714,1.752l0.111,2.185L143.091,43.655z"/>
<path fill="#D09D62" d="M140.259,37.425c-0.927-0.224-1.332-0.811-1.491-1.141c-0.197-0.409-0.349-1.076,0.048-1.932l1.095-2.362
	l1.65,2.014c0.442,0.54,0.682,1.129,0.714,1.752l0.111,2.185L140.259,37.425z"/>
<path fill="#D09D62" d="M140.826,38.671c-0.927-0.224-1.332-0.811-1.492-1.141c-0.197-0.409-0.349-1.076,0.048-1.932l1.095-2.363
	l1.65,2.015c0.441,0.539,0.682,1.128,0.714,1.75l0.113,2.186L140.826,38.671z"/>
<path fill="#D09D62" d="M141.392,39.917c-0.926-0.224-1.332-0.811-1.491-1.141c-0.197-0.409-0.35-1.075,0.047-1.932l1.094-2.363
	l1.651,2.014c0.442,0.54,0.683,1.129,0.714,1.752l0.111,2.185L141.392,39.917z"/>
<path fill="#D09D62" d="M141.958,41.163c-0.927-0.224-1.332-0.811-1.491-1.141c-0.197-0.409-0.349-1.076,0.048-1.932l1.095-2.362
	l1.65,2.014c0.442,0.54,0.682,1.129,0.714,1.752l0.111,2.185L141.958,41.163z"/>
<path fill="#D09D62" d="M144.79,47.393c-0.927-0.224-1.332-0.811-1.491-1.141c-0.197-0.409-0.349-1.076,0.048-1.932l1.095-2.362
	l1.65,2.014c0.442,0.54,0.682,1.129,0.714,1.752l0.111,2.185L144.79,47.393z"/>
<path fill="#D09D62" d="M145.357,48.639c-0.927-0.224-1.332-0.811-1.492-1.141c-0.197-0.409-0.35-1.075,0.047-1.932l1.094-2.363
	l1.651,2.014c0.442,0.539,0.682,1.128,0.715,1.751l0.113,2.186L145.357,48.639z"/>
<path fill="#D09D62" d="M143.657,44.901c-0.927-0.224-1.332-0.811-1.491-1.141c-0.197-0.409-0.349-1.076,0.048-1.932l1.095-2.363
	l1.65,2.015c0.441,0.539,0.682,1.128,0.714,1.75l0.113,2.187L143.657,44.901z"/>
<path fill="#D09D62" d="M144.223,46.147c-0.926-0.224-1.332-0.811-1.491-1.141c-0.197-0.409-0.35-1.075,0.047-1.932l1.094-2.363
	l1.651,2.014c0.442,0.54,0.683,1.129,0.714,1.752l0.111,2.185L144.223,46.147z"/>
<path fill="#D09D62" d="M142.525,42.409c-0.927-0.224-1.332-0.811-1.492-1.141c-0.197-0.409-0.35-1.075,0.047-1.932l1.094-2.363
	l1.651,2.014c0.442,0.539,0.682,1.128,0.715,1.751l0.113,2.186L142.525,42.409z"/>
<path fill="#D09D62" d="M70.353,25.907c-0.953,0-1.711-0.716-1.804-1.703l-0.097-1.033l0.894-0.527
	c0.246-0.145,0.704-0.415,1.345-0.415c0.067,0,0.135,0.003,0.204,0.009l1.322,0.122l0.151,1.319
	c0.116,1.012-0.489,1.879-1.505,2.158C70.694,25.883,70.522,25.907,70.353,25.907z"/>
<path fill="#D09D62" d="M128.33,182.545c0.43-0.782,1.175-1.231,2.045-1.231c0.231,0,0.471,0.033,0.714,0.097l3.473,0.924
	l-2.98,2.009c-0.415,0.279-0.82,0.396-1.116,0.48c-0.062,0.018-0.123,0.035-0.184,0.055l-3.963,1.331L128.33,182.545z"/>
<path fill="#D09D62" d="M4.252,166.149c-0.336-0.392-0.568-0.852-0.69-1.367l-0.724-3.059l2.919,1.166
	c1.167,0.466,1.69,1.599,1.27,2.755l-0.955,2.631L4.252,166.149z"/>
<path fill="#D09D62" d="M139.855,129.798c-0.785-0.593-0.887-1.265-0.834-1.724c0.117-1.014,0.986-1.398,1.271-1.524l1.716-0.76
	l0.515,1.805c0.106,0.371,0.198,1.109-0.375,1.877l-0.983,1.316L139.855,129.798z"/>
<path fill="#D09D62" d="M139.742,130.931c-0.786-0.593-0.888-1.265-0.835-1.724c0.117-1.014,0.985-1.399,1.271-1.525l1.716-0.76
	l0.515,1.805c0.106,0.371,0.198,1.109-0.375,1.877l-0.982,1.316L139.742,130.931z"/>
<path fill="#D09D62" d="M139.628,132.063c-0.786-0.595-0.887-1.267-0.833-1.727c0.119-1.015,0.99-1.397,1.276-1.523l1.693-0.743
	l0.529,1.772c0.111,0.37,0.21,1.108-0.365,1.888l-0.981,1.332L139.628,132.063z"/>
<path fill="#D09D62" d="M139.289,135.575c-0.786-0.593-0.888-1.265-0.835-1.724c0.117-1.014,0.986-1.399,1.271-1.525l1.716-0.759
	l0.515,1.805c0.106,0.372,0.198,1.11-0.377,1.879l-0.982,1.313L139.289,135.575z"/>
<path fill="#D09D62" d="M139.176,136.708c-0.786-0.593-0.888-1.265-0.835-1.724c0.117-1.014,0.986-1.399,1.271-1.525l1.716-0.759
	l0.515,1.805c0.106,0.371,0.198,1.109-0.376,1.877l-0.982,1.316L139.176,136.708z"/>
<path fill="#D09D62" d="M139.061,137.839c-0.786-0.595-0.886-1.268-0.832-1.727c0.119-1.015,0.99-1.397,1.276-1.523l1.693-0.743
	l0.529,1.772c0.11,0.37,0.21,1.108-0.365,1.888l-0.982,1.332L139.061,137.839z"/>
<path fill="#D09D62" d="M138.723,141.352c-0.786-0.593-0.888-1.265-0.835-1.724c0.117-1.014,0.985-1.399,1.271-1.525l1.716-0.76
	l0.515,1.805c0.106,0.371,0.198,1.109-0.375,1.877l-0.982,1.316L138.723,141.352z"/>
<path fill="#D09D62" d="M138.609,142.485c-0.785-0.593-0.887-1.265-0.834-1.724c0.117-1.014,0.986-1.398,1.271-1.525l1.716-0.76
	l0.515,1.805c0.106,0.372,0.198,1.11-0.377,1.879l-0.983,1.314L138.609,142.485z"/>
<path fill="#D09D62" d="M138.613,143.698c-0.955-0.598-1.023-1.386-0.978-1.802c0.078-0.733,0.542-1.258,1.377-1.56l1.653-0.601
	l0.495,1.66c0.111,0.37,0.21,1.108-0.366,1.889l-0.898,1.217L138.613,143.698z"/>
<path fill="#D09D62" d="M5.621,145.536c-0.359-0.417-0.597-0.888-0.707-1.4l-0.538-2.495l2.491,0.556
	c0.486,0.109,1.618,0.538,1.625,2.171l0.001,0.06l0.12,4.585L5.621,145.536z"/>
<path fill="#D09D62" d="M138.157,147.129c-0.786-0.593-0.888-1.265-0.835-1.724c0.117-1.014,0.986-1.399,1.271-1.525l1.716-0.759
	l0.515,1.805c0.106,0.371,0.198,1.109-0.375,1.877l-0.982,1.316L138.157,147.129z"/>
<path fill="#D09D62" d="M138.043,148.262c-0.786-0.593-0.888-1.265-0.835-1.724c0.117-1.014,0.985-1.399,1.271-1.525l1.716-0.76
	l0.515,1.805c0.106,0.372,0.198,1.11-0.376,1.878l-0.982,1.314L138.043,148.262z"/>
<path fill="#D09D62" d="M137.929,149.394c-0.786-0.594-0.887-1.267-0.833-1.726c0.119-1.015,0.989-1.398,1.275-1.524l1.694-0.745
	l0.529,1.774c0.11,0.37,0.21,1.108-0.366,1.888l-0.981,1.329L137.929,149.394z"/>
<path fill="#D09D62" d="M145.291,74.296c-0.786-0.594-0.887-1.267-0.833-1.727c0.119-1.015,0.99-1.398,1.276-1.523l1.694-0.744
	l0.528,1.773c0.111,0.37,0.21,1.108-0.365,1.887l-0.981,1.331L145.291,74.296z"/>
<path fill="#D09D62" d="M144.952,77.808c-0.786-0.593-0.887-1.265-0.834-1.724c0.117-1.014,0.986-1.398,1.271-1.525l1.717-0.76
	l0.515,1.806c0.106,0.372,0.198,1.111-0.377,1.879l-0.983,1.312L144.952,77.808z"/>
<path fill="#D09D62" d="M144.839,78.941c-0.786-0.593-0.888-1.265-0.835-1.724c0.117-1.014,0.986-1.399,1.271-1.525l1.716-0.759
	l0.515,1.805c0.106,0.372,0.198,1.111-0.377,1.879l-0.983,1.312L144.839,78.941z"/>
<path fill="#D09D62" d="M144.725,80.073c-0.786-0.594-0.887-1.267-0.833-1.726c0.119-1.015,0.99-1.398,1.276-1.523l1.694-0.744
	l0.528,1.773c0.11,0.37,0.21,1.107-0.365,1.887l-0.981,1.331L144.725,80.073z"/>
<path fill="#D09D62" d="M144.386,83.585c-0.786-0.593-0.888-1.265-0.835-1.724c0.117-1.014,0.985-1.399,1.271-1.525l1.716-0.76
	l0.515,1.805c0.106,0.372,0.198,1.11-0.376,1.877l-0.982,1.315L144.386,83.585z"/>
<path fill="#D09D62" d="M144.272,84.718c-0.785-0.593-0.887-1.265-0.834-1.724c0.117-1.014,0.985-1.398,1.271-1.525l1.717-0.76
	l0.515,1.805c0.106,0.372,0.198,1.11-0.377,1.879l-0.983,1.313L144.272,84.718z"/>
<path fill="#D09D62" d="M144.158,85.849c-0.786-0.595-0.886-1.267-0.832-1.726c0.119-1.015,0.99-1.397,1.276-1.523l1.694-0.744
	l0.528,1.773c0.111,0.371,0.21,1.109-0.367,1.889l-0.982,1.328L144.158,85.849z"/>
<path fill="#D09D62" d="M143.82,89.362c-0.786-0.593-0.888-1.265-0.835-1.724c0.117-1.014,0.986-1.399,1.271-1.525l1.718-0.76
	l0.513,1.808c0.105,0.371,0.197,1.109-0.376,1.876l-0.982,1.315L143.82,89.362z"/>
<path fill="#D09D62" d="M143.706,90.494c-0.785-0.593-0.887-1.265-0.834-1.724c0.117-1.014,0.985-1.398,1.27-1.525l1.717-0.76
	l0.515,1.806c0.106,0.371,0.198,1.109-0.375,1.877l-0.982,1.316L143.706,90.494z"/>
<path fill="#D09D62" d="M143.592,91.626c-0.786-0.594-0.887-1.267-0.833-1.727c0.119-1.015,0.99-1.398,1.276-1.523l1.693-0.744
	l0.529,1.772c0.111,0.37,0.21,1.108-0.365,1.888l-0.981,1.33L143.592,91.626z"/>
<path fill="#D09D62" d="M143.254,95.138c-0.786-0.593-0.888-1.265-0.835-1.724c0.117-1.014,0.986-1.399,1.271-1.525l1.716-0.759
	l0.515,1.805c0.106,0.372,0.198,1.111-0.377,1.88l-0.983,1.311L143.254,95.138z"/>
<path fill="#D09D62" d="M143.14,96.271c-0.786-0.593-0.888-1.265-0.835-1.724c0.117-1.014,0.986-1.399,1.271-1.525l1.716-0.759
	l0.515,1.805c0.106,0.372,0.198,1.111-0.377,1.88l-0.983,1.311L143.14,96.271z"/>
<path fill="#D09D62" d="M143.025,97.403c-0.785-0.595-0.886-1.267-0.832-1.726c0.119-1.015,0.99-1.397,1.276-1.523l1.694-0.745
	l0.528,1.774c0.11,0.37,0.209,1.107-0.365,1.887l-0.982,1.332L143.025,97.403z"/>
<path fill="#D09D62" d="M142.687,100.915c-0.786-0.593-0.888-1.265-0.835-1.724c0.117-1.014,0.985-1.399,1.271-1.525l1.716-0.76
	l0.515,1.805c0.106,0.372,0.198,1.11-0.376,1.878l-0.982,1.314L142.687,100.915z"/>
<path fill="#D09D62" d="M142.573,102.048c-0.785-0.593-0.887-1.265-0.834-1.724c0.117-1.013,0.985-1.398,1.27-1.525l1.717-0.761
	l0.515,1.806c0.106,0.371,0.198,1.109-0.375,1.877l-0.983,1.316L142.573,102.048z"/>
<path fill="#D09D62" d="M142.459,103.179c-0.786-0.594-0.887-1.267-0.833-1.726c0.119-1.015,0.99-1.397,1.276-1.523l1.694-0.745
	l0.528,1.774c0.11,0.37,0.209,1.108-0.365,1.887l-0.981,1.332L142.459,103.179z"/>
<path fill="#D09D62" d="M142.121,106.692c-0.786-0.593-0.888-1.265-0.835-1.724c0.117-1.014,0.986-1.399,1.271-1.525l1.716-0.759
	l0.515,1.805c0.106,0.372,0.198,1.111-0.377,1.88l-0.983,1.311L142.121,106.692z"/>
<path fill="#D09D62" d="M142.007,107.824c-0.785-0.593-0.887-1.265-0.834-1.724c0.117-1.013,0.985-1.398,1.271-1.525l1.717-0.76
	l0.515,1.805c0.106,0.372,0.198,1.111-0.377,1.879l-0.983,1.314L142.007,107.824z"/>
<path fill="#D09D62" d="M141.893,108.956c-0.786-0.594-0.887-1.267-0.833-1.726c0.119-1.015,0.99-1.397,1.276-1.523l1.694-0.745
	l0.528,1.774c0.11,0.37,0.209,1.107-0.365,1.887l-0.981,1.332L141.893,108.956z"/>
<path fill="#D09D62" d="M141.555,112.468c-0.786-0.593-0.888-1.265-0.835-1.723c0.117-1.014,0.985-1.399,1.27-1.525l1.717-0.761
	l0.515,1.806c0.106,0.372,0.198,1.11-0.376,1.878l-0.982,1.314L141.555,112.468z"/>
<path fill="#D09D62" d="M141.441,113.601c-0.785-0.593-0.887-1.265-0.834-1.724c0.117-1.013,0.985-1.398,1.27-1.525l1.718-0.761
	l0.515,1.807c0.106,0.372,0.198,1.11-0.377,1.878l-0.983,1.314L141.441,113.601z"/>
<path fill="#D09D62" d="M141.326,114.733c-0.786-0.595-0.886-1.268-0.832-1.727c0.119-1.015,0.99-1.397,1.276-1.523l1.693-0.743
	l0.529,1.772c0.111,0.371,0.21,1.109-0.366,1.889l-0.982,1.329L141.326,114.733z"/>
<path fill="#D09D62" d="M140.988,118.245c-0.786-0.594-0.887-1.265-0.834-1.725c0.118-1.014,0.987-1.398,1.272-1.524l1.716-0.758
	l0.515,1.804c0.106,0.371,0.198,1.109-0.375,1.877l-0.983,1.316L140.988,118.245z"/>
<path fill="#D09D62" d="M140.874,119.378c-0.785-0.594-0.887-1.265-0.834-1.724c0.117-1.014,0.986-1.398,1.271-1.524l1.716-0.76
	l0.515,1.805c0.106,0.371,0.198,1.109-0.375,1.877l-0.983,1.316L140.874,119.378z"/>
<path fill="#D09D62" d="M140.76,120.51c-0.786-0.594-0.887-1.267-0.833-1.727c0.119-1.015,0.99-1.397,1.276-1.523l1.693-0.744
	l0.529,1.772c0.111,0.37,0.21,1.108-0.365,1.888l-0.981,1.332L140.76,120.51z"/>
<path fill="#D09D62" d="M140.421,124.022c-0.785-0.593-0.887-1.265-0.834-1.724c0.117-1.014,0.986-1.398,1.271-1.525l1.716-0.76
	l0.515,1.805c0.106,0.372,0.198,1.11-0.377,1.879l-0.983,1.314L140.421,124.022z"/>
<path fill="#D09D62" d="M140.309,125.155c-0.786-0.593-0.888-1.265-0.835-1.724c0.117-1.014,0.986-1.399,1.271-1.525l1.716-0.759
	l0.515,1.805c0.106,0.372,0.198,1.11-0.377,1.879l-0.982,1.313L140.309,125.155z"/>
<path fill="#D09D62" d="M140.193,126.286c-0.786-0.595-0.886-1.268-0.832-1.727c0.119-1.015,0.99-1.397,1.276-1.523l1.693-0.743
	l0.529,1.772c0.11,0.37,0.21,1.107-0.365,1.888l-0.982,1.332L140.193,126.286z"/>
<path fill="#D09D62" d="M127.514,185.046l0.29-1.882c0.161-1.062,1.008-1.543,1.726-1.543c0.719,0,1.566,0.481,1.727,1.538
	l0.284,1.878l-1.898,0.009H127.514z"/>
<rect x="68.342" y="23.293" transform="matrix(-0.7981 0.6025 -0.6025 -0.7981 138.0372 3.6019)" fill="#D09D62" width="0.147" height="3.266"/>
<rect x="15.668" y="98.163" transform="matrix(-0.7875 0.6163 -0.6163 -0.7875 89.6445 168.687)" fill="#D09D62" width="0.152" height="3.266"/>
<rect x="22.804" y="94.192" transform="matrix(-0.8004 0.5995 -0.5995 -0.8004 98.641 158.8037)" fill="#D09D62" width="0.152" height="3.266"/>
<polygon fill="#D09D62" points="21.048,94.903 21.167,94.813 23.13,97.425 23.002,97.521 "/>
<rect x="14.765" y="98.842" transform="matrix(-0.788 0.6157 -0.6157 -0.788 88.3938 170.5116)" fill="#D09D62" width="0.149" height="3.266"/>
<polygon fill="#D09D62" points="18.325,96.265 18.452,96.171 20.407,98.787 20.288,98.876 "/>
<rect x="69.923" y="22.493" transform="matrix(-0.8056 0.5924 -0.5924 -0.8056 140.6845 2.0926)" fill="#D09D62" width="0.152" height="3.266"/>
<rect x="22.492" y="181.479" transform="matrix(-0.601 0.7992 -0.7992 -0.601 183.7271 271.3982)" fill="#D09D62" width="3.267" height="0.154"/>
<path fill="#D09D62" d="M19.881,99.278c0.444-0.959,1.556-1.655,2.643-1.655c0.233,0,0.46,0.033,0.673,0.098l3.383,1.026
	l-2.974,1.911c-0.595,0.382-1.156,0.661-1.715,0.852l-3.615,1.235L19.881,99.278z"/>
<path fill="#D09D62" d="M24.134,97.117c0.662-0.704,1.525-1.076,2.497-1.076c0.158,0,0.321,0.01,0.484,0.03l5.387,0.651
	l-4.851,2.431c-0.559,0.28-1.162,0.488-1.955,0.674l-5.266,1.231L24.134,97.117z"/>
<path fill="#D09D62" d="M116.18,73.625c-0.809-0.439-1.334-1.123-1.518-1.98l-0.627-2.924l2.799,1.052
	c1.657,0.623,1.78,1.948,1.756,2.488l-0.116,2.607L116.18,73.625z"/>
<path fill="#D09D62" d="M76.618,99.087c-0.523,0-1.049-0.132-1.605-0.404l-2.77-1.351l2.673-1.533
	c0.387-0.222,0.794-0.335,1.209-0.335c0.493,0,1.217,0.161,1.867,0.928l2.041,2.406l-3.143,0.277
	C76.799,99.083,76.708,99.087,76.618,99.087z"/>
<path fill="#D09D62" d="M100.227,118.381c-0.813-0.735-1.144-1.724-0.933-2.787l0.929-4.664l2.133,4.251
	c0.253,0.503,0.443,1.062,0.566,1.66l1.002,4.88L100.227,118.381z"/>
<path fill="#D09D62" d="M95.488,115.106c-0.321-0.42-0.563-0.902-0.721-1.432l-1.123-3.775l3.464,1.872
	c1.02,0.551,1.509,1.579,1.275,2.682l-0.737,3.482L95.488,115.106z"/>
<path fill="#D09D62" d="M137.717,41.19l2.977,0.275c1.119,0.103,1.575,0.749,1.748,1.125c0.171,0.373,0.364,1.132-0.268,2.022
	l-1.549,2.18L137.717,41.19z"/>
<path fill="#D09D62" d="M137.151,39.944l2.977,0.275c1.119,0.103,1.575,0.749,1.748,1.125c0.171,0.373,0.364,1.132-0.269,2.022
	l-1.549,2.179L137.151,39.944z"/>
<path fill="#D09D62" d="M138.85,43.682l2.977,0.275c1.119,0.103,1.575,0.749,1.748,1.125c0.171,0.373,0.364,1.132-0.268,2.022
	l-1.549,2.18L138.85,43.682z"/>
<path fill="#D09D62" d="M135.559,35.754l3.103,0.768c0.324,0.08,1.308,0.324,1.605,1.345c0.195,0.672-0.003,1.323-0.589,1.935
	l-1.748,1.826L135.559,35.754z"/>
<path fill="#D09D62" d="M137.967,41.36l-1.378-2.654l2.973,0.267c1.119,0.104,1.575,0.749,1.747,1.125
	c0.171,0.373,0.364,1.132-0.269,2.022l-1.547,2.177L137.967,41.36z"/>
<path fill="#D09D62" d="M138.284,42.436l2.977,0.275c1.119,0.103,1.575,0.749,1.748,1.125c0.171,0.373,0.364,1.132-0.269,2.022
	l-1.549,2.179L138.284,42.436z"/>
<path fill="#D09D62" d="M136.008,37.535l2.933,0.189c1.129,0.073,1.603,0.712,1.785,1.088c0.181,0.373,0.39,1.134-0.238,2.044
	l-1.52,2.204L136.008,37.535z"/>
<path fill="#D09D62" d="M139.537,45.203l2.702-0.007c1.161,0,1.78,0.721,1.976,1.396c0.145,0.502,0.081,1.016-0.182,1.448
	c-0.265,0.437-0.702,0.736-1.23,0.842l-1.195,0.239L139.537,45.203z"/>
<path fill="#D09D62" d="M117.353,71.179c-0.394,0-0.778-0.112-1.144-0.333l-2.557-1.544l2.68-1.319
	c0.267-0.131,0.713-0.351,1.304-0.351c0.124,0,0.249,0.01,0.372,0.03l2.408,0.386l-1.274,2.08
	C118.733,70.796,118.081,71.179,117.353,71.179z"/>
<path fill="#D09D62" d="M135.62,35.167l2.312,0.177c1.142,0.056,1.736,0.867,1.821,1.646c0.115,1.041-0.58,1.926-1.616,2.058
	l-1.406,0.178L135.62,35.167z"/>
<path fill="#D09D62" d="M49.76,51.18c0.087-1.309,1.036-1.906,1.881-1.906c0.385,0,0.771,0.117,1.15,0.348l2.532,1.545l-3.208,1.585
	l-2.544,1.261L49.76,51.18z"/>
<path fill="#D09D62" d="M99.717,115.476c-0.388-0.089-1.648-0.515-1.594-2.248l0.118-3.757l2.666,2.627
	c0.467,0.464,0.736,1.008,0.8,1.616l0.238,2.275L99.717,115.476z"/>
<path fill="#D09D62" d="M8.312,165.896c-1.005-0.163-1.424-0.733-1.598-1.183c-0.114-0.295-0.308-1.07,0.351-1.899l1.088-1.369
	l1.292,1.179c0.27,0.247,0.618,0.687,0.737,1.383l0.387,2.254L8.312,165.896z"/>
<path fill="#D09D62" d="M7.454,164.302c-0.396-0.08-1.687-0.476-1.645-2.225l0.077-3.816l2.7,2.65
	c0.425,0.417,0.701,0.941,0.799,1.515l0.4,2.344L7.454,164.302z"/>
<path fill="#D09D62" d="M5.692,160.781c-0.543-0.257-0.936-0.687-1.108-1.211c-0.171-0.521-0.11-1.094,0.171-1.614l1.232-2.277
	l1.524,2.093c0.318,0.437,0.494,0.949,0.511,1.482l0.082,2.667L5.692,160.781z"/>
<path fill="#D09D62" d="M98.059,136.221c-0.782-0.344-1.067-0.93-1.168-1.248c-0.173-0.546-0.091-1.138,0.229-1.668l1.318-2.182
	l1.431,2.109c0.29,0.427,0.451,0.899,0.478,1.404l0.146,2.656L98.059,136.221z"/>
<path fill="#D09D62" d="M94.205,135.702c-0.27-0.25-0.616-0.694-0.73-1.389l-0.402-2.459l2.415,0.613
	c0.9,0.228,1.276,0.774,1.432,1.191c0.127,0.338,0.261,1.019-0.264,1.776l-1.071,1.547L94.205,135.702z"/>
<path fill="#D09D62" d="M141.396,74.668l0.031-1.93l1.898,0.351c1.018,0.188,1.451,0.943,1.517,1.586
	c0.089,0.85-0.425,1.803-1.58,1.974l-1.908,0.283L141.396,74.668z"/>
<path fill="#D09D62" d="M136.06,36.184c-0.252-0.122-1.072-0.61-1.017-1.78l0.086-1.821l1.699,0.269
	c0.942,0.022,1.53,0.672,1.697,1.315c0.125,0.477,0.049,0.965-0.214,1.373c-0.183,0.283-0.532,0.64-1.163,0.763l-0.533,0.149
	L136.06,36.184z"/>
<path fill="#D09D62" d="M136.628,37.43c-0.253-0.122-1.073-0.609-1.018-1.781l0.086-1.82l1.698,0.267
	c0.941,0.021,1.53,0.67,1.698,1.313c0.125,0.479,0.049,0.967-0.214,1.375c-0.182,0.282-0.531,0.64-1.162,0.763l-0.533,0.15
	L136.628,37.43z"/>
<path fill="#D09D62" d="M141.306,73.87l1.905,0.35c1.012,0.186,1.447,0.936,1.517,1.575c0.093,0.852-0.416,1.809-1.57,1.985
	l-1.903,0.291L141.306,73.87z"/>
<path fill="#D09D62" d="M140.298,84.291l1.895,0.35c1.018,0.188,1.451,0.943,1.517,1.586c0.089,0.85-0.425,1.803-1.58,1.974
	l-1.908,0.283L140.298,84.291z"/>
<path fill="#D09D62" d="M141.193,75l1.907,0.353c1.011,0.187,1.445,0.936,1.515,1.574c0.094,0.853-0.416,1.81-1.571,1.985
	l-1.901,0.288L141.193,75z"/>
<path fill="#D09D62" d="M140.603,82.72l0.02-1.941l1.909,0.351c1.01,0.186,1.446,0.933,1.517,1.571
	c0.094,0.856-0.415,1.812-1.57,1.989l-1.903,0.291L140.603,82.72z"/>
<path fill="#D09D62" d="M140.74,79.647l1.905,0.35c1.012,0.186,1.447,0.935,1.517,1.575c0.093,0.852-0.416,1.809-1.57,1.985
	l-1.903,0.291L140.74,79.647z"/>
<path fill="#D09D62" d="M140.83,80.441l0.035-1.926l1.895,0.35c1.016,0.188,1.45,0.941,1.517,1.583
	c0.088,0.854-0.427,1.806-1.579,1.978l-1.904,0.283L140.83,80.441z"/>
<path fill="#D09D62" d="M93.343,146.783c-0.07,0-0.145-0.003-0.223-0.011l-2.469-0.238l1.193-2.174
	c0.23-0.418,0.571-0.761,0.989-0.99l2.133-1.176l0.278,2.419c0.068,0.587-0.096,1.135-0.46,1.544
	C94.425,146.561,93.913,146.783,93.343,146.783z"/>
<path fill="#D09D62" d="M8.648,143.025c-0.831-0.121-1.218-0.634-1.374-0.929c-0.188-0.353-0.338-0.923-0.001-1.639l0.688-1.904
	l1.733,1.151c0.304,0.202,0.99,0.797,0.802,1.964l-0.256,1.588L8.648,143.025z"/>
<path fill="#D09D62" d="M20.571,100.416c-0.045,0.101-0.141,0.098-0.228,0.114C20.363,100.38,20.382,100.229,20.571,100.416z"/>
<path fill="#D09D62" d="M101.602,120.702c-1.13-0.202-1.423-1.05-1.486-1.305c-0.063-0.255-0.199-1.14,0.689-1.832l0.971-0.756
	l0.994,0.724c0.246,0.179,0.811,0.7,0.749,1.665l-0.116,1.826L101.602,120.702z"/>
<path fill="#D09D62" d="M5.458,158.538c-1.064-0.175-1.394-0.917-1.486-1.227c-0.072-0.242-0.246-1.09,0.551-1.82l0.83-0.761
	l1.006,0.505c0.707,0.355,1.093,1.106,0.983,1.913l-0.228,1.662L5.458,158.538z"/>
<path fill="#D09D62" d="M86.232,72.001c-1.021-0.168-1.372-0.826-1.49-1.203c-0.075-0.238-0.258-1.071,0.509-1.814l0.838-0.812
	l1.04,0.53c0.674,0.343,1.055,1.038,0.996,1.813l-0.136,1.775L86.232,72.001z"/>
<path fill="#D09D62" d="M83.518,179.242c0.081-1.175,0.937-1.71,1.7-1.71c0.498,0,0.948,0.206,1.336,0.613l1.483,1.553l-2.117,1.135
	l-2.643,1.427L83.518,179.242z"/>
<rect x="97.026" y="160.337" transform="matrix(-0.6785 0.7346 -0.7346 -0.6785 281.9576 200.5301)" fill="#D09D62" width="0.136" height="3.266"/>
<rect x="19.535" y="99.388" transform="matrix(-0.7942 0.6076 -0.6076 -0.7942 96.569 169.3392)" fill="#D09D62" width="0.153" height="3.266"/>
<polygon fill="#D09D62" points="83.12,175.097 83.237,175.009 85.201,177.619 85.075,177.713 "/>
<rect x="82.836" y="175.406" transform="matrix(-0.7987 0.6017 -0.6017 -0.7987 255.657 268.5619)" fill="#D09D62" width="0.153" height="3.267"/>
<rect x="82.608" y="175.519" transform="matrix(-0.7982 0.6024 -0.6024 -0.7982 255.3961 268.7542)" fill="#D09D62" width="0.155" height="3.267"/>
<rect x="82.383" y="175.632" transform="matrix(-0.7987 0.6017 -0.6017 -0.7987 254.9783 269.2419)" fill="#D09D62" width="0.153" height="3.267"/>
<rect x="82.153" y="175.746" transform="matrix(-0.7974 0.6034 -0.6034 -0.7974 254.8433 269.1991)" fill="#D09D62" width="0.159" height="3.266"/>
<path fill="#D09D62" d="M80.926,177.991c0.041-0.031,0.081-0.061,0.122-0.092C81.007,177.93,80.966,177.96,80.926,177.991z"/>
<rect x="129.73" y="178.351" transform="matrix(-0.8004 0.5995 -0.5995 -0.8004 341.6019 246.2141)" fill="#D09D62" width="0.152" height="3.266"/>
<path fill="#D09D62" d="M101.316,76.011c-2.825-0.021-5.118-2.35-5.112-5.193c0.007-2.844,2.334-5.157,5.188-5.157l0.039,0
	c1.392,0.01,2.697,0.566,3.673,1.565c0.972,0.994,1.495,2.303,1.474,3.685c-0.045,2.86-2.338,5.1-5.221,5.1L101.316,76.011z"/>
</svg>
