<?xml version="1.0" encoding="utf-8"?>
<!-- Generator: Adobe Illustrator 17.0.0, SVG Export Plug-In . SVG Version: 6.00 Build 0)  -->
<!DOCTYPE svg PUBLIC "-//W3C//DTD SVG 1.1//EN" "http://www.w3.org/Graphics/SVG/1.1/DTD/svg11.dtd">
<svg version="1.1" id="Layer_1" xmlns="http://www.w3.org/2000/svg" xmlns:xlink="http://www.w3.org/1999/xlink" x="0px" y="0px"
	 width="840.246px" height="842.37px" viewBox="0 0 840.246 842.37" enable-background="new 0 0 840.246 842.37"
	 xml:space="preserve">
<g>
	<defs>
		<rect id="SVGID_1_" width="840.246" height="842.37"/>
	</defs>
	<clipPath id="SVGID_2_">
		<use xlink:href="#SVGID_1_"  overflow="visible"/>
	</clipPath>
	<path clip-path="url(#SVGID_2_)" fill="#D09D62" d="M839.875,685.384c-1.595-6.143-7.86-9.83-14.008-8.237L650.032,722.78
		l-7.95-30.597c-0.092-0.465-0.209-0.919-0.354-1.363l-49.566-190.78c-0.095-0.518-0.232-1.025-0.395-1.52l-3.454-13.299
		l175.833-45.676c6.141-1.595,9.826-7.866,8.231-14.009c-1.593-6.142-7.866-9.827-14.009-8.232l-186.954,48.565
		c-2.948,0.766-5.472,2.672-7.018,5.3c-1.544,2.626-1.98,5.76-1.213,8.71l1.854,7.141L410.269,454.3
		c-25.48-5.34-50.834,4.003-66.782,24.388l-71.932,10.113l5.459-21.018c1.597-6.143-2.09-12.413-8.232-14.01L81.878,405.21
		c-6.147-1.59-12.415,2.088-14.01,8.232c-1.596,6.141,2.09,12.413,8.232,14.009l175.787,45.674l-61.721,237.606L14.382,665.055
		c-6.142-1.592-12.415,2.09-14.01,8.231c-1.596,6.142,2.09,12.413,8.232,14.01l186.906,48.565c0.952,0.248,1.922,0.37,2.889,0.37
		c2.029,0,4.042-0.538,5.821-1.584c2.628-1.545,4.533-4.069,5.3-7.018l4.138-15.936l154.711,121.368
		c8.026,6.272,17.563,9.309,27.029,9.309c13.048,0,25.959-5.773,34.582-16.808c4.569-5.828,7.524-12.578,8.716-19.711l5.854,4.59
		c9.197,7.211,20.677,10.398,32.354,8.979c11.658-1.421,22.042-7.274,29.224-16.468c5.015-6.396,7.968-13.761,8.955-21.289
		c17.915,7.796,39.533,2.875,52.076-13.179c7.907-10.084,10.688-22.578,8.726-34.317c0.668-0.051,1.338-0.117,2.008-0.199
		c11.658-1.42,22.042-7.274,29.218-16.458c3.337-4.247,5.822-9.02,7.384-14.078c2.409,0.601,4.795,1.098,7.155,1.486l9.03,34.759
		c1.344,5.173,6.005,8.605,11.112,8.603c0.956,0,1.926-0.12,2.895-0.37l186.953-48.517
		C837.783,697.798,841.468,691.527,839.875,685.384z M575.112,711.158c-5.574,0.671-11.033-0.832-15.394-4.252L421.235,598.334
		c-4.997-3.917-12.217-3.039-16.13,1.951c-3.916,4.996-3.042,12.216,1.951,16.131l138.483,108.573
		c4.354,3.415,7.123,8.359,7.794,13.924c0.671,5.566-0.842,11.031-4.269,15.405c-7.091,9.072-20.263,10.667-29.342,3.575
		l-20.974-16.473c-0.021-0.016-0.041-0.033-0.06-0.047l-118.34-92.802c-4.992-3.915-12.216-3.044-16.131,1.952
		c-3.915,4.993-3.042,12.214,1.952,16.13l118.34,92.802c9.056,7.1,10.642,20.253,3.525,29.332c-3.412,4.365-8.351,7.142-13.911,7.82
		c-5.571,0.679-11.033-0.832-15.394-4.252l-36.191-28.375c-0.004-0.003-0.009-0.005-0.012-0.008l-83.115-65.162
		c-4.997-3.917-12.216-3.039-16.131,1.951c-3.915,4.996-3.042,12.216,1.952,16.131l83.138,65.182
		c4.349,3.414,7.112,8.354,7.783,13.915c0.671,5.567-0.84,11.031-4.269,15.405c-3.413,4.369-8.36,7.146-13.926,7.822
		c-5.564,0.674-11.056-0.84-15.423-4.252L219.961,687.426L265.3,512.883l59.228-8.326l-42.249,57.963
		c-0.996,1.372-1.851,2.419-2.604,3.343c-2.094,2.567-5.256,6.446-4.6,12.15c0.67,5.824,4.576,8.843,8.357,11.765l1.667,1.294
		c13.051,10.21,47.187,31.864,82.231,12.494c21.815-12.066,36.614-29.233,47.419-41.769c2.502-2.904,4.664-5.412,6.57-7.454
		c0.443-0.473,0.86-0.927,1.252-1.363c0.014,0.01,0.029,0.02,0.042,0.03l170.615,140.51c-0.518,3.55-1.937,6.931-4.205,9.816
		C585.609,707.704,580.672,710.481,575.112,711.158z M610.771,678.201L436.846,534.967c-0.254-0.211-0.518-0.41-0.787-0.596
		c-1.814-1.248-3.22-2.298-4.351-3.14c-6.239-4.657-14.491-8.582-23.007,2.466c-0.979,1.273-2.2,2.858-4.162,4.948
		c-2.236,2.394-4.645,5.193-7.199,8.154c-9.672,11.219-22.917,26.587-41.129,36.66c-20.743,11.463-42.184,0.38-54.478-8.611
		l58.893-80.8c10.584-14.485,27.381-20.942,44.911-17.261l165.959,35.087l43.609,167.855
		C613.681,679.265,612.239,678.765,610.771,678.201z M230.496,411.074h379.255c16.004,0,29.027-13.021,29.027-29.026V130.11
		c0-16.005-13.023-29.028-29.027-29.028h-73.59v-0.138C536.161,45.284,490.879,0,435.217,0h-30.19
		c-55.658,0-100.943,45.283-100.943,100.944v0.138h-73.589c-16.005,0-29.028,13.023-29.028,29.028v251.938
		C201.469,398.053,214.492,411.074,230.496,411.074z M327.067,100.944c0-42.989,34.973-77.963,77.962-77.963h30.19
		c42.989,0,77.963,34.974,77.963,77.963v0.138H327.067V100.944z M224.45,130.11c0-3.335,2.712-6.047,6.046-6.047h379.255
		c3.277,0,6.046,2.769,6.046,6.047v1.675c0,72.794-59.221,132.014-132.015,132.014h-52.191v-14.421c0-6.345-5.145-11.49-11.49-11.49
		c-6.346,0-11.491,5.143-11.491,11.49v14.421h-52.146c-72.794,0-132.014-59.22-132.014-132.014V130.11z M356.464,286.78h52.146
		v14.373c0,6.345,5.144,11.49,11.491,11.49c6.345,0,11.49-5.143,11.49-11.49V286.78h52.191c55.742,0,104.702-29.583,132.015-73.871
		v169.138c0,3.277-2.769,6.044-6.046,6.044H230.496c-3.334,0-6.046-2.711-6.046-6.044V212.911
		C251.765,257.197,300.722,286.78,356.464,286.78z"/>
</g>
</svg>
