<?xml version="1.0" encoding="utf-8"?>
<!-- Generator: Adobe Illustrator 17.0.0, SVG Export Plug-In . SVG Version: 6.00 Build 0)  -->
<!DOCTYPE svg PUBLIC "-//W3C//DTD SVG 1.1//EN" "http://www.w3.org/Graphics/SVG/1.1/DTD/svg11.dtd">
<svg version="1.1" id="Layer_1" xmlns="http://www.w3.org/2000/svg" xmlns:xlink="http://www.w3.org/1999/xlink" x="0px" y="0px"
	 width="682.019px" height="682.026px" viewBox="0 0 682.019 682.026" enable-background="new 0 0 682.019 682.026"
	 xml:space="preserve">
<g>
	<defs>
		<rect id="SVGID_1_" width="682.019" height="682.026"/>
	</defs>
	<clipPath id="SVGID_2_">
		<use xlink:href="#SVGID_1_"  overflow="visible"/>
	</clipPath>
	<path clip-path="url(#SVGID_2_)" fill="#D09D62" d="M668.521,0.294c-46.331,10.64-93.248,18.548-140.507,23.683v-1.969
		c0-12.15-9.85-22-22-22h-22.001c-12.15,0-22,9.85-22,22v7.778c-42.099,2.717-86.342,3.883-131.85,3.223
		c-36.301-0.495-73.306-2.277-110.157-5.016v-5.985c0-12.15-9.85-22-22.001-22h-22c-12.151,0-22.001,9.85-22.001,22
		C68.642,12.57,13.981,0.404,13.42,0.272C7.494-1.065,1.606,2.656,0.27,8.582C0.09,9.378,0,10.192,0,11.008v44.001
		c-0.001,5.148,3.568,9.609,8.591,10.736c0.572,0.122,57.345,12.739,145.413,22.331v48.335L5.027,232.785
		c-4.977,3.222-6.505,9.81-3.454,14.894l66.002,110.003c1.548,2.579,4.084,4.412,7.018,5.072c2.935,0.658,6.012,0.086,8.514-1.584
		l81.898-54.606v177.457c-30.362-0.036-54.966-24.64-55.002-55.002v-22H88.002v22c-0.036,30.362-24.64,54.966-55.001,55.002H11v22
		h22.001c30.361,0.037,54.965,24.641,55.001,55.002v22.001h22.001v-22.001c0.036-30.361,24.64-54.965,55.002-55.002v165.005
		c0,6.075,4.924,11,11,11h330.009c6.075,0,11-4.925,11-11V306.564l81.897,54.606c5.055,3.37,11.885,2.005,15.255-3.05
		c0.096-0.143,0.189-0.289,0.278-0.438l66.002-110.003c3.051-5.084,1.523-11.672-3.455-14.894l-148.977-96.374V90.056
		c48.943-5.197,97.531-13.323,145.501-24.332c4.981-1.161,8.504-5.601,8.504-10.715V11.008c0-6.075-4.924-11.001-11-11.001
		C670.178,0.006,669.34,0.103,668.521,0.294 M99.003,521.565c-6.536-10.892-15.652-20.008-26.544-26.544
		c10.892-6.535,20.008-15.651,26.544-26.543c6.535,10.892,15.651,20.008,26.543,26.543
		C114.654,501.557,105.538,510.673,99.003,521.565 M484.013,22.008h22.001v121.003h-22.001V22.008z M429.012,154.012
		c0,36.4-39.48,66.002-88.003,66.002c-48.522,0-88.002-29.602-88.002-66.002c0.055-2.956,0.375-5.901,0.957-8.8
		c26.691,14.348,56.774,21.191,87.045,19.8c30.272,1.391,60.354-5.452,87.046-19.8C428.636,148.111,428.957,151.056,429.012,154.012
		 M421.08,123.585c-12.804,8.866-37.093,19.427-80.071,19.427s-67.267-10.561-80.071-19.427
		c-11.99-8.486-26.246-13.187-40.932-13.497V93.917c40.514,2.97,81.138,4.785,120.926,5.082h13.597
		c37.082,0.011,73.02-1.089,107.484-3.289v14.301C447.319,110.343,433.061,115.071,421.08,123.585 M329.855,55.009
		c8.544,0.125,17.043,0.184,25.499,0.176c36.653,0,72.338-1.155,106.703-3.3V73.71c-38.578,2.453-79.203,3.575-120.927,3.3
		c-39.876-0.308-80.555-2.123-121.124-5.137V50.026C256.758,52.732,293.708,54.514,329.855,55.009 M176.005,22.008h22.001v121.003
		h-22.001V22.008z M22.001,46.077V24.505c21.769,4.29,68.828,12.75,132.003,19.647V66.01C88.134,58.694,40.569,49.817,22.001,46.077
		 M601.518,336.485l-84.504-56.355v-38.116h-22.001v418.012H187.005V242.014h-22v38.116L80.5,336.463l-54.594-90.995l134.467-87.001
		c4.122,4.19,9.754,6.548,15.632,6.545h22c12.151,0,22.001-9.85,22.001-22v-10.924c4.698,0.088,9.358,0.871,13.827,2.321
		c-1.844,6.372-2.796,12.969-2.827,19.603c0,48.522,49.348,88.002,110.003,88.002c60.656,0,110.003-39.48,110.003-88.002
		c-0.031-6.634-0.982-13.231-2.827-19.603c4.47-1.45,9.129-2.233,13.828-2.321v10.924c0,12.15,9.85,22,22,22h22.001
		c5.885-0.011,11.519-2.39,15.631-6.6l134.468,87.001L601.518,336.485z M660.018,46.209c-43.571,9.637-87.638,16.872-132.004,21.671
		V46.132c44.351-4.755,88.416-11.882,132.004-21.352V46.209z"/>
	<path clip-path="url(#SVGID_2_)" fill="#D09D62" d="M440.012,330.017v-11.001h-22v11.001c0,18.225-14.775,33-33.001,33h-11v22.001
		h11c18.226,0,33.001,14.775,33.001,33.001v11h22v-11c0-18.226,14.775-33.001,33.001-33.001h11.001v-22.001h-11.001
		C454.787,363.017,440.012,348.242,440.012,330.017 M429.012,385.359c-3.204-4.316-7.026-8.137-11.341-11.341
		c4.315-3.205,8.137-7.026,11.341-11.342c3.204,4.316,7.026,8.137,11.341,11.342C436.038,377.222,432.216,381.043,429.012,385.359"
		/>
	<path clip-path="url(#SVGID_2_)" fill="#D09D62" d="M627.017,539.023v-11.001h-22v11.001c0,18.225-14.775,33-33.001,33h-11v22.001
		h11c18.226,0,33.001,14.775,33.001,33.001v11h22v-11c0-18.226,14.775-33.001,33.001-33.001h11.001v-22.001h-11.001
		C641.792,572.023,627.017,557.248,627.017,539.023 M616.017,594.365c-3.204-4.316-7.026-8.137-11.341-11.341
		c4.315-3.205,8.137-7.026,11.341-11.342c3.205,4.316,7.026,8.137,11.341,11.342C623.043,586.228,619.222,590.049,616.017,594.365"
		/>
</g>
</svg>
