<?xml version="1.0" encoding="utf-8"?>
<!-- Generator: Adobe Illustrator 17.0.0, SVG Export Plug-In . SVG Version: 6.00 Build 0)  -->
<!DOCTYPE svg PUBLIC "-//W3C//DTD SVG 1.1//EN" "http://www.w3.org/Graphics/SVG/1.1/DTD/svg11.dtd">
<svg version="1.1" id="Layer_1" xmlns="http://www.w3.org/2000/svg" xmlns:xlink="http://www.w3.org/1999/xlink" x="0px" y="0px"
	 width="444.691px" height="90.378px" viewBox="0 0 444.691 90.378" enable-background="new 0 0 444.691 90.378"
	 xml:space="preserve">
<rect y="0.002" fill="#EAB57A" width="22.594" height="90.376"/>
<polygon fill="#EAB57A" points="30.166,0.002 30.166,22.596 59.14,22.596 59.14,90.378 81.734,90.378 81.734,22.596 103.988,22.596 
	124.148,0.002 "/>
<polygon fill="#EAB57A" points="148.064,0 100.322,53.486 100.322,90.058 131.796,55 158.264,90.375 187.443,90.375 147.673,37.444 
	181.37,0 "/>
<rect x="203.777" y="15.449" fill="#EAB57A" width="4.759" height="21.251"/>
<polygon fill="#EAB57A" points="232.242,36.701 228.141,36.701 217.785,23.561 217.785,36.701 213.026,36.701 213.026,15.45 
	217.127,15.45 227.453,28.59 227.453,15.45 232.242,15.45 "/>
<polygon fill="#EAB57A" points="240.562,36.701 240.562,19.999 235.145,19.999 235.145,15.45 250.828,15.45 250.828,19.999 
	245.351,19.999 245.351,36.701 "/>
<polygon fill="#EAB57A" points="253.731,36.701 253.731,15.45 267.2,15.45 267.2,19.999 258.49,19.999 258.49,23.801 
	265.404,23.801 265.404,28.35 258.49,28.35 258.49,32.151 267.2,32.151 267.2,36.701 "/>
<g>
	<defs>
		<rect id="SVGID_1_" y="0" width="444.691" height="90.378"/>
	</defs>
	<clipPath id="SVGID_2_">
		<use xlink:href="#SVGID_1_"  overflow="visible"/>
	</clipPath>
	<path clip-path="url(#SVGID_2_)" fill="#EAB57A" d="M270.822,36.701V15.45h8.381c1.956,0,3.542,0.618,4.76,1.855
		c1.217,1.237,1.825,2.754,1.825,4.55c0,2.674-1.387,4.5-4.16,5.476l7.513,9.37h-5.717l-7.094-8.771h-0.748v8.771H270.822z
		 M275.582,23.89h3.053c0.718,0,1.301-0.189,1.751-0.569c0.449-0.378,0.674-0.868,0.674-1.466c0-0.639-0.225-1.138-0.674-1.497
		c-0.45-0.36-1.033-0.539-1.751-0.539h-3.053V23.89z"/>
	<polygon clip-path="url(#SVGID_2_)" fill="#EAB57A" points="309.852,36.701 305.751,36.701 295.395,23.561 295.395,36.701 
		290.636,36.701 290.636,15.45 294.737,15.45 305.063,28.59 305.063,15.45 309.852,15.45 	"/>
	<path clip-path="url(#SVGID_2_)" fill="#EAB57A" d="M312.067,36.7l9.099-21.251h4.31l9.099,21.251h-4.969l-1.886-4.49h-8.799
		l-1.886,4.49H312.067z M323.321,21.704l-2.694,6.376h5.358L323.321,21.704z"/>
	<polygon clip-path="url(#SVGID_2_)" fill="#EAB57A" points="338.496,36.701 338.496,19.999 333.078,19.999 333.078,15.45 
		348.762,15.45 348.762,19.999 343.285,19.999 343.285,36.701 	"/>
	<rect x="351.665" y="15.449" clip-path="url(#SVGID_2_)" fill="#EAB57A" width="4.759" height="21.251"/>
	<path clip-path="url(#SVGID_2_)" fill="#EAB57A" d="M378.468,33.827c-2.144,2.155-4.734,3.233-7.766,3.233
		c-3.033,0-5.622-1.073-7.768-3.218c-2.144-2.145-3.218-4.734-3.218-7.767c0-3.032,1.074-5.622,3.218-7.767
		c2.146-2.145,4.735-3.218,7.768-3.218c3.032,0,5.622,1.078,7.766,3.233c2.146,2.155,3.218,4.739,3.218,7.752
		S380.614,31.672,378.468,33.827 M366.317,30.565c1.207,1.257,2.668,1.886,4.385,1.886c1.716,0,3.173-0.629,4.37-1.886
		c1.197-1.258,1.796-2.754,1.796-4.49s-0.599-3.233-1.796-4.49c-1.197-1.257-2.654-1.885-4.37-1.885
		c-1.717,0-3.178,0.628-4.385,1.885c-1.208,1.257-1.812,2.754-1.812,4.49S365.109,29.307,366.317,30.565"/>
	<polygon clip-path="url(#SVGID_2_)" fill="#EAB57A" points="404.194,36.701 400.093,36.701 389.737,23.561 389.737,36.701 
		384.978,36.701 384.978,15.45 389.079,15.45 399.405,28.59 399.405,15.45 404.194,15.45 	"/>
	<path clip-path="url(#SVGID_2_)" fill="#EAB57A" d="M406.408,36.7l9.099-21.251h4.31l9.099,21.251h-4.969l-1.886-4.49h-8.799
		l-1.886,4.49H406.408z M417.663,21.704l-2.694,6.376h5.358L417.663,21.704z"/>
	<polygon clip-path="url(#SVGID_2_)" fill="#EAB57A" points="431.131,36.701 431.131,15.45 435.891,15.45 435.891,32.151 
		444.691,32.151 444.691,36.701 	"/>
	<polygon clip-path="url(#SVGID_2_)" fill="#EAB57A" points="207.609,72.618 207.609,55.917 202.192,55.917 202.192,51.367 
		217.875,51.367 217.875,55.917 212.398,55.917 212.398,72.618 	"/>
	<path clip-path="url(#SVGID_2_)" fill="#EAB57A" d="M220.778,72.618V51.367h8.381c1.955,0,3.542,0.619,4.759,1.855
		c1.217,1.238,1.826,2.754,1.826,4.55c0,2.674-1.388,4.5-4.161,5.477l7.513,9.369h-5.717l-7.094-8.77h-0.748v8.77H220.778z
		 M225.537,59.807h3.053c0.718,0,1.302-0.189,1.751-0.568c0.449-0.379,0.674-0.869,0.674-1.467c0-0.639-0.225-1.138-0.674-1.496
		c-0.449-0.36-1.033-0.539-1.751-0.539h-3.053V59.807z"/>
	<path clip-path="url(#SVGID_2_)" fill="#EAB57A" d="M238.318,72.617l9.099-21.251h4.31l9.099,21.251h-4.969l-1.885-4.489h-8.8
		l-1.886,4.489H238.318z M249.572,57.622l-2.694,6.375h5.358L249.572,57.622z"/>
	<path clip-path="url(#SVGID_2_)" fill="#EAB57A" d="M263.04,72.617V51.366h7.243c2.994,0,5.547,1.038,7.662,3.113
		c2.116,2.076,3.173,4.58,3.173,7.513s-1.057,5.438-3.173,7.513c-2.115,2.075-4.668,3.112-7.662,3.112H263.04z M267.799,68.247
		h2.484c1.756,0,3.198-0.603,4.326-1.811c1.127-1.207,1.691-2.688,1.691-4.444c0-1.756-0.564-3.237-1.691-4.445
		c-1.128-1.207-2.57-1.811-4.326-1.811h-2.484V68.247z"/>
	<rect x="284.441" y="51.366" clip-path="url(#SVGID_2_)" fill="#EAB57A" width="4.759" height="21.251"/>
	<polygon clip-path="url(#SVGID_2_)" fill="#EAB57A" points="312.905,72.618 308.804,72.618 298.449,59.478 298.449,72.618 
		293.689,72.618 293.689,51.367 297.79,51.367 308.117,64.507 308.117,51.367 312.905,51.367 	"/>
	<path clip-path="url(#SVGID_2_)" fill="#EAB57A" d="M327.781,72.977c-3.293,0-6.042-1.052-8.246-3.157
		c-2.205-2.106-3.308-4.715-3.308-7.827c0-3.074,1.053-5.672,3.158-7.798c2.105-2.125,4.784-3.188,8.037-3.188
		c3.651,0,6.554,1.208,8.71,3.622l-3.353,3.263c-1.417-1.517-3.202-2.275-5.357-2.275c-1.876,0-3.412,0.624-4.61,1.871
		c-1.197,1.247-1.796,2.749-1.796,4.505c0,1.836,0.609,3.357,1.827,4.564c1.216,1.207,2.842,1.811,4.878,1.811
		c1.875,0,3.252-0.339,4.13-1.018v-3.143h-4.16v-4.459h8.8v10.086c-0.918,1.039-2.146,1.822-3.682,2.35
		C331.272,72.712,329.596,72.977,327.781,72.977"/>
	<path clip-path="url(#SVGID_2_)" fill="#EAB57A" d="M356.753,72.977c-3.033,0-5.622-1.072-7.768-3.218
		c-2.144-2.144-3.217-4.733-3.217-7.766c0-3.034,1.073-5.622,3.217-7.768c2.146-2.144,4.735-3.218,7.768-3.218
		c2.175,0,4.141,0.53,5.896,1.587c1.756,1.058,3.103,2.465,4.041,4.22l-4.19,2.275c-1.277-2.314-3.193-3.472-5.747-3.472
		c-1.717,0-3.178,0.629-4.385,1.885c-1.208,1.258-1.811,2.754-1.811,4.491c0,1.735,0.603,3.232,1.811,4.489
		c1.207,1.257,2.668,1.886,4.385,1.886c2.554,0,4.47-1.158,5.747-3.472l4.19,2.274c-0.938,1.756-2.285,3.163-4.041,4.221
		C360.894,72.449,358.928,72.977,356.753,72.977"/>
	<path clip-path="url(#SVGID_2_)" fill="#EAB57A" d="M387.028,69.745c-2.145,2.155-4.734,3.232-7.767,3.232
		c-3.033,0-5.622-1.072-7.767-3.218c-2.145-2.144-3.218-4.733-3.218-7.766c0-3.033,1.073-5.622,3.218-7.768
		c2.145-2.144,4.734-3.218,7.767-3.218c3.033,0,5.622,1.079,7.767,3.233c2.145,2.155,3.218,4.74,3.218,7.753
		C390.246,65.005,389.173,67.589,387.028,69.745 M374.876,66.482c1.207,1.257,2.669,1.886,4.385,1.886s3.173-0.629,4.37-1.886
		c1.197-1.257,1.796-2.754,1.796-4.489c0-1.737-0.599-3.233-1.796-4.49c-1.197-1.257-2.654-1.886-4.37-1.886
		s-3.178,0.629-4.385,1.886c-1.207,1.257-1.811,2.753-1.811,4.49C373.065,63.728,373.669,65.225,374.876,66.482"/>
</g>
</svg>
