<?xml version="1.0" encoding="utf-8"?>
<!-- Generator: Adobe Illustrator 17.0.0, SVG Export Plug-In . SVG Version: 6.00 Build 0)  -->
<!DOCTYPE svg PUBLIC "-//W3C//DTD SVG 1.1//EN" "http://www.w3.org/Graphics/SVG/1.1/DTD/svg11.dtd">
<svg version="1.1" id="Layer_1" xmlns="http://www.w3.org/2000/svg" xmlns:xlink="http://www.w3.org/1999/xlink" x="0px" y="0px"
	 width="781.59px" height="791.64px" viewBox="0 0 781.59 791.64" enable-background="new 0 0 781.59 791.64" xml:space="preserve">
<g>
	<defs>
		<rect id="SVGID_1_" width="781.59" height="791.64"/>
	</defs>
	<clipPath id="SVGID_2_">
		<use xlink:href="#SVGID_1_"  overflow="visible"/>
	</clipPath>
	<path clip-path="url(#SVGID_2_)" fill="#D09D62" d="M768.448,313.302h-30.137C691.743,166.385,557.996,64.487,403.989,58.591
		V26.309h22.968c7.265,0,13.154-5.889,13.154-13.154S434.222,0,426.957,0h-72.219c-7.265,0-13.154,5.89-13.154,13.155
		s5.889,13.154,13.154,13.154h22.942v32.282c-154,5.883-287.739,107.791-334.27,254.711H13.155C5.889,313.302,0,319.191,0,326.456
		v72.245c0,7.265,5.889,13.154,13.155,13.154h167.023l188.767,238.282c1.971,2.487,4.774,4.178,7.893,4.762l194.884,36.609
		l11.603,11.326l-6.17,5.643c-10.793,9.918-11.523,26.7-1.631,37.517l33.939,37.056c4.747,5.205,11.377,8.297,18.416,8.59h1.197
		c6.635,0.012,13.03-2.482,17.903-6.985L771.75,670.382c10.79-9.918,11.525-26.694,1.644-37.517l-33.965-36.964
		c-9.537-10.349-25.496-11.446-36.359-2.5c-13.5-35.926-36.347-67.596-66.18-91.74c-27.922-23.884-48.836-54.9-60.511-89.74h192.056
		c7.265,0,13.155-5.889,13.155-13.154v-72.311C781.59,319.196,775.708,313.309,768.448,313.302 M390.834,84.347
		c144.485,0.413,272.847,92.311,319.8,228.955H71.087C117.996,176.649,246.355,84.738,390.834,84.347 M753.978,651.018
		l-124.77,114.287c-0.097,0.09-0.246,0.09-0.343,0l-33.938-37.399L720.04,613.633L753.978,651.018z M620.315,522.025
		c28.682,23.654,50.178,54.856,62.063,90.082l-79.624,72.929l-15.496-15.128c-1.857-1.817-4.209-3.044-6.762-3.526L386.52,629.944
		L213.735,411.855h48.737l146.016,150.067c2.196,2.257,5.125,3.656,8.261,3.947l95.068,8.484c0.39,0.02,0.78,0.02,1.17,0
		c1.734-0.001,3.451-0.345,5.052-1.013l20.376-8.497c6.699-2.811,9.851-10.521,7.04-17.22c-0.141-0.335-0.295-0.664-0.463-0.986
		c-0.381-0.75-36.122-70.324-33.925-134.821h37.438C561.406,454.665,586.329,492.914,620.315,522.025 M299.187,411.855h185.636
		c0.694,46.35,11.161,92.031,30.716,134.058l-4.604,1.921l-86.978-7.761L299.187,411.855z M755.294,385.546H26.375V339.61h728.919
		V385.546z"/>
</g>
</svg>
