<?xml version="1.0" encoding="utf-8"?>
<!-- Generator: Adobe Illustrator 17.0.0, SVG Export Plug-In . SVG Version: 6.00 Build 0)  -->
<!DOCTYPE svg PUBLIC "-//W3C//DTD SVG 1.1//EN" "http://www.w3.org/Graphics/SVG/1.1/DTD/svg11.dtd">
<svg version="1.1" id="Layer_1" xmlns="http://www.w3.org/2000/svg" xmlns:xlink="http://www.w3.org/1999/xlink" x="0px" y="0px"
	 width="792.068px" height="792.055px" viewBox="0 0 792.068 792.055" enable-background="new 0 0 792.068 792.055"
	 xml:space="preserve">
<g>
	<defs>
		<rect id="SVGID_1_" width="792.068" height="792.055"/>
	</defs>
	<clipPath id="SVGID_2_">
		<use xlink:href="#SVGID_1_"  overflow="visible"/>
	</clipPath>
	<path clip-path="url(#SVGID_2_)" fill="#EBB67A" d="M228.219,338.352h509.71c14.95,0,28.434,6.096,38.229,15.885v0.093
		c9.79,9.795,15.891,23.279,15.891,38.136v345.481c0,14.851-6.101,28.428-15.891,38.217c-9.795,9.802-23.279,15.891-38.229,15.891
		h-509.71c-14.857,0-28.434-6.089-38.223-15.891c-9.796-9.789-15.891-23.279-15.891-38.217V392.466
		c0-14.857,6.095-28.433,15.891-38.229C199.792,344.448,213.362,338.352,228.219,338.352z M737.929,363.092h-509.71
		c-8.075,0-15.377,3.348-20.699,8.669c-5.327,5.328-8.675,12.63-8.675,20.705v345.481c0,8.076,3.348,15.458,8.675,20.786
		c5.316,5.315,12.624,8.582,20.699,8.582h509.71c8.075,0,15.458-3.261,20.785-8.582c5.322-5.328,8.595-12.717,8.595-20.786V392.466
		c0-8.075-3.267-15.457-8.595-20.785v0.087C753.387,366.446,746.004,363.092,737.929,363.092z"/>
	<path clip-path="url(#SVGID_2_)" fill="#EBB67A" d="M379.744,235.192h206.752c11.77,0,22.586,4.809,30.321,12.624
		c7.729,7.815,12.63,18.558,12.63,30.321v72.579v12.37h-12.376h-52.22h-12.364v-12.37v-40.191H413.759v40.197v12.37h-12.376h-52.22
		h-12.37v-12.37v-72.585c0-11.763,4.808-22.592,12.537-30.321C357.145,240.001,367.894,235.192,379.744,235.192 M586.49,259.932
		H379.744c-4.988,0-9.536,2.054-12.89,5.408c-3.261,3.268-5.316,7.816-5.316,12.797v60.209h27.481v-40.197v-12.364h12.37h163.462
		h12.376v12.364v40.203h27.48v-60.209c0-4.987-2.06-9.535-5.321-12.796h-0.093C596.026,261.993,591.477,259.932,586.49,259.932z"/>
	<path clip-path="url(#SVGID_2_)" fill="#EBB67A" d="M136.655,671.377c6.788,0,12.37,5.489,12.37,12.364
		c0,6.782-5.582,12.363-12.37,12.363H37.109c-10.136,0-19.412-4.208-26.2-10.903v-0.087C4.208,678.413,0,669.143,0,658.914V37.116
		C0,26.98,4.208,17.704,10.909,10.922c6.696-6.702,15.971-10.91,26.2-10.91h347.956c5.328,0,10.309,1.034,14.956,3.094
		c4.555,2.061,8.676,5.062,12.37,8.93v0.086v-0.086l93.371,99.898c0.253,0.26,0.427,0.514,0.686,0.774
		c2.995,3.348,5.149,7.048,6.696,10.909c1.547,4.214,2.407,8.676,2.407,13.403v60.643c0,6.868-5.582,12.369-12.37,12.369
		c-6.868,0-12.456-5.501-12.456-12.369V137.02c0-1.72-0.167-3.261-0.687-4.64c-0.514-1.114-1.114-2.148-1.887-3.181
		c-0.174-0.167-0.353-0.254-0.52-0.427l-93.284-99.899c-1.293-1.374-2.747-2.407-4.294-3.18c-1.455-0.601-3.088-0.941-4.982-0.941
		H37.109c-3.348,0-6.442,1.374-8.676,3.694l-0.086-0.086c-2.234,2.227-3.608,5.408-3.608,8.756v621.798
		c0,3.435,1.374,6.529,3.608,8.763l0.086,0.086c2.234,2.154,5.322,3.614,8.676,3.614H136.655z"/>
	<path clip-path="url(#SVGID_2_)" fill="#EBB67A" d="M438.238,563.836L225.991,523.54c-14.344-2.661-27.58-8.929-37.103-18.465
		c-9.115-9.103-14.783-21.039-14.783-35.389h24.739c0,7.302,2.927,13.316,7.562,17.957c5.928,5.836,14.603,9.876,24.139,11.677
		l212.248,40.284L438.238,563.836z M792.042,469.686c0,14.344-5.668,26.2-14.777,35.302v0.087
		c-9.536,9.536-22.759,15.81-37.016,18.465l-212.254,40.63l-4.635-24.22l212.248-40.63c9.622-1.887,18.297-5.835,24.219-11.676
		c4.641-4.641,7.475-10.662,7.475-17.958H792.042z"/>
	<path clip-path="url(#SVGID_2_)" fill="#EBB67A" d="M315.234,110.555c6.868,0,12.37,5.501,12.37,12.37
		c0,6.788-5.502,12.37-12.37,12.37H142.589c-6.875,0-12.376-5.582-12.376-12.37c0-6.869,5.501-12.37,12.376-12.37H315.234z
		 M83.655,110.555c6.875,0,12.463,5.501,12.463,12.37c0,6.788-5.582,12.37-12.463,12.37h-9.27c-6.794,0-12.376-5.582-12.376-12.37
		c0-6.869,5.582-12.37,12.376-12.37H83.655z"/>
	<path clip-path="url(#SVGID_2_)" fill="#EBB67A" d="M233.887,222.823c6.789,0,12.37,5.575,12.37,12.37
		c0,6.868-5.581,12.363-12.37,12.363h-91.303c-6.869,0-12.37-5.495-12.37-12.363c0-6.788,5.501-12.37,12.37-12.37H233.887z
		 M83.661,222.823c6.869,0,12.456,5.575,12.456,12.37c0,6.868-5.581,12.363-12.456,12.363h-9.276
		c-6.788,0-12.376-5.495-12.376-12.363c0-6.788,5.582-12.37,12.376-12.37H83.661z"/>
	<path clip-path="url(#SVGID_2_)" fill="#EBB67A" d="M315.234,166.729c6.868,0,12.37,5.501,12.37,12.37
		c0,6.782-5.502,12.37-12.37,12.37H142.589c-6.875,0-12.376-5.582-12.376-12.37c0-6.869,5.501-12.37,12.376-12.37H315.234z
		 M83.655,166.729c6.875,0,12.463,5.501,12.463,12.37c0,6.782-5.582,12.37-12.463,12.37h-9.27c-6.794,0-12.376-5.582-12.376-12.37
		c0-6.869,5.582-12.37,12.376-12.37H83.655z"/>
	<path clip-path="url(#SVGID_2_)" fill="#EBB67A" d="M397.782,4.56l112.602,122.232c4.554,4.981,4.301,12.796-0.773,17.431
		c-2.321,2.147-5.316,3.267-8.329,3.267h-77.56c-13.224,0-25.167-5.414-33.843-14.084c-0.253-0.259-0.519-0.513-0.773-0.773
		c-8.249-8.595-13.317-20.272-13.317-33.075V12.382c0-6.788,5.502-12.37,12.376-12.37c3.855,0,7.296,1.801,9.616,4.548H397.782z
		 M473.114,122.757l-72.585-78.686v55.493c0,6.182,2.407,11.764,6.275,15.885c0.167,0.173,0.346,0.347,0.519,0.52
		c4.208,4.208,10.044,6.782,16.399,6.782L473.114,122.757z"/>
	<path clip-path="url(#SVGID_2_)" fill="#EBB67A" d="M562.444,66.664c-1.374,6.695-7.896,10.989-14.597,9.535
		c-6.702-1.38-10.997-7.902-9.623-14.523l4.728-22.506l6.182-29.287c1.2-5.836,6.355-9.882,12.109-9.882h21.646h21.646
		c6.268,0,11.429,4.641,12.283,10.736l9.102,43.291c6.355,1.807,12.543,3.954,18.552,6.441c6.101,2.494,12.023,5.415,17.691,8.596
		l37.883-24.74c4.895-3.181,11.336-2.407,15.371,1.634h0.093l15.29,15.29c0.167,0.26,0.427,0.433,0.607,0.687l14.684,14.69
		c4.288,4.208,4.727,10.91,1.38,15.718l-24.486,37.53c3.261,5.674,6.101,11.596,8.675,17.697c2.408,6.009,4.555,12.197,6.355,18.552
		l44.152,9.362c6.101,1.201,10.222,6.702,9.882,12.71v20.972v21.645c0,6.269-4.635,11.51-10.736,12.283l-43.291,9.103
		c-1.801,6.441-3.954,12.629-6.355,18.551c-3.608,8.676-7.902,16.918-12.797,24.573c-3.602,5.835-11.25,7.555-17.091,3.861
		c-5.755-3.694-7.469-11.336-3.781-17.097c4.214-6.609,7.821-13.571,10.829-20.78c2.92-7.048,5.235-14.263,6.955-21.645
		c0.774-4.895,4.548-8.936,9.622-10.049l41.905-8.763v-11.682h0.087V197.57l-42.004-8.849c-4.548-0.94-8.416-4.467-9.536-9.362
		c-1.633-7.642-4.034-15.031-7.042-22.326c-3.007-7.215-6.615-14.177-10.829-20.786c-2.487-3.954-2.574-9.108,0.087-13.316
		l23.459-35.903l-7.568-7.642c-0.254-0.167-0.421-0.346-0.687-0.606l-8.242-8.243L669.898,93.47
		c-4.034,3.088-9.622,3.434-14.077,0.6c-6.615-4.208-13.571-7.815-20.786-10.823c-7.048-2.92-14.344-5.241-21.732-6.955
		c-4.808-0.773-8.935-4.468-9.963-9.622l-8.861-41.924h-11.59H571.2l-4.035,19.412L562.444,66.664z M582.889,132.547
		c-6.875,0-12.376-5.501-12.376-12.37c0-6.868,5.501-12.37,12.376-12.37c27.994,0,53.334,11.343,71.719,29.721
		c18.298,18.298,29.634,43.638,29.634,71.639c0,7.388-0.774,14.69-2.321,21.645c-1.547,7.122-3.867,14.003-6.862,20.612
		c-2.84,6.188-10.142,8.936-16.411,6.102c-6.181-2.841-8.848-10.143-6.008-16.324c2.228-4.808,3.948-10.05,5.148-15.551
		c1.12-5.321,1.721-10.823,1.721-16.491c0-21.132-8.589-40.29-22.419-54.2C623.173,141.142,604.015,132.547,582.889,132.547"/>
	<path clip-path="url(#SVGID_2_)" fill="#EBB67A" d="M442.28,470.038h81.681c6.448,0,12.283,2.661,16.497,6.863l0.087,0.087
		c4.214,4.22,6.868,10.142,6.868,16.583v90.537c0,17.691-7.209,33.755-18.898,45.432c-11.59,11.689-27.74,18.904-45.438,18.904
		s-33.762-7.215-45.438-18.904c-11.603-11.677-18.905-27.735-18.905-45.432v-90.537c0-6.441,2.667-12.376,6.962-16.583v-0.087
		C429.99,472.699,435.838,470.038,442.28,470.038z M522.68,494.778h-79.113v89.33c0,10.816,4.381,20.785,11.596,27.92
		c7.215,7.215,17.097,11.676,27.914,11.676c10.916,0,20.785-4.461,28.001-11.676c7.128-7.129,11.602-17.104,11.602-27.92V494.778z"
		/>
	<path clip-path="url(#SVGID_2_)" fill="#EBB67A" d="M483.071,570.099c6.832,0,12.37,5.538,12.37,12.37
		c0,6.831-5.538,12.37-12.37,12.37c-6.832,0-12.37-5.539-12.37-12.37C470.701,575.636,476.239,570.099,483.071,570.099"/>
</g>
</svg>
