<?xml version="1.0" encoding="utf-8"?>
<!-- Generator: Adobe Illustrator 17.0.0, SVG Export Plug-In . SVG Version: 6.00 Build 0)  -->
<!DOCTYPE svg PUBLIC "-//W3C//DTD SVG 1.1//EN" "http://www.w3.org/Graphics/SVG/1.1/DTD/svg11.dtd">
<svg version="1.1" id="Layer_1" xmlns="http://www.w3.org/2000/svg" xmlns:xlink="http://www.w3.org/1999/xlink" x="0px" y="0px"
	 width="86.662px" height="86.662px" viewBox="0 0 86.662 86.662" enable-background="new 0 0 86.662 86.662" xml:space="preserve">
<g>
	<defs>
		<rect id="SVGID_1_" x="0" y="0" width="86.662" height="86.662"/>
	</defs>
	<clipPath id="SVGID_2_">
		<use xlink:href="#SVGID_1_"  overflow="visible"/>
	</clipPath>
	<path clip-path="url(#SVGID_2_)" fill="#EBB67A" d="M64.272,86.662c-12.346,0-22.39-10.044-22.39-22.39s10.044-22.39,22.39-22.39
		s22.39,10.044,22.39,22.39S76.618,86.662,64.272,86.662 M64.272,44.78c-10.747,0-19.491,8.744-19.491,19.491
		c0,10.747,8.743,19.491,19.491,19.491s19.491-8.744,19.491-19.491C83.763,53.524,75.019,44.78,64.272,44.78 M1.45,86.662
		c-0.799,0-1.45-0.65-1.45-1.45v-4.188c0-3.109,2.529-5.638,5.638-5.638h0.645V18.202c0-5.418,4.408-9.826,9.826-9.826h33.505
		c5.418,0,9.826,4.408,9.826,9.826v16.533c-1.027,0.164-1.985,0.364-2.899,0.604V18.202c0-3.819-3.107-6.927-6.927-6.927H16.108
		c-3.819,0-6.927,3.107-6.927,6.927v57.184h27.301c0.399,0.994,0.849,1.965,1.345,2.899H5.638c-1.51,0-2.739,1.229-2.739,2.739
		v2.739h38.651c0.874,1.016,1.834,1.987,2.867,2.899H1.45z M63.536,74.097c-3.28,0-5.949-2.669-5.949-5.949
		c0-1.052,0.28-2.089,0.811-2.998l5.874-10.07l5.874,10.07c0.53,0.909,0.811,1.946,0.811,2.998c0,3.28-2.669,5.949-5.949,5.949
		H63.536z M20.296,44.78c-3.109,0-5.638-2.529-5.638-5.638V22.39c0-3.109,2.529-5.638,5.638-5.638h25.129
		c3.109,0,5.638,2.529,5.638,5.638v15.03c-1.002,0.494-1.969,1.038-2.899,1.63V22.39c0-1.51-1.228-2.739-2.738-2.739H20.296
		c-1.51,0-2.738,1.229-2.738,2.739v16.753c0,1.51,1.228,2.739,2.738,2.739h24.108c-1.013,0.897-1.965,1.864-2.854,2.899H20.296z
		 M86.662,44.417c-0.912-1.033-1.883-1.993-2.899-2.867V21.595L83.28,21.47c-3.414-0.884-5.799-3.95-5.799-7.456
		c0-1.357,0.369-2.67,1.096-3.903l0.254-0.43l-6.782-6.782h-7.776c-0.799,0-1.45-0.65-1.45-1.45S63.472,0,64.272,0h8.376
		c0.387,0,0.751,0.151,1.025,0.425l12.565,12.565c0.274,0.274,0.425,0.638,0.425,1.025V44.417z"/>
</g>
</svg>
